M48
;GenerationSoftware,Autodesk,EAGLE,9.6.2*%
;CreationDate,2023-09-13T09:32:59Z*%
FMAT,2
ICI,OFF
METRIC,TZ,000.000
T3C0.350
T2C1.016
T1C3.000
%
G90
M71
T1
X117000Y3000
X-12000Y3000
X117000Y107000
X-12000Y107000
T2
X117000Y18810
X-10000Y43570
X-10000Y46110
X-10000Y48650
X-10000Y51190
X-10000Y53730
X-10000Y56270
X-10000Y58810
X-10000Y61350
X-10000Y63890
X-10000Y66430
X117000Y43570
X117000Y46110
X117000Y48650
X117000Y51190
X117000Y53730
X117000Y56270
X117000Y58810
X117000Y61350
X117000Y63890
X117000Y66430
X-10000Y11190
X-10000Y13730
X-10000Y16270
X-10000Y18810
X-10000Y91190
X-10000Y93730
X-10000Y96270
X-10000Y98810
X-5000Y18730
X-5000Y21270
X113000Y18730
X113000Y21270
X-5000Y38730
X-5000Y41270
X113000Y38730
X113000Y41270
X-5000Y58730
X-5000Y61270
X113000Y58730
X113000Y61270
X-5000Y78730
X-5000Y81270
X113000Y78730
X113000Y81270
X-5000Y98730
X-5000Y101270
X113000Y98730
X113000Y101270
X117000Y91190
X117000Y93730
X117000Y96270
X117000Y98810
X117000Y11190
X117000Y13730
X117000Y16270
T3
X31875Y106625
X37000Y103375
X31250Y97500
X53750Y97500
X56250Y97500
X50750Y97500
X76250Y55000
X80875Y55000
X78750Y55000
X71000Y55625
X76250Y76250
X81750Y79125
X78750Y76250
X82875Y73750
X98750Y97500
X104250Y100375
X101250Y97500
X98250Y103375
X104250Y57750
X95750Y55000
X101375Y55000
X101875Y73750
X103500Y73750
X92625Y58125
X93625Y100875
X98750Y33750
X103500Y33750
X101250Y33750
X94125Y38375
X89125Y33375
X8750Y15250
X14250Y15375
X5750Y15250
X53125Y55000
X51625Y55000
X56250Y55000
X76250Y33750
X79375Y33750
X56125Y47250
X59250Y47250
X60750Y47250
X59500Y39625
X54375Y47250
X55875Y4250
X55875Y2750
X76250Y12500
X78750Y12500
X81750Y15375
X71750Y26000
X73250Y26000
X76500Y26000
X59375Y26000
X56000Y26000
X56000Y31250
X56500Y11000
X58875Y55000
X53750Y26000
X28200Y4400
X23950Y5650
X21750Y24375
X27375Y24375
X38625Y22250
X52750Y21625
X60375Y21875
X75375Y21625
X8500Y10250
X5750Y11625
X10000Y10875
X6750Y11500
X11750Y11500
X6750Y12500
X11000Y15875
X7625Y15875
X8250Y12500
X13750Y12500
X12875Y15875
X14750Y12500
X9250Y11875
X29375Y21250
X27125Y12500
X29750Y11250
X31875Y10375
X27250Y10375
X34875Y10250
X39375Y13750
X34875Y11250
X29375Y12500
X31875Y16000
X35125Y15250
X30500Y15250
X33375Y16000
X35750Y16000
X31250Y19000
X34625Y18375
X37250Y12500
X32000Y11875
X51750Y21625
X51750Y18375
X54375Y10250
X55500Y10875
X50500Y15250
X56250Y18250
X53000Y18375
X57000Y11875
X51750Y11875
X57625Y15250
X54375Y15250
X55875Y16000
X58250Y16000
X53125Y12500
X57250Y18375
X59625Y12500
X54625Y12500
X74375Y21250
X71125Y18000
X78000Y11500
X79000Y11250
X72875Y15500
X79250Y15250
X73875Y10500
X78125Y9375
X75125Y10500
X80750Y12500
X76875Y16000
X75500Y11875
X78125Y16000
X80625Y16000
X77000Y11875
X82250Y12500
X83125Y23875
X97500Y23875
X103875Y16000
X105750Y12500
X100000Y15250
X101625Y18375
X100000Y18250
X104750Y12500
X100625Y16000
X102125Y16000
X98125Y12500
X99375Y16000
X103250Y12500
X98125Y15875
X101875Y11250
X96625Y12500
X100625Y12500
X95750Y18375
X96875Y21250
X93625Y18000
X100000Y10625
X64500Y6750
X56125Y7500
X65750Y5125
X57125Y7500
X58500Y7500
X61750Y4625
X59750Y7750
X60750Y4750
X17125Y12500
X38500Y2500
X59625Y10875
X50125Y9250
X83375Y15250
X92750Y19125
X106000Y25625
X71625Y15250
X90500Y17750
X4125Y23625
X22500Y23750
X49250Y12500
X35250Y53750
X51375Y52375
X29875Y53125
X30375Y12500
X35375Y12500
X35375Y24625
X31875Y31250
X12750Y11500
X12750Y32625
X29625Y29500
X52250Y31250
X-2500Y93750
X12375Y93875
X29625Y97375
X34875Y95875
X10500Y72500
X11750Y73750
X29750Y74000
X35500Y75125
X51375Y73750
X52375Y96375
X74750Y67125
X79500Y68375
X104875Y72125
X107125Y72000
X74750Y4125
X80125Y4125
X96375Y10125
X58125Y4625
X102625Y9500
X69375Y69000
X102625Y106625
X96250Y106625
X96750Y87750
X101375Y20375
X103250Y87750
X51750Y24000
X57875Y24000
X6750Y24000
X9250Y24000
X15250Y24000
X36250Y21625
X34500Y64125
X28750Y64125
X57000Y87750
X53125Y87750
X73375Y63750
X69750Y63750
X69500Y86750
X39250Y64125
X500Y29625
X79500Y85375
X4500Y7500
X5750Y8000
X6250Y4750
X6750Y8000
X7250Y4750
X8000Y8000
X8500Y1750
X9500Y8000
X9500Y1750
X10625Y1750
X10875Y8125
X11750Y2125
X12375Y3375
X13375Y9000
X13050Y1750
X15100Y2800
X16750Y7375
X13920Y3920
X17000Y2900
X25400Y4500
X24875Y9125
X27375Y8750
X26125Y7875
X27875Y7875
X15750Y7500
X30750Y7500
X31000Y4750
X31750Y7500
X32000Y8500
X33125Y4750
X36375Y4375
X33250Y7500
X37625Y4750
X34875Y9125
X34750Y4125
X37375Y3125
X36250Y8750
X37250Y8500
X37875Y9250
X41250Y8375
X50000Y4125
X51375Y8125
X42750Y5375
X51375Y4750
X44125Y4875
X45125Y4750
X52875Y7500
X54875Y7500
X69250Y8000
X72375Y4375
X72625Y9250
X73875Y8000
X73875Y4625
X70625Y8000
X74875Y8000
X71625Y8000
X73875Y9375
X77125Y7625
X76250Y4750
X78750Y7500
X77250Y4750
X79375Y4750
X79500Y8125
X90625Y9125
X94125Y7750
X82000Y8125
X82750Y7500
X95125Y8375
X95125Y4500
X97125Y8500
X97250Y4500
X98125Y8500
X98875Y4750
X99875Y4750
X99750Y8375
X100875Y4750
X100750Y8625
X102000Y4750
X102250Y8000
X103250Y4750
X103750Y8000
X104625Y4750
X105500Y7500
X4625Y29000
X5750Y29250
X6250Y26000
X6750Y29250
X7250Y26000
X8000Y29250
X9250Y26000
X9375Y29250
X10250Y26000
X11250Y25875
X10875Y29375
X12250Y25875
X13375Y25625
X13750Y29250
X14750Y26000
X13625Y30250
X27250Y28750
X26375Y29250
X25125Y29250
X28875Y28750
X30750Y26000
X30625Y29375
X34875Y30000
X32500Y26000
X32375Y28750
X36750Y26000
X33500Y28750
X38250Y26000
X34500Y28750
X39000Y26750
X36125Y29625
X36000Y25375
X37875Y30250
X38375Y24750
X41250Y29250
X50000Y25375
X51375Y29375
X51375Y26000
X52375Y26000
X52875Y29750
X61500Y28000
X55250Y28750
X57125Y29750
X57000Y28750
X66750Y26750
X59125Y29000
X64250Y25375
X67000Y29875
X68750Y29250
X71625Y31000
X71625Y24125
X73250Y24750
X73875Y30625
X75375Y25375
X71625Y29250
X75750Y28750
X74875Y30625
X77125Y28750
X74875Y29250
X77500Y26000
X79875Y30625
X79250Y28750
X79750Y29625
X81125Y28750
X81500Y26000
X91375Y29250
X89125Y28625
X93500Y26625
X97875Y29250
X95125Y26000
X96625Y29875
X97125Y26000
X98125Y26000
X99250Y29250
X99625Y26000
X100250Y29250
X100625Y26000
X101250Y29250
X102250Y26000
X102250Y29250
X103250Y26000
X103750Y29250
X104625Y26000
X105500Y28750
X4250Y50250
X5250Y50500
X6250Y47250
X6750Y50500
X7625Y47250
X8000Y50500
X9250Y47250
X9375Y50500
X10250Y47250
X11250Y47125
X10875Y50625
X12250Y47125
X13375Y46875
X12125Y50500
X13750Y50500
X14750Y47250
X14500Y51125
X23875Y47875
X24625Y49500
X28875Y50250
X17625Y49250
X30875Y47250
X31875Y51250
X32875Y47250
X32375Y50000
X36750Y47250
X33500Y50000
X38250Y47250
X34500Y50000
X39000Y48000
X36125Y50875
X37500Y46625
X39875Y50500
X38625Y51375
X49625Y46750
X50125Y50000
X51375Y50000
X52000Y47250
X52875Y50000
X52875Y51000
X48125Y50375
X54125Y50000
X47375Y49625
X61000Y50000
X57125Y51000
X57125Y50000
X61500Y47875
X57750Y46625
X66875Y48000
X62875Y45625
X58375Y50000
X65875Y47250
X59750Y50250
X66500Y46250
X69250Y47750
X70875Y47125
X72375Y46500
X73000Y52125
X74625Y46000
X75875Y46625
X74250Y51875
X77125Y50625
X77375Y47250
X78125Y50625
X79250Y50000
X79375Y51000
X81000Y50000
X81500Y47250
X82250Y50500
X83375Y51125
X95125Y46500
X97875Y50500
X95125Y51625
X96625Y51125
X97125Y47250
X98125Y47250
X99250Y50500
X99375Y47250
X100250Y50500
X100375Y47250
X101250Y50500
X102250Y46500
X102250Y50500
X103250Y47250
X103750Y50500
X104625Y47250
X105500Y50000
X5000Y68500
X5750Y71750
X6250Y68500
X6750Y71750
X7250Y68500
X8000Y71750
X9250Y68500
X9000Y71750
X10250Y68500
X11250Y68375
X11750Y72625
X12250Y68375
X13375Y68125
X13875Y71750
X14750Y68500
X13750Y72750
X27250Y71250
X26250Y71125
X28875Y71250
X24250Y70500
X29125Y68500
X30750Y68500
X30625Y71875
X34875Y72875
X32500Y68500
X32375Y71250
X36750Y68500
X33500Y71250
X38250Y68500
X34500Y71250
X39000Y69250
X36125Y72500
X36000Y67875
X39625Y71750
X38375Y67250
X49750Y71500
X50000Y67875
X51375Y71250
X51375Y68500
X52375Y68500
X53375Y68500
X54000Y71875
X48500Y71000
X55375Y71750
X56375Y71875
X57125Y71250
X66875Y69250
X59125Y71500
X59250Y68250
X59875Y72250
X68750Y71750
X71625Y72875
X70750Y68500
X72250Y67875
X73000Y73375
X75375Y67875
X75000Y72500
X74250Y73125
X77125Y71875
X76875Y68500
X79750Y73125
X79250Y71250
X79750Y72125
X81000Y71250
X81250Y68500
X82250Y71500
X95125Y72750
X93500Y69125
X97875Y71750
X95125Y68500
X96625Y72375
X97125Y68500
X98125Y68500
X99250Y71750
X99625Y68500
X100250Y71750
X100625Y68500
X101250Y71750
X102250Y68500
X102250Y71750
X103250Y68500
X103750Y71750
X104625Y68500
X105500Y71250
X4500Y92500
X5750Y93000
X6250Y89750
X6750Y93000
X7250Y89750
X8000Y93000
X9250Y89750
X9375Y93000
X10250Y89750
X11250Y89625
X11000Y93250
X12250Y89625
X13250Y89750
X13375Y94000
X14875Y89750
X14375Y94125
X22250Y93500
X27375Y92750
X28875Y92500
X28875Y89750
X30875Y89750
X31125Y93125
X31875Y93750
X32875Y89750
X34125Y89750
X32750Y92500
X31750Y94750
X38250Y89750
X34500Y92500
X39000Y90500
X36125Y93375
X37500Y89125
X39875Y93000
X38625Y93875
X49625Y89250
X50125Y92500
X51375Y92500
X52000Y89750
X52875Y92500
X52875Y93500
X48125Y92875
X54125Y92500
X47375Y92125
X62500Y91750
X55125Y92500
X61500Y91625
X56750Y92500
X61875Y90375
X57250Y89500
X66875Y90500
X61625Y88000
X64375Y92875
X59500Y88750
X59750Y92750
X61500Y89000
X71000Y94125
X71000Y88250
X72125Y88500
X73875Y94375
X75375Y89125
X71625Y93000
X75750Y92500
X74875Y94375
X77125Y92500
X74875Y93000
X77500Y89750
X79750Y94375
X79250Y92500
X79750Y93375
X81625Y92500
X81625Y89625
X82500Y93000
X95125Y94000
X93500Y90750
X97875Y93000
X95125Y89750
X96625Y93625
X97125Y89750
X98125Y89750
X99250Y93000
X99625Y89750
X100250Y93000
X100625Y89750
X101250Y93000
X102250Y89750
X102250Y93000
X103250Y89750
X103750Y93000
X104625Y89750
X105500Y92500
X53125Y28750
X30625Y50625
X16250Y42250
X28375Y42250
X60875Y42875
X74000Y42875
X83125Y42875
X98000Y42875
X18875Y63500
X30000Y63500
X69750Y65250
X75375Y63750
X83125Y64125
X96500Y64125
X15625Y85375
X29000Y85375
X61250Y84750
X74625Y84750
X6875Y21625
X105875Y22500
X2875Y29000
X17625Y106625
X30125Y106625
X5250Y41750
X98750Y32500
X94625Y36500
X100875Y32500
X103375Y41250
X100750Y39625
X97500Y39625
X99250Y31125
X96750Y33125
X102750Y36500
X99250Y36500
X100875Y37250
X102125Y37250
X98000Y33125
X101875Y39625
X104625Y33750
X99500Y33125
X38000Y42875
X52875Y42875
X8000Y31000
X4750Y32750
X10500Y32250
X5625Y33750
X11750Y32500
X6750Y31625
X10375Y36750
X7125Y40000
X13750Y33750
X12000Y40125
X8250Y33750
X11375Y36875
X12750Y37250
X15125Y33625
X9250Y33125
X32625Y36625
X27125Y37875
X31250Y32500
X27250Y33250
X33250Y39625
X30875Y39625
X34500Y33750
X30250Y37250
X31875Y37250
X34875Y36500
X30875Y36500
X33375Y37250
X35750Y37250
X30375Y33125
X34500Y39625
X37125Y33750
X32000Y33125
X54125Y31875
X50125Y31875
X55625Y32500
X50375Y36500
X56750Y36500
X51500Y36500
X56875Y33750
X51750Y33125
X58125Y33750
X54375Y37125
X53125Y33750
X55625Y37250
X57750Y37250
X54625Y33750
X59125Y33750
X60000Y36500
X56750Y39750
X78125Y32000
X72625Y32000
X79000Y32500
X73125Y36500
X78750Y39500
X73875Y39625
X79625Y36500
X75500Y37125
X81000Y32500
X83250Y33750
X78375Y37250
X80250Y37250
X75500Y33125
X79750Y39625
X82250Y33750
X77125Y33125
X105125Y43000
X2875Y49000
X6875Y66500
X8000Y52125
X4625Y57750
X9125Y52125
X5250Y55000
X11750Y53500
X6750Y53375
X10625Y58500
X7375Y58500
X13375Y53750
X8500Y53750
X8500Y55000
X13750Y55000
X12750Y58500
X15000Y54875
X9250Y54375
X32625Y57875
X26125Y54875
X31250Y53750
X27625Y53750
X33250Y60875
X30875Y60875
X31875Y52375
X29125Y52375
X31875Y58500
X35250Y57750
X30875Y57750
X33375Y58500
X34625Y58500
X30375Y54375
X34375Y60875
X37375Y55000
X32000Y54375
X38125Y65000
X52875Y64000
X53625Y52875
X49750Y54875
X55375Y53500
X50375Y57750
X55875Y60875
X52625Y60875
X56500Y53750
X52000Y57750
X54375Y58500
X57625Y57750
X53000Y57750
X55875Y58500
X58250Y58500
X53750Y61500
X57125Y60875
X59875Y55000
X54250Y54375
X74375Y63750
X71125Y60500
X78000Y54000
X75625Y54250
X72250Y55000
X78625Y57875
X74625Y60875
X79500Y53750
X75000Y57875
X80250Y57750
X77000Y61000
X76625Y58000
X77875Y58500
X79375Y60875
X82250Y55000
X77000Y54375
X100875Y60875
X97625Y60875
X100250Y53750
X95375Y57750
X101875Y53750
X96625Y54375
X101625Y57750
X97500Y57750
X100625Y58500
X102375Y58500
X98125Y54375
X102000Y60875
X104750Y55000
X99500Y54375
X2125Y69125
X40250Y67125
X6875Y85375
X38250Y85375
X51500Y85375
X8000Y73125
X10750Y106625
X9000Y73125
X5125Y74125
X11750Y74750
X6750Y74625
X10625Y79750
X7375Y79250
X13375Y75000
X8500Y75000
X8500Y76250
X13750Y76250
X12875Y79625
X15000Y76250
X9250Y75625
X32625Y79125
X27125Y79125
X30625Y74625
X27250Y74625
X33250Y82125
X30875Y82125
X31875Y73750
X29125Y72500
X31875Y79750
X30625Y79750
X35500Y79000
X33375Y79750
X36125Y79750
X30500Y75625
X34375Y82125
X37500Y76250
X32375Y76250
X52875Y74375
X49375Y79000
X54250Y75000
X50375Y79000
X56250Y82000
X53250Y82125
X55875Y75000
X51875Y79000
X54375Y79750
X53125Y79750
X58250Y76250
X55875Y79750
X57125Y79750
X53000Y75625
X58625Y79750
X60125Y79750
X55250Y79000
X78000Y75250
X81625Y74375
X79125Y75000
X80875Y75000
X78250Y82125
X76250Y82125
X79625Y79000
X75000Y79000
X78375Y79750
X80250Y79750
X75500Y75625
X79375Y82125
X77000Y75625
X82250Y76250
X100750Y82125
X98375Y82125
X99500Y75000
X95125Y75000
X101625Y79000
X96500Y79000
X101875Y75625
X96750Y75625
X99375Y79750
X98125Y79750
X103250Y76250
X100625Y79750
X102250Y79750
X101875Y82125
X104750Y76250
X99875Y76250
X104875Y79000
X103250Y79750
X106125Y86125
X8625Y84875
X71625Y86125
X6750Y106500
X8375Y95500
X4750Y97500
X8250Y94500
X6750Y94500
X11875Y96875
X6625Y97500
X12250Y100875
X7625Y100875
X13250Y97500
X8875Y96750
X8250Y97500
X10375Y100250
X11500Y100250
X14750Y97000
X9500Y97500
X32625Y100375
X27125Y101625
X30750Y94750
X21250Y96750
X33250Y103375
X30875Y103375
X34750Y97500
X29875Y100250
X31875Y101000
X34875Y100250
X30875Y100250
X33375Y101000
X35750Y101000
X30500Y96875
X34500Y103375
X37250Y97500
X32000Y96875
X54125Y95625
X50125Y95625
X55625Y96250
X50375Y100250
X55875Y103375
X52375Y103375
X56750Y96250
X51625Y95000
X54250Y101000
X57500Y100375
X53000Y100250
X55875Y101000
X58250Y101000
X51500Y103875
X57250Y103375
X59250Y97500
X54500Y96875
X78000Y96500
X72250Y100250
X79000Y96250
X72625Y95875
X78375Y103375
X76250Y103375
X79625Y100250
X75500Y100875
X78375Y101000
X80250Y101000
X75500Y96875
X79375Y103375
X82500Y97500
X77000Y96875
X97875Y94875
X94625Y96625
X99500Y96250
X95375Y100250
X4625Y75875
X98000Y104500
X102250Y96625
X96875Y100250
X99375Y101000
X98125Y100250
X103250Y97500
X100875Y101000
X102125Y101000
X98000Y96875
X104750Y97500
X103250Y103375
X100250Y100250
X103125Y100875
X94875Y32750
X4125Y42375
X25125Y43500
X41000Y43500
X26625Y41625
X71625Y36500
X105875Y43625
X10750Y45250
X38625Y45875
X58500Y41500
X38375Y41500
X83375Y36500
X70000Y40250
X105875Y40000
X94875Y53625
X4125Y54250
X13375Y52375
X47625Y61500
X28750Y62750
X71000Y57375
X83375Y54375
X105750Y55000
X15875Y57750
X38375Y57750
X50625Y60875
X63250Y60625
X3375Y72000
X25625Y68500
X49250Y74500
X69500Y77500
X86000Y77625
X94250Y83125
X105875Y76250
X15875Y79000
X38375Y79000
X60375Y81375
X82750Y79500
X83625Y81625
X71625Y102250
X76500Y105125
X4125Y102125
X17125Y102750
X47375Y99000
X83375Y101000
X103500Y95250
X15875Y102125
X32000Y104750
X55250Y104500
X49250Y104500
X-7625Y97250
X45500Y28375
X9125Y21500
X34125Y24000
X55375Y24625
X78750Y21750
X100750Y21625
X79625Y42500
X100625Y42875
X9500Y42875
X32000Y42875
X55625Y45250
X63625Y45000
X79625Y63750
X100625Y64125
X9500Y64125
X32500Y66375
X55625Y64125
X101250Y85500
X9750Y84250
X32125Y87750
X55625Y88375
X78125Y87750
X93750Y87500
X9375Y106500
X31125Y105375
X57625Y106625
X76750Y106625
X37000Y106125
X33500Y106000
X54750Y105625
X77625Y106000
X26250Y25750
X21250Y25750
X33750Y42875
X22375Y40250
X36250Y20625
X55750Y42875
X9875Y20750
X80000Y21625
X101875Y21625
X100750Y45250
X89750Y47125
X100750Y66500
X92625Y66500
X92000Y21625
X102500Y88375
X32000Y67250
X24375Y67250
X55750Y66500
X33250Y85375
X19000Y83125
X50875Y84625
X78250Y85375
X90625Y72125
X9375Y79000
X14375Y79000
X31250Y76250
X11250Y79000
X9125Y57750
X5875Y57750
X8750Y36500
X5500Y39750
X31250Y33750
X35875Y33750
X28625Y33750
X31250Y55000
X35875Y55000
X28625Y55000
X33625Y55000
X28375Y76250
X53750Y76250
X59375Y79125
X56250Y76250
X51000Y76250
X71750Y89750
X73250Y89750
X76500Y89750
X76250Y97500
X79375Y97500
X81750Y100375
X54875Y106625
X59500Y103375
X59250Y89750
X74125Y97500
X60750Y92500
X8750Y100250
X5875Y100250
X100750Y103375
M30