G04 EAGLE Gerber RS-274X export*
G75*
%MOMM*%
%FSLAX34Y34*%
%LPD*%
%INBottom Copper*%
%IPPOS*%
%AMOC8*
5,1,8,0,0,1.08239X$1,22.5*%
G01*
%ADD10R,0.300000X1.300000*%
%ADD11R,1.800000X2.200000*%
%ADD12C,1.524000*%
%ADD13C,0.152400*%
%ADD14C,0.756400*%


D10*
X52500Y67500D03*
X57500Y67500D03*
X62500Y67500D03*
X67500Y67500D03*
X72500Y67500D03*
X77500Y67500D03*
X82500Y67500D03*
X87500Y67500D03*
X92500Y67500D03*
X97500Y67500D03*
X102500Y67500D03*
X107500Y67500D03*
X112500Y67500D03*
X117500Y67500D03*
X122500Y67500D03*
X127500Y67500D03*
X132500Y67500D03*
X137500Y67500D03*
X142500Y67500D03*
X147500Y67500D03*
D11*
X166500Y100000D03*
X33500Y100000D03*
D10*
X352500Y492500D03*
X357500Y492500D03*
X362500Y492500D03*
X367500Y492500D03*
X372500Y492500D03*
X377500Y492500D03*
X382500Y492500D03*
X387500Y492500D03*
X392500Y492500D03*
X397500Y492500D03*
X402500Y492500D03*
X407500Y492500D03*
X412500Y492500D03*
X417500Y492500D03*
X422500Y492500D03*
X427500Y492500D03*
X432500Y492500D03*
X437500Y492500D03*
X442500Y492500D03*
X447500Y492500D03*
D11*
X466500Y525000D03*
X333500Y525000D03*
D10*
X652500Y492500D03*
X657500Y492500D03*
X662500Y492500D03*
X667500Y492500D03*
X672500Y492500D03*
X677500Y492500D03*
X682500Y492500D03*
X687500Y492500D03*
X692500Y492500D03*
X697500Y492500D03*
X702500Y492500D03*
X707500Y492500D03*
X712500Y492500D03*
X717500Y492500D03*
X722500Y492500D03*
X727500Y492500D03*
X732500Y492500D03*
X737500Y492500D03*
X742500Y492500D03*
X747500Y492500D03*
D11*
X766500Y525000D03*
X633500Y525000D03*
D10*
X952500Y492500D03*
X957500Y492500D03*
X962500Y492500D03*
X967500Y492500D03*
X972500Y492500D03*
X977500Y492500D03*
X982500Y492500D03*
X987500Y492500D03*
X992500Y492500D03*
X997500Y492500D03*
X1002500Y492500D03*
X1007500Y492500D03*
X1012500Y492500D03*
X1017500Y492500D03*
X1022500Y492500D03*
X1027500Y492500D03*
X1032500Y492500D03*
X1037500Y492500D03*
X1042500Y492500D03*
X1047500Y492500D03*
D11*
X1066500Y525000D03*
X933500Y525000D03*
D10*
X52500Y705000D03*
X57500Y705000D03*
X62500Y705000D03*
X67500Y705000D03*
X72500Y705000D03*
X77500Y705000D03*
X82500Y705000D03*
X87500Y705000D03*
X92500Y705000D03*
X97500Y705000D03*
X102500Y705000D03*
X107500Y705000D03*
X112500Y705000D03*
X117500Y705000D03*
X122500Y705000D03*
X127500Y705000D03*
X132500Y705000D03*
X137500Y705000D03*
X142500Y705000D03*
X147500Y705000D03*
D11*
X166500Y737500D03*
X33500Y737500D03*
D10*
X352500Y705000D03*
X357500Y705000D03*
X362500Y705000D03*
X367500Y705000D03*
X372500Y705000D03*
X377500Y705000D03*
X382500Y705000D03*
X387500Y705000D03*
X392500Y705000D03*
X397500Y705000D03*
X402500Y705000D03*
X407500Y705000D03*
X412500Y705000D03*
X417500Y705000D03*
X422500Y705000D03*
X427500Y705000D03*
X432500Y705000D03*
X437500Y705000D03*
X442500Y705000D03*
X447500Y705000D03*
D11*
X466500Y737500D03*
X333500Y737500D03*
D10*
X652500Y705000D03*
X657500Y705000D03*
X662500Y705000D03*
X667500Y705000D03*
X672500Y705000D03*
X677500Y705000D03*
X682500Y705000D03*
X687500Y705000D03*
X692500Y705000D03*
X697500Y705000D03*
X702500Y705000D03*
X707500Y705000D03*
X712500Y705000D03*
X717500Y705000D03*
X722500Y705000D03*
X727500Y705000D03*
X732500Y705000D03*
X737500Y705000D03*
X742500Y705000D03*
X747500Y705000D03*
D11*
X766500Y737500D03*
X633500Y737500D03*
D10*
X952500Y705000D03*
X957500Y705000D03*
X962500Y705000D03*
X967500Y705000D03*
X972500Y705000D03*
X977500Y705000D03*
X982500Y705000D03*
X987500Y705000D03*
X992500Y705000D03*
X997500Y705000D03*
X1002500Y705000D03*
X1007500Y705000D03*
X1012500Y705000D03*
X1017500Y705000D03*
X1022500Y705000D03*
X1027500Y705000D03*
X1032500Y705000D03*
X1037500Y705000D03*
X1042500Y705000D03*
X1047500Y705000D03*
D11*
X1066500Y737500D03*
X933500Y737500D03*
D10*
X52500Y917500D03*
X57500Y917500D03*
X62500Y917500D03*
X67500Y917500D03*
X72500Y917500D03*
X77500Y917500D03*
X82500Y917500D03*
X87500Y917500D03*
X92500Y917500D03*
X97500Y917500D03*
X102500Y917500D03*
X107500Y917500D03*
X112500Y917500D03*
X117500Y917500D03*
X122500Y917500D03*
X127500Y917500D03*
X132500Y917500D03*
X137500Y917500D03*
X142500Y917500D03*
X147500Y917500D03*
D11*
X166500Y950000D03*
X33500Y950000D03*
D10*
X352500Y917500D03*
X357500Y917500D03*
X362500Y917500D03*
X367500Y917500D03*
X372500Y917500D03*
X377500Y917500D03*
X382500Y917500D03*
X387500Y917500D03*
X392500Y917500D03*
X397500Y917500D03*
X402500Y917500D03*
X407500Y917500D03*
X412500Y917500D03*
X417500Y917500D03*
X422500Y917500D03*
X427500Y917500D03*
X432500Y917500D03*
X437500Y917500D03*
X442500Y917500D03*
X447500Y917500D03*
D11*
X466500Y950000D03*
X333500Y950000D03*
D10*
X652500Y917500D03*
X657500Y917500D03*
X662500Y917500D03*
X667500Y917500D03*
X672500Y917500D03*
X677500Y917500D03*
X682500Y917500D03*
X687500Y917500D03*
X692500Y917500D03*
X697500Y917500D03*
X702500Y917500D03*
X707500Y917500D03*
X712500Y917500D03*
X717500Y917500D03*
X722500Y917500D03*
X727500Y917500D03*
X732500Y917500D03*
X737500Y917500D03*
X742500Y917500D03*
X747500Y917500D03*
D11*
X766500Y950000D03*
X633500Y950000D03*
D10*
X352500Y67500D03*
X357500Y67500D03*
X362500Y67500D03*
X367500Y67500D03*
X372500Y67500D03*
X377500Y67500D03*
X382500Y67500D03*
X387500Y67500D03*
X392500Y67500D03*
X397500Y67500D03*
X402500Y67500D03*
X407500Y67500D03*
X412500Y67500D03*
X417500Y67500D03*
X422500Y67500D03*
X427500Y67500D03*
X432500Y67500D03*
X437500Y67500D03*
X442500Y67500D03*
X447500Y67500D03*
D11*
X466500Y100000D03*
X333500Y100000D03*
D10*
X952500Y917500D03*
X957500Y917500D03*
X962500Y917500D03*
X967500Y917500D03*
X972500Y917500D03*
X977500Y917500D03*
X982500Y917500D03*
X987500Y917500D03*
X992500Y917500D03*
X997500Y917500D03*
X1002500Y917500D03*
X1007500Y917500D03*
X1012500Y917500D03*
X1017500Y917500D03*
X1022500Y917500D03*
X1027500Y917500D03*
X1032500Y917500D03*
X1037500Y917500D03*
X1042500Y917500D03*
X1047500Y917500D03*
D11*
X1066500Y950000D03*
X933500Y950000D03*
D10*
X652500Y67500D03*
X657500Y67500D03*
X662500Y67500D03*
X667500Y67500D03*
X672500Y67500D03*
X677500Y67500D03*
X682500Y67500D03*
X687500Y67500D03*
X692500Y67500D03*
X697500Y67500D03*
X702500Y67500D03*
X707500Y67500D03*
X712500Y67500D03*
X717500Y67500D03*
X722500Y67500D03*
X727500Y67500D03*
X732500Y67500D03*
X737500Y67500D03*
X742500Y67500D03*
X747500Y67500D03*
D11*
X766500Y100000D03*
X633500Y100000D03*
D10*
X952500Y67500D03*
X957500Y67500D03*
X962500Y67500D03*
X967500Y67500D03*
X972500Y67500D03*
X977500Y67500D03*
X982500Y67500D03*
X987500Y67500D03*
X992500Y67500D03*
X997500Y67500D03*
X1002500Y67500D03*
X1007500Y67500D03*
X1012500Y67500D03*
X1017500Y67500D03*
X1022500Y67500D03*
X1027500Y67500D03*
X1032500Y67500D03*
X1037500Y67500D03*
X1042500Y67500D03*
X1047500Y67500D03*
D11*
X1066500Y100000D03*
X933500Y100000D03*
D10*
X52500Y280000D03*
X57500Y280000D03*
X62500Y280000D03*
X67500Y280000D03*
X72500Y280000D03*
X77500Y280000D03*
X82500Y280000D03*
X87500Y280000D03*
X92500Y280000D03*
X97500Y280000D03*
X102500Y280000D03*
X107500Y280000D03*
X112500Y280000D03*
X117500Y280000D03*
X122500Y280000D03*
X127500Y280000D03*
X132500Y280000D03*
X137500Y280000D03*
X142500Y280000D03*
X147500Y280000D03*
D11*
X166500Y312500D03*
X33500Y312500D03*
D10*
X352500Y280000D03*
X357500Y280000D03*
X362500Y280000D03*
X367500Y280000D03*
X372500Y280000D03*
X377500Y280000D03*
X382500Y280000D03*
X387500Y280000D03*
X392500Y280000D03*
X397500Y280000D03*
X402500Y280000D03*
X407500Y280000D03*
X412500Y280000D03*
X417500Y280000D03*
X422500Y280000D03*
X427500Y280000D03*
X432500Y280000D03*
X437500Y280000D03*
X442500Y280000D03*
X447500Y280000D03*
D11*
X466500Y312500D03*
X333500Y312500D03*
D10*
X652500Y280000D03*
X657500Y280000D03*
X662500Y280000D03*
X667500Y280000D03*
X672500Y280000D03*
X677500Y280000D03*
X682500Y280000D03*
X687500Y280000D03*
X692500Y280000D03*
X697500Y280000D03*
X702500Y280000D03*
X707500Y280000D03*
X712500Y280000D03*
X717500Y280000D03*
X722500Y280000D03*
X727500Y280000D03*
X732500Y280000D03*
X737500Y280000D03*
X742500Y280000D03*
X747500Y280000D03*
D11*
X766500Y312500D03*
X633500Y312500D03*
D10*
X952500Y280000D03*
X957500Y280000D03*
X962500Y280000D03*
X967500Y280000D03*
X972500Y280000D03*
X977500Y280000D03*
X982500Y280000D03*
X987500Y280000D03*
X992500Y280000D03*
X997500Y280000D03*
X1002500Y280000D03*
X1007500Y280000D03*
X1012500Y280000D03*
X1017500Y280000D03*
X1022500Y280000D03*
X1027500Y280000D03*
X1032500Y280000D03*
X1037500Y280000D03*
X1042500Y280000D03*
X1047500Y280000D03*
D11*
X1066500Y312500D03*
X933500Y312500D03*
D10*
X52500Y492500D03*
X57500Y492500D03*
X62500Y492500D03*
X67500Y492500D03*
X72500Y492500D03*
X77500Y492500D03*
X82500Y492500D03*
X87500Y492500D03*
X92500Y492500D03*
X97500Y492500D03*
X102500Y492500D03*
X107500Y492500D03*
X112500Y492500D03*
X117500Y492500D03*
X122500Y492500D03*
X127500Y492500D03*
X132500Y492500D03*
X137500Y492500D03*
X142500Y492500D03*
X147500Y492500D03*
D11*
X166500Y525000D03*
X33500Y525000D03*
D12*
X-92380Y435700D02*
X-107620Y435700D01*
X-107620Y461100D02*
X-92380Y461100D01*
X-92380Y486500D02*
X-107620Y486500D01*
X-107620Y511900D02*
X-92380Y511900D01*
X-92380Y537300D02*
X-107620Y537300D01*
X-107620Y562700D02*
X-92380Y562700D01*
X-92380Y588100D02*
X-107620Y588100D01*
X-107620Y613500D02*
X-92380Y613500D01*
X-92380Y638900D02*
X-107620Y638900D01*
X-107620Y664300D02*
X-92380Y664300D01*
X1162380Y435700D02*
X1177620Y435700D01*
X1177620Y461100D02*
X1162380Y461100D01*
X1162380Y486500D02*
X1177620Y486500D01*
X1177620Y511900D02*
X1162380Y511900D01*
X1162380Y537300D02*
X1177620Y537300D01*
X1177620Y562700D02*
X1162380Y562700D01*
X1162380Y588100D02*
X1177620Y588100D01*
X1177620Y613500D02*
X1162380Y613500D01*
X1162380Y638900D02*
X1177620Y638900D01*
X1177620Y664300D02*
X1162380Y664300D01*
X-92380Y111900D02*
X-107620Y111900D01*
X-107620Y137300D02*
X-92380Y137300D01*
X-92380Y162700D02*
X-107620Y162700D01*
X-107620Y188100D02*
X-92380Y188100D01*
X-92380Y911900D02*
X-107620Y911900D01*
X-107620Y937300D02*
X-92380Y937300D01*
X-92380Y962700D02*
X-107620Y962700D01*
X-107620Y988100D02*
X-92380Y988100D01*
X-57620Y187300D02*
X-42380Y187300D01*
X-42380Y212700D02*
X-57620Y212700D01*
X1122380Y187300D02*
X1137620Y187300D01*
X1137620Y212700D02*
X1122380Y212700D01*
X-42380Y387300D02*
X-57620Y387300D01*
X-57620Y412700D02*
X-42380Y412700D01*
X1122380Y387300D02*
X1137620Y387300D01*
X1137620Y412700D02*
X1122380Y412700D01*
X-42380Y587300D02*
X-57620Y587300D01*
X-57620Y612700D02*
X-42380Y612700D01*
X1122380Y587300D02*
X1137620Y587300D01*
X1137620Y612700D02*
X1122380Y612700D01*
X-42380Y787300D02*
X-57620Y787300D01*
X-57620Y812700D02*
X-42380Y812700D01*
X1122380Y787300D02*
X1137620Y787300D01*
X1137620Y812700D02*
X1122380Y812700D01*
X-42380Y987300D02*
X-57620Y987300D01*
X-57620Y1012700D02*
X-42380Y1012700D01*
X1122380Y987300D02*
X1137620Y987300D01*
X1137620Y1012700D02*
X1122380Y1012700D01*
X1162380Y911900D02*
X1177620Y911900D01*
X1177620Y937300D02*
X1162380Y937300D01*
X1162380Y962700D02*
X1177620Y962700D01*
X1177620Y988100D02*
X1162380Y988100D01*
X1162380Y111900D02*
X1177620Y111900D01*
X1177620Y137300D02*
X1162380Y137300D01*
X1162380Y162700D02*
X1177620Y162700D01*
X1177620Y188100D02*
X1162380Y188100D01*
D13*
X107500Y1066250D02*
X101250Y1066250D01*
X96250Y1071250D01*
X-17500Y1071250D01*
X-100000Y988750D01*
X-100000Y988100D01*
X113750Y1060000D02*
X303750Y1060000D01*
X335000Y1060000D01*
X113750Y1060000D02*
X107500Y1066250D01*
X373750Y1056250D02*
X530000Y1056250D01*
X547500Y1056250D01*
X373750Y1056250D02*
X372500Y1055000D01*
X353750Y1055000D01*
X336250Y1072500D01*
X316250Y1072500D01*
X303750Y1060000D01*
X573750Y1060000D02*
X776250Y1060000D01*
X573750Y1060000D02*
X561250Y1072500D01*
X546250Y1072500D01*
X530000Y1056250D01*
X262500Y257500D02*
X212500Y257500D01*
X333750Y428750D02*
X337500Y428750D01*
X327500Y422500D02*
X307500Y402500D01*
X327500Y422500D02*
X333750Y428750D01*
X307500Y402500D02*
X223750Y402500D01*
X537500Y428750D02*
X557500Y428750D01*
X537500Y428750D02*
X531250Y422500D01*
X327500Y422500D01*
X-72500Y187500D02*
X-100000Y187500D01*
X-72500Y187500D02*
X-61250Y176250D01*
X67500Y176250D01*
X98750Y207500D01*
X-100000Y188100D02*
X-100000Y187500D01*
X920000Y216250D02*
X958750Y216250D01*
X920000Y216250D02*
X800000Y216250D01*
X958750Y216250D02*
X965000Y222500D01*
X1018750Y222500D02*
X1052500Y222500D01*
X1018750Y222500D02*
X965000Y222500D01*
X1052500Y222500D02*
X1077500Y197500D01*
X1161250Y197500D01*
X1170000Y188750D01*
X1170000Y188100D01*
X1018750Y216250D02*
X1018750Y222500D01*
X1007500Y452500D02*
X916250Y452500D01*
X897500Y471250D01*
X926250Y665000D02*
X1007500Y665000D01*
X1025000Y883750D02*
X1066250Y883750D01*
X1170000Y987500D01*
X1170000Y988100D01*
X320000Y672500D02*
X243750Y672500D01*
X332500Y665000D02*
X557500Y665000D01*
X332500Y665000D02*
X325000Y672500D01*
X320000Y672500D01*
X332500Y853750D02*
X298750Y853750D01*
X276250Y831250D01*
X190000Y831250D01*
X340000Y846250D02*
X508750Y846250D01*
X340000Y846250D02*
X332500Y853750D01*
X523750Y853750D02*
X782500Y853750D01*
X523750Y853750D02*
X516250Y846250D01*
X508750Y846250D01*
X833750Y883750D02*
X1025000Y883750D01*
X810000Y860000D02*
X797500Y847500D01*
X810000Y860000D02*
X833750Y883750D01*
X796250Y847500D02*
X788750Y847500D01*
X796250Y847500D02*
X797500Y847500D01*
X788750Y847500D02*
X782500Y853750D01*
X833750Y793750D02*
X906250Y721250D01*
X833750Y793750D02*
X833750Y810000D01*
X796250Y847500D01*
X557500Y445000D02*
X557500Y428750D01*
X557500Y445000D02*
X562500Y450000D01*
X562500Y455000D01*
X551250Y466250D01*
X541250Y466250D01*
X537500Y470000D01*
X537500Y485000D01*
X592500Y540000D01*
X597500Y540000D01*
X605000Y547500D01*
X605000Y617500D01*
X557500Y665000D01*
X827500Y1008750D02*
X776250Y1060000D01*
X827500Y1008750D02*
X827500Y1007500D01*
X831250Y1003750D01*
X831250Y948750D01*
X810000Y927500D01*
X810000Y860000D01*
D14*
X107500Y1066250D03*
X335000Y1060000D03*
X547500Y1056250D03*
X776250Y1060000D03*
X262500Y257500D03*
X212500Y257500D03*
X337500Y428750D03*
X223750Y402500D03*
X362500Y206250D03*
X557500Y428750D03*
X98750Y207500D03*
X800000Y216250D03*
X1018750Y216250D03*
X1007500Y452500D03*
X897500Y471250D03*
X1007500Y665000D03*
X926250Y665000D03*
X920000Y216250D03*
X1025000Y883750D03*
X320000Y672500D03*
X243750Y672500D03*
X557500Y665000D03*
X332500Y853750D03*
X190000Y831250D03*
X508750Y846250D03*
X782500Y853750D03*
X906250Y721250D03*
D13*
X143750Y790000D02*
X112500Y790000D01*
X93750Y790000D01*
X171250Y762500D02*
X283750Y762500D01*
X312500Y762500D01*
X171250Y762500D02*
X143750Y790000D01*
X91250Y577500D02*
X58750Y577500D01*
X55000Y397500D02*
X87500Y365000D01*
X312500Y337500D02*
X336250Y337500D01*
X342500Y343750D01*
X352500Y343750D01*
X358750Y337500D01*
X312500Y337500D02*
X286250Y337500D01*
X336250Y550000D02*
X358750Y550000D01*
X336250Y550000D02*
X312500Y550000D01*
X286250Y550000D01*
X562500Y762500D02*
X565000Y762500D01*
X562500Y762500D02*
X537500Y762500D01*
X565000Y762500D02*
X593750Y791250D01*
X537500Y762500D02*
X510000Y762500D01*
X717500Y897500D02*
X732500Y897500D01*
X765000Y897500D01*
X788750Y975000D02*
X793750Y975000D01*
X788750Y975000D02*
X762500Y975000D01*
X788750Y975000D02*
X817500Y1003750D01*
X562500Y1066250D02*
X548750Y1066250D01*
X578750Y1050000D02*
X595000Y1033750D01*
X578750Y1050000D02*
X562500Y1066250D01*
X592500Y923750D02*
X592500Y910000D01*
X592500Y897500D01*
X592500Y923750D02*
X591250Y925000D01*
X591250Y965000D01*
X598750Y972500D01*
X598750Y1016250D02*
X598750Y1030000D01*
X598750Y1016250D02*
X598750Y972500D01*
X598750Y1030000D02*
X595000Y1033750D01*
X805000Y1016250D02*
X817500Y1003750D01*
X805000Y1016250D02*
X598750Y1016250D01*
X741250Y975000D02*
X762500Y975000D01*
X607500Y925000D02*
X592500Y910000D01*
X58750Y1002500D02*
X36250Y1002500D01*
X58750Y1002500D02*
X87500Y1002500D01*
X36250Y1002500D02*
X-2500Y963750D01*
X-100000Y963750D01*
X-100000Y962700D01*
X318750Y1066250D02*
X337500Y1066250D01*
X370000Y1033750D01*
X312500Y975000D02*
X312500Y967500D01*
X317500Y962500D01*
X322500Y962500D01*
X325000Y965000D01*
X371250Y965000D01*
X378750Y972500D01*
X378750Y1008750D02*
X378750Y1025000D01*
X378750Y1008750D02*
X378750Y972500D01*
X378750Y1025000D02*
X370000Y1033750D01*
X537500Y977500D02*
X537500Y975000D01*
X537500Y977500D02*
X506250Y1008750D01*
X473750Y1008750D02*
X378750Y1008750D01*
X473750Y1008750D02*
X506250Y1008750D01*
X537500Y975000D02*
X562500Y975000D01*
X507500Y975000D02*
X473750Y1008750D01*
X95000Y1002500D02*
X87500Y1002500D01*
X95000Y1002500D02*
X107500Y1015000D01*
X263750Y1015000D01*
X303750Y975000D01*
X312500Y975000D01*
X566250Y1037500D02*
X578750Y1050000D01*
X566250Y1037500D02*
X566250Y1031250D01*
X581250Y1016250D01*
X585000Y1016250D01*
X588750Y1012500D01*
X588750Y1001250D01*
X562500Y975000D01*
X787500Y550000D02*
X808750Y550000D01*
X787500Y550000D02*
X762500Y550000D01*
X731250Y550000D01*
X725000Y556250D01*
X710000Y556250D01*
X787500Y762500D02*
X788750Y762500D01*
X787500Y762500D02*
X762500Y762500D01*
X810000Y783750D02*
X817500Y791250D01*
X810000Y783750D02*
X788750Y762500D01*
X810000Y783750D02*
X828750Y765000D01*
X828750Y737500D01*
X1012500Y975000D02*
X1013750Y975000D01*
X1012500Y975000D02*
X987500Y975000D01*
X1013750Y975000D02*
X1042500Y1003750D01*
X987500Y1008750D02*
X987500Y1028750D01*
X987500Y1008750D02*
X987500Y975000D01*
X987500Y1028750D02*
X982500Y1033750D01*
X1025000Y577500D02*
X1042500Y577500D01*
X1025000Y577500D02*
X997500Y550000D01*
X957500Y550000D01*
X997500Y550000D02*
X1013750Y550000D01*
X1018750Y737500D02*
X1035000Y737500D01*
X926250Y581250D02*
X957500Y550000D01*
X936250Y1008750D02*
X987500Y1008750D01*
X1012500Y337500D02*
X1035000Y337500D01*
X1012500Y337500D02*
X987500Y337500D01*
X941250Y383750D01*
X891250Y333750D01*
X57500Y152500D02*
X-90000Y152500D01*
X57500Y152500D02*
X87500Y152500D01*
X-90000Y152500D02*
X-100000Y162500D01*
X-100000Y162700D01*
X132500Y153750D02*
X142500Y153750D01*
X132500Y153750D02*
X131250Y152500D01*
X87500Y152500D01*
X516250Y550000D02*
X531250Y550000D01*
X562500Y550000D01*
X762500Y337500D02*
X790000Y337500D01*
X592500Y472500D02*
X561250Y472500D01*
X595000Y472500D02*
X607500Y472500D01*
X595000Y472500D02*
X595000Y396250D01*
X595000Y472500D02*
X592500Y472500D01*
X790000Y375000D02*
X790000Y337500D01*
X790000Y375000D02*
X775000Y390000D01*
X606250Y390000D02*
X601250Y390000D01*
X606250Y390000D02*
X775000Y390000D01*
X601250Y390000D02*
X595000Y396250D01*
X790000Y337500D02*
X793750Y337500D01*
X561250Y472500D02*
X543750Y472500D01*
X558750Y42500D02*
X558750Y27500D01*
X762500Y125000D02*
X787500Y125000D01*
X788750Y125000D02*
X817500Y153750D01*
X788750Y125000D02*
X787500Y125000D01*
X732500Y260000D02*
X717500Y260000D01*
X732500Y260000D02*
X760000Y260000D01*
X765000Y260000D01*
X593750Y260000D02*
X560000Y260000D01*
X560000Y297500D01*
X560000Y312500D01*
X565000Y110000D02*
X578750Y110000D01*
X587500Y118750D01*
X598750Y118750D01*
X602500Y122500D01*
X602500Y211250D01*
X593750Y220000D01*
X593750Y235000D02*
X593750Y260000D01*
X593750Y235000D02*
X593750Y220000D01*
X760000Y251250D02*
X760000Y260000D01*
X760000Y251250D02*
X743750Y235000D01*
X593750Y235000D01*
X606250Y343750D02*
X606250Y390000D01*
X606250Y343750D02*
X560000Y297500D01*
X562500Y550000D02*
X588750Y550000D01*
X560000Y260000D02*
X537500Y260000D01*
D14*
X93750Y790000D03*
X143750Y790000D03*
X312500Y762500D03*
X112500Y790000D03*
X91250Y577500D03*
X58750Y577500D03*
X87500Y365000D03*
X55000Y397500D03*
X312500Y337500D03*
X358750Y337500D03*
X286250Y337500D03*
X312500Y550000D03*
X358750Y550000D03*
X286250Y550000D03*
X336250Y550000D03*
X283750Y762500D03*
X537500Y762500D03*
X593750Y791250D03*
X562500Y762500D03*
X510000Y762500D03*
X717500Y897500D03*
X732500Y897500D03*
X765000Y897500D03*
X762500Y975000D03*
X793750Y975000D03*
X817500Y1003750D03*
X548750Y1066250D03*
X595000Y1033750D03*
X592500Y897500D03*
X741250Y975000D03*
X607500Y925000D03*
X87500Y1002500D03*
X58750Y1002500D03*
X318750Y1066250D03*
X370000Y1033750D03*
X312500Y975000D03*
X537500Y975000D03*
X562500Y975000D03*
X507500Y975000D03*
X762500Y550000D03*
X808750Y550000D03*
X787500Y550000D03*
X710000Y556250D03*
X762500Y762500D03*
X817500Y791250D03*
X787500Y762500D03*
X828750Y737500D03*
X987500Y975000D03*
X1042500Y1003750D03*
X1012500Y975000D03*
X982500Y1033750D03*
X1042500Y577500D03*
X957500Y550000D03*
X1013750Y550000D03*
X1018750Y737500D03*
X1035000Y737500D03*
X926250Y581250D03*
X936250Y1008750D03*
X987500Y337500D03*
X1035000Y337500D03*
X1012500Y337500D03*
X941250Y383750D03*
X891250Y333750D03*
X87500Y152500D03*
X142500Y153750D03*
X57500Y152500D03*
X531250Y550000D03*
X516250Y550000D03*
X562500Y550000D03*
X762500Y337500D03*
X793750Y337500D03*
X561250Y472500D03*
X592500Y472500D03*
X607500Y472500D03*
X595000Y396250D03*
X543750Y472500D03*
X558750Y42500D03*
X558750Y27500D03*
X762500Y125000D03*
X787500Y125000D03*
X817500Y153750D03*
X717500Y260000D03*
X732500Y260000D03*
X765000Y260000D03*
X593750Y260000D03*
X560000Y260000D03*
X560000Y312500D03*
X565000Y110000D03*
X588750Y550000D03*
X537500Y260000D03*
X282000Y44000D03*
D13*
X263582Y44000D01*
X245932Y51068D02*
X240000Y57000D01*
X256514Y51068D02*
X263582Y44000D01*
X256514Y51068D02*
X245932Y51068D01*
X240000Y57000D02*
X239500Y56500D01*
D14*
X239500Y56500D03*
D13*
X217500Y243750D02*
X273750Y243750D01*
D14*
X217500Y243750D03*
X273750Y243750D03*
D13*
X386250Y222500D02*
X521250Y222500D01*
X527500Y216250D01*
D14*
X386250Y222500D03*
X527500Y216250D03*
D13*
X603750Y218750D02*
X751250Y218750D01*
X753750Y216250D01*
D14*
X603750Y218750D03*
X753750Y216250D03*
D13*
X85000Y102500D02*
X71250Y102500D01*
X57500Y116250D01*
D14*
X85000Y102500D03*
X57500Y116250D03*
D13*
X73750Y108750D02*
X100000Y108750D01*
X73750Y108750D02*
X67500Y115000D01*
D14*
X100000Y108750D03*
X67500Y115000D03*
D13*
X97500Y115000D02*
X117500Y115000D01*
X97500Y115000D02*
X95000Y112500D01*
X80000Y112500D01*
X67500Y125000D01*
D14*
X117500Y115000D03*
X67500Y125000D03*
D13*
X76250Y158750D02*
X110000Y158750D01*
D14*
X110000Y158750D03*
X76250Y158750D03*
D13*
X82500Y125000D02*
X137500Y125000D01*
D14*
X82500Y125000D03*
X137500Y125000D03*
D13*
X112500Y118750D02*
X92500Y118750D01*
X112500Y118750D02*
X115000Y121250D01*
X132500Y121250D01*
X135000Y118750D01*
X141250Y118750D01*
X147500Y125000D01*
D14*
X128750Y158750D03*
X147500Y125000D03*
X92500Y118750D03*
D13*
X293750Y147500D02*
X293750Y212500D01*
X277500Y131250D02*
X271250Y125000D01*
X277500Y131250D02*
X293750Y147500D01*
X278750Y131250D02*
X297500Y112500D01*
X278750Y131250D02*
X277500Y131250D01*
D14*
X293750Y212500D03*
X271250Y125000D03*
X297500Y112500D03*
D13*
X318750Y103750D02*
X272500Y103750D01*
D14*
X318750Y103750D03*
X272500Y103750D03*
D13*
X348750Y102500D02*
X358750Y102500D01*
X393750Y137500D01*
D14*
X348750Y102500D03*
X393750Y137500D03*
X348750Y112500D03*
X293750Y125000D03*
D13*
X318750Y160000D02*
X325000Y160000D01*
X332500Y152500D01*
X351250Y152500D01*
X332500Y152500D02*
X305000Y152500D01*
D14*
X318750Y160000D03*
X351250Y152500D03*
X305000Y152500D03*
D13*
X340000Y160000D02*
X357500Y160000D01*
X340000Y160000D02*
X333750Y160000D01*
X336250Y190000D02*
X312500Y190000D01*
X336250Y190000D02*
X340000Y186250D01*
X340000Y160000D01*
D14*
X333750Y160000D03*
X357500Y160000D03*
X312500Y190000D03*
D13*
X346250Y183750D02*
X346250Y180000D01*
X372500Y153750D01*
X372500Y125000D01*
X366250Y118750D02*
X320000Y118750D01*
X366250Y118750D02*
X372500Y125000D01*
D14*
X346250Y183750D03*
X372500Y125000D03*
X320000Y118750D03*
D13*
X517500Y183750D02*
X517500Y216250D01*
X520000Y102500D02*
X543750Y102500D01*
X520000Y102500D02*
X498750Y123750D01*
X498750Y165000D01*
X517500Y183750D01*
D14*
X517500Y216250D03*
X517500Y183750D03*
X543750Y102500D03*
D13*
X555000Y108750D02*
X518750Y108750D01*
X505000Y122500D01*
X505000Y152500D01*
D14*
X555000Y108750D03*
X505000Y152500D03*
D13*
X531250Y182500D02*
X562500Y182500D01*
X531250Y182500D02*
X530000Y183750D01*
D14*
X562500Y182500D03*
X530000Y183750D03*
D13*
X517500Y118750D02*
X570000Y118750D01*
D14*
X570000Y118750D03*
X517500Y118750D03*
D13*
X543750Y152500D02*
X576250Y152500D01*
D14*
X576250Y152500D03*
X543750Y152500D03*
D13*
X558750Y160000D02*
X582500Y160000D01*
X531250Y148750D02*
X531250Y125000D01*
X531250Y148750D02*
X542500Y160000D01*
X558750Y160000D01*
D14*
X558750Y160000D03*
X582500Y160000D03*
X531250Y125000D03*
D13*
X572500Y178750D02*
X572500Y183750D01*
X572500Y178750D02*
X596250Y155000D01*
X596250Y125000D01*
X546250Y125000D01*
D14*
X572500Y183750D03*
X596250Y125000D03*
X546250Y125000D03*
D13*
X711250Y180000D02*
X743750Y212500D01*
D14*
X743750Y212500D03*
X711250Y180000D03*
X780000Y115000D03*
X790000Y112500D03*
X728750Y155000D03*
D13*
X792500Y157500D02*
X792500Y152500D01*
X792500Y157500D02*
X783750Y166250D01*
X760000Y166250D01*
X722500Y128750D01*
X722500Y121250D01*
X738750Y105000D01*
D14*
X792500Y152500D03*
X738750Y105000D03*
X781250Y93750D03*
X751250Y105000D03*
X807500Y125000D03*
X768750Y160000D03*
D13*
X755000Y118750D02*
X730000Y118750D01*
X726250Y122500D01*
X726250Y127500D01*
X752500Y153750D01*
X775000Y153750D01*
X781250Y160000D01*
D14*
X755000Y118750D03*
X781250Y160000D03*
D13*
X806250Y160000D02*
X820000Y160000D01*
X823750Y156250D01*
X823750Y151250D01*
X810000Y137500D02*
X791250Y118750D01*
X810000Y137500D02*
X823750Y151250D01*
X791250Y118750D02*
X785000Y118750D01*
X782500Y121250D01*
X772500Y121250D01*
X770000Y118750D01*
X810000Y137500D02*
X822500Y125000D01*
D14*
X806250Y160000D03*
X770000Y118750D03*
X822500Y125000D03*
D13*
X831250Y238750D02*
X975000Y238750D01*
D14*
X831250Y238750D03*
X975000Y238750D03*
D13*
X1038750Y152500D02*
X1038750Y143750D01*
X1038750Y152500D02*
X1038750Y160000D01*
X1038750Y143750D02*
X1057500Y125000D01*
X1038750Y152500D02*
X1000000Y152500D01*
D14*
X1038750Y160000D03*
X1057500Y125000D03*
X1000000Y152500D03*
X1016250Y183750D03*
X1000000Y182500D03*
X1047500Y125000D03*
D13*
X981250Y125000D02*
X981250Y145000D01*
X951250Y175000D01*
X951250Y186250D01*
X955000Y190000D01*
X976250Y190000D01*
X1006250Y160000D01*
D14*
X1006250Y160000D03*
X1021250Y160000D03*
X981250Y125000D03*
D13*
X993750Y150000D02*
X993750Y158750D01*
X993750Y150000D02*
X1018750Y125000D01*
X1032500Y125000D01*
X993750Y158750D02*
X981250Y158750D01*
X993750Y158750D02*
X993750Y160000D01*
D14*
X993750Y160000D03*
X1032500Y125000D03*
X981250Y158750D03*
D13*
X978750Y112500D02*
X1018750Y112500D01*
X978750Y112500D02*
X966250Y125000D01*
D14*
X1018750Y112500D03*
X966250Y125000D03*
D13*
X1006250Y125000D02*
X957500Y173750D01*
X957500Y183750D01*
D14*
X1006250Y125000D03*
X957500Y183750D03*
D13*
X936250Y180000D02*
X968750Y212500D01*
X975000Y106250D02*
X1000000Y106250D01*
X975000Y106250D02*
X936250Y145000D01*
X936250Y180000D01*
D14*
X968750Y212500D03*
X936250Y180000D03*
X1000000Y106250D03*
D13*
X652500Y67500D02*
X645000Y67500D01*
D14*
X645000Y67500D03*
D13*
X657500Y67500D02*
X657500Y60000D01*
X648750Y51250D01*
X621250Y51250D01*
X608750Y63750D01*
X572500Y63750D01*
X561250Y75000D01*
D14*
X561250Y75000D03*
D13*
X662500Y67500D02*
X662500Y56250D01*
X657500Y51250D01*
D14*
X657500Y51250D03*
D13*
X667500Y67500D02*
X667500Y73750D01*
X663750Y77500D01*
X611250Y77500D01*
X601250Y67500D01*
X578750Y67500D01*
X571250Y75000D01*
D14*
X571250Y75000D03*
D13*
X672500Y73750D02*
X672500Y67500D01*
X672500Y73750D02*
X665000Y81250D01*
X610000Y81250D01*
X600000Y71250D01*
X588750Y71250D01*
X585000Y75000D01*
D14*
X585000Y75000D03*
D13*
X677500Y67500D02*
X677500Y58750D01*
X663750Y45000D01*
X618750Y45000D01*
X617500Y46250D01*
D14*
X617500Y46250D03*
D13*
X682500Y67500D02*
X682500Y73750D01*
X671250Y85000D01*
X605000Y85000D01*
X597500Y77500D01*
D14*
X597500Y77500D03*
D13*
X687500Y67500D02*
X687500Y61250D01*
X666250Y40000D01*
X615000Y40000D01*
X607500Y47500D01*
D14*
X607500Y47500D03*
D13*
X223750Y125000D02*
X171250Y125000D01*
X223750Y125000D02*
X323750Y25000D01*
X385000Y25000D01*
X587500Y108750D02*
X596250Y108750D01*
X587500Y108750D02*
X571250Y92500D01*
X501250Y92500D01*
X816250Y170000D02*
X833750Y152500D01*
X816250Y170000D02*
X752500Y170000D01*
X696250Y113750D01*
X603750Y113750D01*
X598750Y108750D01*
X596250Y108750D01*
X888750Y152500D02*
X927500Y191250D01*
X888750Y152500D02*
X833750Y152500D01*
X-100000Y457500D02*
X-100000Y461100D01*
X-100000Y457500D02*
X-122500Y435000D01*
X-122500Y112500D01*
X-96250Y86250D01*
X105000Y86250D01*
X127500Y108750D01*
X151250Y108750D01*
X167500Y125000D01*
X171250Y125000D01*
X1170000Y457500D02*
X1170000Y461100D01*
X1170000Y457500D02*
X1188750Y438750D01*
X1188750Y385000D01*
X1060000Y256250D01*
D14*
X171250Y125000D03*
X385000Y25000D03*
X596250Y108750D03*
X501250Y92500D03*
X833750Y152500D03*
X927500Y191250D03*
X1060000Y256250D03*
D13*
X741250Y177500D02*
X716250Y152500D01*
X781250Y177500D02*
X905000Y177500D01*
X781250Y177500D02*
X741250Y177500D01*
X1170000Y375000D02*
X1170000Y435700D01*
X1170000Y375000D02*
X1021250Y226250D01*
X787500Y226250D01*
X781250Y220000D01*
X781250Y177500D01*
X41250Y246250D02*
X41250Y268750D01*
X41250Y246250D02*
X41250Y236250D01*
X41250Y268750D02*
X-100000Y410000D01*
X-100000Y435700D01*
X163750Y237500D02*
X225000Y237500D01*
X163750Y237500D02*
X155000Y246250D01*
X41250Y246250D01*
X637500Y152500D02*
X716250Y152500D01*
X637500Y152500D02*
X600000Y115000D01*
X588750Y115000D01*
X570000Y96250D01*
X521250Y96250D01*
X492500Y125000D01*
D14*
X716250Y152500D03*
X905000Y177500D03*
X41250Y236250D03*
X225000Y237500D03*
X492500Y125000D03*
D13*
X455000Y537500D02*
X352500Y537500D01*
X455000Y537500D02*
X456250Y538750D01*
X498750Y538750D01*
X513750Y523750D01*
X316250Y531250D02*
X298750Y531250D01*
X316250Y531250D02*
X323750Y538750D01*
X351250Y538750D01*
X352500Y537500D01*
X353750Y125000D02*
X303750Y125000D01*
X338750Y246250D02*
X353750Y246250D01*
X311250Y218750D02*
X298750Y206250D01*
X311250Y218750D02*
X317500Y225000D01*
X322500Y230000D01*
X338750Y246250D01*
X298750Y206250D02*
X298750Y130000D01*
X303750Y125000D01*
X316250Y312500D02*
X318750Y312500D01*
X316250Y312500D02*
X297500Y293750D01*
X297500Y255000D01*
X322500Y230000D01*
X152500Y115000D02*
X127500Y115000D01*
X160000Y122500D02*
X256250Y218750D01*
X160000Y122500D02*
X152500Y115000D01*
X256250Y218750D02*
X311250Y218750D01*
X265000Y326250D02*
X127500Y326250D01*
X296250Y295000D02*
X297500Y293750D01*
X296250Y295000D02*
X265000Y326250D01*
X146250Y136250D02*
X160000Y122500D01*
X146250Y136250D02*
X-100000Y136250D01*
X-100000Y137300D01*
X490000Y312500D02*
X522500Y312500D01*
X490000Y312500D02*
X476250Y326250D01*
X323750Y326250D01*
X318750Y321250D01*
X318750Y312500D01*
X-25000Y937500D02*
X-100000Y937500D01*
X-100000Y937300D01*
X46250Y938750D02*
X123750Y938750D01*
X46250Y938750D02*
X43750Y936250D01*
X-23750Y936250D01*
X-25000Y937500D01*
X160000Y973750D02*
X296250Y973750D01*
X160000Y973750D02*
X132500Y946250D01*
X131250Y946250D01*
X123750Y938750D01*
X187500Y740000D02*
X297500Y740000D01*
X187500Y740000D02*
X176250Y751250D01*
X143750Y751250D01*
X130000Y737500D01*
X117500Y737500D01*
X320000Y751250D02*
X355000Y751250D01*
X320000Y751250D02*
X308750Y740000D01*
X297500Y740000D01*
X355000Y751250D02*
X500000Y751250D01*
X513750Y737500D01*
X451250Y958750D02*
X348750Y958750D01*
X451250Y958750D02*
X456250Y963750D01*
X523750Y963750D01*
X747500Y671250D02*
X782500Y671250D01*
X790000Y678750D02*
X795000Y683750D01*
X790000Y678750D02*
X782500Y671250D01*
X1048750Y721250D02*
X1055000Y721250D01*
X1061250Y715000D01*
X1061250Y710000D02*
X1061250Y691250D01*
X1061250Y710000D02*
X1061250Y715000D01*
X1061250Y691250D02*
X1048750Y678750D01*
X790000Y678750D01*
X1061250Y710000D02*
X1071250Y720000D01*
X801250Y41250D02*
X747500Y41250D01*
X956250Y101250D02*
X963750Y101250D01*
X956250Y101250D02*
X943750Y113750D01*
X843750Y113750D01*
X801250Y71250D01*
X801250Y41250D01*
X600000Y46250D02*
X581250Y46250D01*
X600000Y46250D02*
X610000Y36250D01*
X742500Y36250D01*
X747500Y41250D01*
X970000Y95000D02*
X1026250Y95000D01*
X970000Y95000D02*
X963750Y101250D01*
X712500Y671250D02*
X693750Y690000D01*
X712500Y671250D02*
X747500Y671250D01*
X317500Y225000D02*
X456250Y86250D01*
X510000Y86250D01*
X511250Y87500D01*
X545000Y87500D01*
X555000Y77500D01*
X555000Y72500D01*
X581250Y46250D01*
D14*
X352500Y537500D03*
X513750Y523750D03*
X298750Y531250D03*
X303750Y125000D03*
X353750Y125000D03*
X353750Y246250D03*
X318750Y312500D03*
X127500Y115000D03*
X127500Y326250D03*
X296250Y295000D03*
X522500Y312500D03*
X-25000Y937500D03*
X123750Y938750D03*
X296250Y973750D03*
X348750Y958750D03*
X105000Y725000D03*
X117500Y737500D03*
X297500Y740000D03*
X355000Y751250D03*
X513750Y737500D03*
X523750Y963750D03*
X747500Y671250D03*
X795000Y683750D03*
X1048750Y721250D03*
X1071250Y720000D03*
X747500Y41250D03*
X801250Y41250D03*
X963750Y101250D03*
X581250Y46250D03*
X1026250Y95000D03*
X693750Y690000D03*
D13*
X962500Y1066250D02*
X1026250Y1066250D01*
X1170000Y915000D02*
X1170000Y911900D01*
X1170000Y915000D02*
X1188750Y933750D01*
X1188750Y991250D01*
X1113750Y1066250D01*
X1026250Y1066250D01*
X1032500Y877500D02*
X1136250Y877500D01*
X1032500Y877500D02*
X967500Y877500D01*
X1136250Y877500D02*
X1170000Y911250D01*
X1170000Y911900D01*
X1170000Y112500D02*
X1107500Y112500D01*
X1016250Y203750D01*
X1013750Y203750D01*
X1170000Y112500D02*
X1170000Y111900D01*
X578750Y240000D02*
X517500Y240000D01*
X92500Y240000D02*
X67500Y240000D01*
X-100000Y115000D02*
X-100000Y111900D01*
X-100000Y115000D02*
X-118750Y133750D01*
X-118750Y191250D01*
X-82500Y227500D01*
X5000Y227500D02*
X55000Y227500D01*
X5000Y227500D02*
X-82500Y227500D01*
X55000Y227500D02*
X67500Y240000D01*
X92500Y240000D02*
X152500Y240000D01*
X501250Y240000D02*
X517500Y240000D01*
X501250Y240000D02*
X493750Y232500D01*
X378750Y232500D01*
X362500Y216250D01*
X345000Y641250D02*
X287500Y641250D01*
X531250Y877500D02*
X570000Y877500D01*
X697500Y637500D02*
X733750Y637500D01*
X695000Y867500D02*
X580000Y867500D01*
X570000Y877500D01*
X392500Y641250D02*
X345000Y641250D01*
X5000Y296250D02*
X5000Y227500D01*
X791250Y853750D02*
X795000Y853750D01*
X791250Y853750D02*
X777500Y867500D01*
X695000Y867500D01*
D14*
X1026250Y1066250D03*
X962500Y1066250D03*
X967500Y877500D03*
X1013750Y203750D03*
X1032500Y877500D03*
X517500Y240000D03*
X578750Y240000D03*
X67500Y240000D03*
X92500Y240000D03*
X152500Y240000D03*
X362500Y216250D03*
X345000Y641250D03*
X287500Y641250D03*
X570000Y877500D03*
X531250Y877500D03*
X733750Y637500D03*
X697500Y637500D03*
X695000Y867500D03*
X392500Y641250D03*
X5000Y296250D03*
X795000Y853750D03*
D13*
X45000Y75000D02*
X52500Y67500D01*
D14*
X45000Y75000D03*
D13*
X57500Y80000D02*
X57500Y67500D01*
D14*
X57500Y80000D03*
D13*
X62500Y67500D02*
X62500Y47500D01*
D14*
X62500Y47500D03*
D13*
X67500Y67500D02*
X67500Y80000D01*
D14*
X67500Y80000D03*
D13*
X72500Y67500D02*
X72500Y47500D01*
D14*
X72500Y47500D03*
D13*
X77500Y67500D02*
X77500Y77500D01*
X80000Y80000D01*
D14*
X80000Y80000D03*
D13*
X82500Y67500D02*
X82500Y20000D01*
X85000Y17500D01*
D14*
X85000Y17500D03*
D13*
X87500Y67500D02*
X87500Y73750D01*
X93750Y80000D01*
X95000Y80000D01*
D14*
X95000Y80000D03*
D13*
X92500Y67500D02*
X92500Y20000D01*
X95000Y17500D01*
D14*
X95000Y17500D03*
D13*
X97500Y26250D02*
X97500Y67500D01*
X97500Y26250D02*
X106250Y17500D01*
D14*
X106250Y17500D03*
D13*
X102500Y67500D02*
X102500Y75000D01*
X108750Y81250D01*
D14*
X108750Y81250D03*
D13*
X107500Y67500D02*
X107500Y31250D01*
X117500Y21250D01*
D14*
X117500Y21250D03*
D13*
X112500Y61250D02*
X112500Y67500D01*
X123750Y50000D02*
X123750Y33750D01*
X123750Y50000D02*
X112500Y61250D01*
D14*
X123750Y33750D03*
D13*
X117500Y67500D02*
X117500Y73750D01*
X133750Y90000D01*
D14*
X133750Y90000D03*
D13*
X130500Y35000D02*
X130500Y17500D01*
D14*
X130500Y17500D03*
D13*
X126798Y51263D02*
X122500Y55561D01*
X126798Y39284D02*
X129818Y36264D01*
X129818Y35682D01*
X130500Y35000D01*
X122500Y55561D02*
X122500Y67500D01*
X126798Y51263D02*
X126798Y39284D01*
D14*
X151000Y28000D03*
D13*
X140500Y17500D01*
X130500Y17500D01*
X127500Y61250D02*
X127500Y67500D01*
D14*
X167500Y73750D03*
D13*
X129846Y52525D02*
X128714Y53657D01*
X129846Y40546D02*
X132866Y37526D01*
X132866Y36945D01*
X137905Y31905D01*
X146324Y31905D01*
X148487Y34068D01*
X163068Y34068D01*
X167500Y38500D02*
X167500Y73750D01*
X129846Y52525D02*
X129846Y40546D01*
X163068Y34068D02*
X167500Y38500D01*
X128714Y66286D02*
X127500Y67500D01*
X128714Y66286D02*
X128714Y53657D01*
X133714Y66286D02*
X132500Y67500D01*
X133714Y66286D02*
X133714Y60053D01*
X137000Y56767D01*
X137000Y41392D02*
X139196Y39196D01*
D14*
X139196Y39196D03*
D13*
X137000Y41392D02*
X137000Y56767D01*
D14*
X170000Y29000D03*
D13*
X254000Y39000D02*
X254000Y45000D01*
D14*
X254000Y45000D03*
D13*
X244000Y29000D02*
X170000Y29000D01*
X244000Y29000D02*
X254000Y39000D01*
X137500Y67500D02*
X137500Y73750D01*
X150000Y86250D01*
X243750Y86250D01*
X248750Y91250D01*
D14*
X248750Y91250D03*
X273750Y87500D03*
D13*
X142500Y73750D02*
X142500Y67500D01*
X142500Y73750D02*
X150000Y81250D01*
X258750Y81250D01*
X261250Y78750D01*
D14*
X261250Y78750D03*
X278750Y78750D03*
D13*
X150000Y67500D02*
X147500Y67500D01*
X150000Y67500D02*
X157500Y75000D01*
D14*
X157500Y75000D03*
D13*
X315000Y67500D02*
X352500Y67500D01*
X315000Y67500D02*
X307500Y75000D01*
D14*
X307500Y75000D03*
D13*
X357500Y67500D02*
X357500Y61250D01*
X350000Y53750D01*
X316250Y53750D01*
X310000Y47500D01*
D14*
X310000Y47500D03*
D13*
X362500Y67500D02*
X362500Y73750D01*
X355000Y81250D01*
X325000Y81250D01*
X318750Y75000D01*
X317500Y75000D01*
D14*
X317500Y75000D03*
D13*
X367500Y73750D02*
X367500Y67500D01*
X367500Y73750D02*
X356250Y85000D01*
X320000Y85000D01*
D14*
X320000Y85000D03*
D13*
X372500Y67500D02*
X372500Y61250D01*
X358750Y47500D01*
X331250Y47500D01*
D14*
X331250Y47500D03*
D13*
X377500Y57500D02*
X377500Y67500D01*
X377500Y57500D02*
X363750Y43750D01*
D14*
X363750Y43750D03*
X332500Y75000D03*
D13*
X382500Y67500D02*
X382500Y53750D01*
X376250Y47500D01*
D14*
X376250Y47500D03*
X348750Y91250D03*
D13*
X387500Y67500D02*
X387500Y50000D01*
X375000Y37500D01*
X351250Y37500D01*
X347500Y41250D01*
D14*
X347500Y41250D03*
D13*
X392500Y50000D02*
X392500Y67500D01*
X392500Y50000D02*
X373750Y31250D01*
D14*
X373750Y31250D03*
D13*
X397500Y67500D02*
X397500Y73750D01*
X392500Y78750D01*
X370000Y78750D01*
X362500Y86250D01*
X362500Y87500D01*
D14*
X362500Y87500D03*
D13*
X402500Y73750D02*
X402500Y67500D01*
X402500Y73750D02*
X391250Y85000D01*
X372500Y85000D01*
D14*
X372500Y85000D03*
D13*
X407500Y73750D02*
X407500Y67500D01*
X407500Y73750D02*
X388750Y92500D01*
X378750Y92500D01*
D14*
X378750Y92500D03*
D13*
X412500Y83750D02*
X412500Y67500D01*
D14*
X412500Y83750D03*
D13*
X417500Y67500D02*
X417500Y55000D01*
X431250Y41250D01*
X500000Y41250D01*
D14*
X500000Y41250D03*
D13*
X422500Y67500D02*
X422500Y73750D01*
X430000Y81250D01*
X513750Y81250D01*
D14*
X513750Y81250D03*
D13*
X427500Y67500D02*
X427500Y53750D01*
D14*
X427500Y53750D03*
X513750Y47500D03*
D13*
X432500Y57500D02*
X432500Y67500D01*
X432500Y57500D02*
X441250Y48750D01*
D14*
X441250Y48750D03*
D13*
X437500Y61250D02*
X437500Y67500D01*
X437500Y61250D02*
X451250Y47500D01*
D14*
X451250Y47500D03*
D13*
X442500Y67500D02*
X442500Y73750D01*
X446250Y77500D01*
X508750Y77500D01*
X511250Y75000D01*
X528750Y75000D01*
D14*
X528750Y75000D03*
D13*
X488750Y67500D02*
X447500Y67500D01*
X488750Y67500D02*
X492500Y63750D01*
X537500Y63750D01*
X548750Y75000D01*
D14*
X548750Y75000D03*
D13*
X692500Y80000D02*
X692500Y67500D01*
D14*
X692500Y80000D03*
D13*
X697500Y67500D02*
X697500Y61250D01*
X715000Y43750D01*
X723750Y43750D01*
D14*
X723750Y43750D03*
D13*
X702500Y67500D02*
X702500Y75000D01*
X700000Y77500D01*
X700000Y82500D01*
X710000Y92500D01*
X726250Y92500D01*
D14*
X726250Y92500D03*
X738750Y80000D03*
D13*
X707500Y67500D02*
X707500Y61250D01*
X718750Y50000D01*
X735000Y50000D01*
X738750Y46250D01*
D14*
X738750Y46250D03*
D13*
X712500Y67500D02*
X712500Y73750D01*
X706250Y80000D01*
D14*
X706250Y80000D03*
X748750Y80000D03*
D13*
X717500Y78750D02*
X717500Y67500D01*
X717500Y78750D02*
X716250Y80000D01*
D14*
X716250Y80000D03*
D13*
X722500Y77500D02*
X722500Y67500D01*
X722500Y77500D02*
X738750Y93750D01*
D14*
X738750Y93750D03*
D13*
X727500Y77500D02*
X727500Y67500D01*
X727500Y77500D02*
X736250Y86250D01*
X761250Y86250D01*
X771250Y76250D01*
D14*
X771250Y76250D03*
D13*
X732500Y67500D02*
X732500Y61250D01*
X746250Y47500D01*
X762500Y47500D01*
D14*
X762500Y47500D03*
X787500Y75000D03*
D13*
X737500Y67500D02*
X737500Y61250D01*
X745000Y53750D01*
X766250Y53750D01*
X772500Y47500D01*
D14*
X772500Y47500D03*
D13*
X742500Y61250D02*
X742500Y67500D01*
X742500Y61250D02*
X746250Y57500D01*
X783750Y57500D01*
X793750Y47500D01*
D14*
X793750Y47500D03*
D13*
X771250Y67500D02*
X747500Y67500D01*
X771250Y67500D02*
X785000Y81250D01*
X795000Y81250D01*
D14*
X795000Y81250D03*
D13*
X930000Y67500D02*
X952500Y67500D01*
X930000Y67500D02*
X906250Y91250D01*
D14*
X906250Y91250D03*
D13*
X957500Y73750D02*
X957500Y67500D01*
X957500Y73750D02*
X953750Y77500D01*
X941250Y77500D01*
D14*
X941250Y77500D03*
D13*
X962500Y67500D02*
X962500Y61250D01*
X958750Y57500D01*
X853750Y57500D01*
X830000Y81250D01*
X820000Y81250D01*
D14*
X820000Y81250D03*
D13*
X967500Y67500D02*
X967500Y61250D01*
X960000Y53750D01*
X848750Y53750D01*
X827500Y75000D01*
D14*
X827500Y75000D03*
D13*
X972500Y73750D02*
X972500Y67500D01*
X972500Y73750D02*
X962500Y83750D01*
X951250Y83750D01*
D14*
X951250Y83750D03*
D13*
X977500Y67500D02*
X977500Y61250D01*
X961250Y45000D01*
X951250Y45000D01*
D14*
X951250Y45000D03*
D13*
X982500Y67500D02*
X982500Y73750D01*
X971250Y85000D01*
D14*
X971250Y85000D03*
D13*
X987500Y67500D02*
X987500Y60000D01*
X972500Y45000D01*
D14*
X972500Y45000D03*
D13*
X992500Y67500D02*
X992500Y73750D01*
X981250Y85000D01*
D14*
X981250Y85000D03*
D13*
X997500Y67500D02*
X997500Y56250D01*
X988750Y47500D01*
D14*
X988750Y47500D03*
D13*
X1002500Y51250D02*
X1002500Y67500D01*
X1002500Y51250D02*
X998750Y47500D01*
D14*
X998750Y47500D03*
D13*
X1007500Y67500D02*
X1007500Y73750D01*
X997500Y83750D01*
D14*
X997500Y83750D03*
D13*
X1012500Y67500D02*
X1012500Y51250D01*
X1008750Y47500D01*
D14*
X1008750Y47500D03*
D13*
X1017500Y67500D02*
X1017500Y76250D01*
X1007500Y86250D01*
D14*
X1007500Y86250D03*
D13*
X1022500Y67500D02*
X1022500Y50000D01*
X1020000Y47500D01*
D14*
X1020000Y47500D03*
D13*
X1027500Y67500D02*
X1027500Y75000D01*
X1022500Y80000D01*
D14*
X1022500Y80000D03*
D13*
X1032500Y67500D02*
X1032500Y47500D01*
D14*
X1032500Y47500D03*
D13*
X1037500Y67500D02*
X1037500Y80000D01*
D14*
X1037500Y80000D03*
D13*
X1042500Y67500D02*
X1042500Y51250D01*
X1046250Y47500D01*
D14*
X1046250Y47500D03*
D13*
X1047500Y67500D02*
X1055000Y75000D01*
D14*
X1055000Y75000D03*
D13*
X52500Y280000D02*
X52500Y283750D01*
X46250Y290000D01*
D14*
X46250Y290000D03*
D13*
X57500Y292500D02*
X57500Y280000D01*
D14*
X57500Y292500D03*
D13*
X62500Y280000D02*
X62500Y260000D01*
D14*
X62500Y260000D03*
D13*
X67500Y280000D02*
X67500Y292500D01*
D14*
X67500Y292500D03*
D13*
X72500Y280000D02*
X72500Y260000D01*
D14*
X72500Y260000D03*
D13*
X77500Y280000D02*
X77500Y290000D01*
X80000Y292500D01*
D14*
X80000Y292500D03*
D13*
X82500Y280000D02*
X82500Y270000D01*
X92500Y260000D01*
D14*
X92500Y260000D03*
D13*
X87500Y280000D02*
X87500Y286250D01*
X93750Y292500D01*
D14*
X93750Y292500D03*
D13*
X92500Y280000D02*
X92500Y270000D01*
X102500Y260000D01*
D14*
X102500Y260000D03*
D13*
X97500Y273750D02*
X97500Y280000D01*
X97500Y273750D02*
X112500Y258750D01*
D14*
X112500Y258750D03*
D13*
X102500Y280000D02*
X102500Y287500D01*
X108750Y293750D01*
D14*
X108750Y293750D03*
D13*
X107500Y280000D02*
X107500Y273750D01*
X122500Y258750D01*
D14*
X122500Y258750D03*
D13*
X112500Y273750D02*
X112500Y280000D01*
X112500Y273750D02*
X121250Y265000D01*
X125000Y265000D01*
X133750Y256250D01*
D14*
X133750Y256250D03*
D13*
X117500Y280000D02*
X117500Y292500D01*
X133750Y308750D01*
X138750Y308750D01*
X142500Y305000D01*
X142500Y297500D01*
X137500Y292500D01*
D14*
X137500Y292500D03*
D13*
X122500Y280000D02*
X122500Y273750D01*
X133750Y262500D01*
X145000Y262500D01*
X147500Y260000D01*
D14*
X147500Y260000D03*
D13*
X127500Y280000D02*
X127500Y293750D01*
X136250Y302500D01*
D14*
X136250Y302500D03*
D13*
X132500Y280000D02*
X132500Y273750D01*
X140000Y266250D01*
X251250Y266250D01*
X272500Y287500D01*
D14*
X272500Y287500D03*
D13*
X137500Y280000D02*
X137500Y273750D01*
X141250Y270000D01*
X242500Y270000D01*
X263750Y291250D01*
X263750Y292500D01*
D14*
X263750Y292500D03*
D13*
X142500Y286250D02*
X142500Y280000D01*
X142500Y286250D02*
X148750Y292500D01*
X251250Y292500D01*
D14*
X251250Y292500D03*
D13*
X247500Y280000D02*
X147500Y280000D01*
X247500Y280000D02*
X257500Y290000D01*
X257500Y295000D01*
X261250Y298750D01*
X277500Y298750D01*
X288750Y287500D01*
D14*
X288750Y287500D03*
D13*
X327500Y280000D02*
X352500Y280000D01*
X327500Y280000D02*
X307500Y260000D01*
D14*
X307500Y260000D03*
D13*
X357500Y280000D02*
X357500Y286250D01*
X350000Y293750D01*
X306250Y293750D01*
D14*
X306250Y293750D03*
D13*
X362500Y286250D02*
X362500Y280000D01*
X362500Y286250D02*
X348750Y300000D01*
D14*
X348750Y300000D03*
D13*
X367500Y280000D02*
X367500Y273750D01*
X357500Y263750D01*
X328750Y263750D01*
X325000Y260000D01*
D14*
X325000Y260000D03*
D13*
X372500Y273750D02*
X372500Y280000D01*
X372500Y273750D02*
X358750Y260000D01*
X333750Y260000D01*
X327500Y253750D01*
X305000Y253750D01*
X301250Y257500D01*
X301250Y265000D01*
X323750Y287500D01*
D14*
X323750Y287500D03*
D13*
X377500Y280000D02*
X377500Y270000D01*
X367500Y260000D01*
D14*
X367500Y260000D03*
X335000Y287500D03*
D13*
X382500Y280000D02*
X382500Y260000D01*
D14*
X382500Y260000D03*
X345000Y287500D03*
D13*
X387500Y280000D02*
X387500Y270000D01*
X390000Y267500D01*
D14*
X390000Y267500D03*
D13*
X392500Y280000D02*
X392500Y286250D01*
X382500Y296250D01*
X361250Y296250D01*
D14*
X361250Y296250D03*
D13*
X397500Y280000D02*
X397500Y266250D01*
X385000Y253750D01*
X360000Y253750D01*
D14*
X360000Y253750D03*
D13*
X402500Y280000D02*
X402500Y286250D01*
X386250Y302500D01*
X378750Y302500D01*
D14*
X378750Y302500D03*
D13*
X407500Y280000D02*
X407500Y271250D01*
X383750Y247500D01*
D14*
X383750Y247500D03*
D13*
X412500Y280000D02*
X412500Y292500D01*
D14*
X412500Y292500D03*
D13*
X417500Y280000D02*
X417500Y273750D01*
X437500Y253750D01*
X500000Y253750D01*
D14*
X500000Y253750D03*
D13*
X422500Y280000D02*
X422500Y286250D01*
X430000Y293750D01*
X513750Y293750D01*
D14*
X513750Y293750D03*
D13*
X427500Y280000D02*
X427500Y273750D01*
X441250Y260000D01*
X513750Y260000D01*
D14*
X513750Y260000D03*
D13*
X432500Y273750D02*
X432500Y280000D01*
X432500Y273750D02*
X440000Y266250D01*
X517500Y266250D01*
X523750Y260000D01*
D14*
X523750Y260000D03*
D13*
X450000Y280000D02*
X447500Y280000D01*
X450000Y280000D02*
X452500Y277500D01*
X508750Y277500D01*
X528750Y297500D01*
D14*
X528750Y297500D03*
D13*
X615000Y280000D02*
X652500Y280000D01*
D14*
X615000Y280000D03*
X552500Y287500D03*
D13*
X657500Y280000D02*
X657500Y273750D01*
X653750Y270000D01*
X598750Y270000D01*
X571250Y297500D01*
D14*
X571250Y297500D03*
D13*
X662500Y280000D02*
X662500Y273750D01*
X655000Y266250D01*
X591250Y266250D01*
X570000Y287500D01*
D14*
X570000Y287500D03*
D13*
X667500Y280000D02*
X667500Y267500D01*
D14*
X667500Y267500D03*
D13*
X672500Y280000D02*
X672500Y286250D01*
X668750Y290000D01*
X591250Y290000D01*
D14*
X591250Y290000D03*
D13*
X677500Y280000D02*
X677500Y267500D01*
X663750Y253750D01*
X642500Y253750D01*
D14*
X642500Y253750D03*
D13*
X682500Y280000D02*
X682500Y286250D01*
X670000Y298750D01*
D14*
X670000Y298750D03*
D13*
X687500Y292500D02*
X687500Y280000D01*
D14*
X687500Y292500D03*
D13*
X692500Y286250D02*
X692500Y280000D01*
X692500Y286250D02*
X716250Y310000D01*
D14*
X716250Y310000D03*
D13*
X697500Y280000D02*
X697500Y260000D01*
X716250Y241250D01*
D14*
X716250Y241250D03*
D13*
X702500Y261250D02*
X702500Y280000D01*
X702500Y261250D02*
X716250Y247500D01*
X732500Y247500D01*
D14*
X732500Y247500D03*
D13*
X707500Y280000D02*
X707500Y292500D01*
X721250Y306250D01*
X738750Y306250D01*
D14*
X738750Y306250D03*
D13*
X712500Y280000D02*
X712500Y263750D01*
X711250Y262500D01*
X711250Y257500D01*
X715000Y253750D01*
X753750Y253750D01*
D14*
X753750Y253750D03*
D13*
X717500Y280000D02*
X717500Y291250D01*
X716250Y292500D01*
D14*
X716250Y292500D03*
X757500Y287500D03*
D13*
X722500Y286250D02*
X722500Y280000D01*
X722500Y286250D02*
X736250Y300000D01*
X742500Y300000D01*
X748750Y306250D01*
D14*
X748750Y306250D03*
D13*
X727500Y286250D02*
X727500Y280000D01*
X727500Y286250D02*
X737500Y296250D01*
X743750Y296250D01*
X746250Y298750D01*
X760000Y298750D01*
X771250Y287500D01*
D14*
X771250Y287500D03*
D13*
X732500Y286250D02*
X732500Y280000D01*
X732500Y286250D02*
X738750Y292500D01*
X748750Y292500D01*
D14*
X748750Y292500D03*
X775000Y260000D03*
D13*
X737500Y273750D02*
X737500Y280000D01*
X737500Y273750D02*
X745000Y266250D01*
X780000Y266250D01*
X803750Y290000D01*
X803750Y301250D01*
X798750Y306250D01*
D14*
X798750Y306250D03*
D13*
X742500Y280000D02*
X742500Y273750D01*
X746250Y270000D01*
X775000Y270000D01*
X792500Y287500D01*
D14*
X792500Y287500D03*
D13*
X776250Y280000D02*
X747500Y280000D01*
X776250Y280000D02*
X792500Y296250D01*
X797500Y296250D01*
D14*
X797500Y296250D03*
D13*
X818750Y280000D02*
X952500Y280000D01*
X818750Y280000D02*
X811250Y287500D01*
D14*
X811250Y287500D03*
D13*
X957500Y280000D02*
X957500Y273750D01*
X953750Y270000D01*
X940000Y270000D01*
X937500Y272500D01*
X827500Y272500D01*
X815000Y260000D01*
D14*
X815000Y260000D03*
D13*
X962500Y280000D02*
X962500Y286250D01*
X956250Y292500D01*
X913750Y292500D01*
D14*
X913750Y292500D03*
D13*
X967500Y286250D02*
X967500Y280000D01*
X967500Y286250D02*
X955000Y298750D01*
X916250Y298750D01*
X913750Y301250D01*
X906250Y301250D01*
X891250Y286250D01*
D14*
X891250Y286250D03*
D13*
X972500Y280000D02*
X972500Y273750D01*
X965000Y266250D01*
X935000Y266250D01*
D14*
X935000Y266250D03*
D13*
X977500Y280000D02*
X977500Y291250D01*
X978750Y292500D01*
D14*
X978750Y292500D03*
X951250Y260000D03*
D13*
X982500Y280000D02*
X982500Y287500D01*
X985000Y290000D01*
X985000Y295000D01*
X981250Y298750D01*
X966250Y298750D01*
D14*
X966250Y298750D03*
D13*
X987500Y280000D02*
X987500Y273750D01*
X980000Y266250D01*
X977500Y266250D01*
X971250Y260000D01*
D14*
X971250Y260000D03*
D13*
X992500Y271250D02*
X992500Y280000D01*
X992500Y271250D02*
X981250Y260000D01*
D14*
X981250Y260000D03*
D13*
X997500Y280000D02*
X997500Y287500D01*
X992500Y292500D01*
D14*
X992500Y292500D03*
D13*
X1002500Y280000D02*
X1002500Y266250D01*
X996250Y260000D01*
D14*
X996250Y260000D03*
D13*
X1007500Y280000D02*
X1007500Y287500D01*
X1002500Y292500D01*
D14*
X1002500Y292500D03*
D13*
X1012500Y280000D02*
X1012500Y266250D01*
X1006250Y260000D01*
D14*
X1006250Y260000D03*
D13*
X1017500Y280000D02*
X1017500Y287500D01*
X1012500Y292500D01*
D14*
X1012500Y292500D03*
D13*
X1022500Y280000D02*
X1022500Y260000D01*
D14*
X1022500Y260000D03*
D13*
X1027500Y280000D02*
X1027500Y287500D01*
X1022500Y292500D01*
D14*
X1022500Y292500D03*
D13*
X1032500Y280000D02*
X1032500Y260000D01*
D14*
X1032500Y260000D03*
D13*
X1037500Y280000D02*
X1037500Y292500D01*
D14*
X1037500Y292500D03*
D13*
X1042500Y280000D02*
X1042500Y263750D01*
X1046250Y260000D01*
D14*
X1046250Y260000D03*
D13*
X1047500Y280000D02*
X1055000Y287500D01*
D14*
X1055000Y287500D03*
D13*
X52500Y492500D02*
X42500Y502500D01*
D14*
X42500Y502500D03*
D13*
X57500Y500000D02*
X57500Y492500D01*
X57500Y500000D02*
X52500Y505000D01*
D14*
X52500Y505000D03*
D13*
X62500Y492500D02*
X62500Y472500D01*
D14*
X62500Y472500D03*
D13*
X67500Y492500D02*
X67500Y505000D01*
D14*
X67500Y505000D03*
D13*
X72500Y492500D02*
X72500Y476250D01*
X76250Y472500D01*
D14*
X76250Y472500D03*
D13*
X77500Y492500D02*
X77500Y502500D01*
X80000Y505000D01*
D14*
X80000Y505000D03*
D13*
X82500Y492500D02*
X82500Y482500D01*
X92500Y472500D01*
D14*
X92500Y472500D03*
D13*
X87500Y492500D02*
X87500Y498750D01*
X93750Y505000D01*
D14*
X93750Y505000D03*
D13*
X92500Y492500D02*
X92500Y482500D01*
X102500Y472500D01*
D14*
X102500Y472500D03*
D13*
X97500Y486250D02*
X97500Y492500D01*
X97500Y486250D02*
X112500Y471250D01*
D14*
X112500Y471250D03*
D13*
X102500Y492500D02*
X102500Y500000D01*
X108750Y506250D01*
D14*
X108750Y506250D03*
D13*
X107500Y492500D02*
X107500Y486250D01*
X122500Y471250D01*
D14*
X122500Y471250D03*
D13*
X112500Y486250D02*
X112500Y492500D01*
X112500Y486250D02*
X121250Y477500D01*
X125000Y477500D01*
X133750Y468750D01*
D14*
X133750Y468750D03*
D13*
X117500Y492500D02*
X117500Y501250D01*
X121250Y505000D01*
D14*
X121250Y505000D03*
X137500Y505000D03*
D13*
X122500Y492500D02*
X122500Y486250D01*
X133750Y475000D01*
X145000Y475000D01*
X147500Y472500D01*
D14*
X147500Y472500D03*
D13*
X127500Y492500D02*
X127500Y503750D01*
X135000Y511250D01*
X145000Y511250D01*
D14*
X145000Y511250D03*
D13*
X132500Y492500D02*
X132500Y486250D01*
X140000Y478750D01*
X238750Y478750D01*
D14*
X238750Y478750D03*
D13*
X137500Y486250D02*
X137500Y492500D01*
X137500Y486250D02*
X141250Y482500D01*
X233750Y482500D01*
X246250Y495000D01*
D14*
X246250Y495000D03*
D13*
X142500Y492500D02*
X142500Y498750D01*
X146250Y502500D01*
X288750Y502500D01*
D14*
X288750Y502500D03*
D13*
X176250Y492500D02*
X147500Y492500D01*
D14*
X176250Y492500D03*
D13*
X328750Y492500D02*
X352500Y492500D01*
X328750Y492500D02*
X308750Y472500D01*
D14*
X308750Y472500D03*
D13*
X362500Y492500D02*
X362500Y498750D01*
X350000Y511250D01*
X320000Y511250D01*
X318750Y512500D01*
D14*
X318750Y512500D03*
D13*
X367500Y492500D02*
X367500Y486250D01*
X353750Y472500D01*
X328750Y472500D01*
D14*
X328750Y472500D03*
D13*
X372500Y486250D02*
X372500Y492500D01*
X372500Y486250D02*
X352500Y466250D01*
X305000Y466250D01*
X301250Y470000D01*
X301250Y477500D01*
X323750Y500000D01*
D14*
X323750Y500000D03*
D13*
X377500Y492500D02*
X377500Y482500D01*
X367500Y472500D01*
D14*
X367500Y472500D03*
X335000Y500000D03*
D13*
X382500Y492500D02*
X382500Y472500D01*
D14*
X382500Y472500D03*
X345000Y500000D03*
D13*
X387500Y492500D02*
X387500Y482500D01*
X390000Y480000D01*
D14*
X390000Y480000D03*
D13*
X392500Y492500D02*
X392500Y498750D01*
X382500Y508750D01*
X361250Y508750D01*
D14*
X361250Y508750D03*
D13*
X397500Y492500D02*
X397500Y478750D01*
X385000Y466250D01*
X375000Y466250D01*
D14*
X375000Y466250D03*
D13*
X402500Y492500D02*
X402500Y501250D01*
X398750Y505000D01*
D14*
X398750Y505000D03*
D13*
X407500Y505000D02*
X407500Y492500D01*
X407500Y505000D02*
X398750Y513750D01*
X386250Y513750D01*
D14*
X386250Y513750D03*
D13*
X412500Y492500D02*
X412500Y486250D01*
X431250Y467500D01*
X496250Y467500D01*
D14*
X496250Y467500D03*
D13*
X417500Y486250D02*
X417500Y492500D01*
X417500Y486250D02*
X432500Y471250D01*
X472500Y471250D01*
X501250Y500000D01*
D14*
X501250Y500000D03*
D13*
X422500Y492500D02*
X422500Y486250D01*
X433750Y475000D01*
X471250Y475000D01*
X495000Y498750D01*
X495000Y502500D01*
X498750Y506250D01*
X507500Y506250D01*
X513750Y500000D01*
D14*
X513750Y500000D03*
D13*
X427500Y492500D02*
X427500Y486250D01*
X435000Y478750D01*
X470000Y478750D01*
X491250Y500000D01*
X491250Y503750D01*
X497500Y510000D01*
X512500Y510000D01*
X520000Y502500D01*
X520000Y472500D01*
D14*
X520000Y472500D03*
D13*
X432500Y486250D02*
X432500Y492500D01*
X432500Y486250D02*
X436250Y482500D01*
X468750Y482500D01*
X487500Y501250D01*
X487500Y505000D01*
X496250Y513750D01*
X515000Y513750D01*
X528750Y500000D01*
D14*
X528750Y500000D03*
D13*
X437500Y498750D02*
X437500Y492500D01*
X437500Y498750D02*
X450000Y511250D01*
X488750Y511250D01*
X495000Y517500D01*
X521250Y517500D01*
X528750Y510000D01*
D14*
X528750Y510000D03*
D13*
X442500Y498750D02*
X442500Y492500D01*
X442500Y498750D02*
X447500Y503750D01*
X481250Y503750D01*
D14*
X481250Y503750D03*
X541250Y500000D03*
D13*
X470000Y492500D02*
X447500Y492500D01*
X470000Y492500D02*
X473750Y496250D01*
D14*
X473750Y496250D03*
D13*
X617500Y492500D02*
X652500Y492500D01*
X617500Y492500D02*
X610000Y500000D01*
D14*
X610000Y500000D03*
X571250Y510000D03*
D13*
X657500Y492500D02*
X657500Y486250D01*
X653750Y482500D01*
X620000Y482500D01*
X610000Y492500D01*
X578750Y492500D01*
X571250Y500000D01*
D14*
X571250Y500000D03*
D13*
X662500Y492500D02*
X662500Y486250D01*
X655000Y478750D01*
X615000Y478750D01*
D14*
X615000Y478750D03*
X577500Y466250D03*
D13*
X667500Y481250D02*
X667500Y492500D01*
X667500Y481250D02*
X668750Y480000D01*
D14*
X668750Y480000D03*
X628750Y456250D03*
D13*
X672500Y492500D02*
X672500Y498750D01*
X665000Y506250D01*
X607500Y506250D01*
X603750Y502500D01*
X603750Y500000D01*
X600000Y496250D01*
X587500Y496250D01*
X583750Y500000D01*
D14*
X583750Y500000D03*
D13*
X677500Y492500D02*
X677500Y480000D01*
X670000Y472500D01*
X658750Y472500D01*
D14*
X658750Y472500D03*
D13*
X682500Y492500D02*
X682500Y498750D01*
X671250Y510000D01*
X605000Y510000D01*
X597500Y502500D01*
D14*
X597500Y502500D03*
D13*
X687500Y492500D02*
X687500Y485000D01*
X665000Y462500D01*
D14*
X665000Y462500D03*
D13*
X692500Y477500D02*
X692500Y492500D01*
D14*
X692500Y477500D03*
D13*
X697500Y482500D02*
X697500Y492500D01*
X697500Y482500D02*
X708750Y471250D01*
D14*
X708750Y471250D03*
D13*
X702500Y486250D02*
X702500Y492500D01*
X702500Y486250D02*
X723750Y465000D01*
D14*
X723750Y465000D03*
D13*
X707500Y492500D02*
X707500Y498750D01*
X730000Y521250D01*
D14*
X730000Y521250D03*
D13*
X712500Y492500D02*
X712500Y486250D01*
X738750Y460000D01*
X746250Y460000D01*
D14*
X746250Y460000D03*
D13*
X717500Y486250D02*
X717500Y492500D01*
X717500Y486250D02*
X737500Y466250D01*
X758750Y466250D01*
D14*
X758750Y466250D03*
D13*
X722500Y492500D02*
X722500Y498750D01*
X742500Y518750D01*
D14*
X742500Y518750D03*
D13*
X727500Y498750D02*
X727500Y492500D01*
X727500Y498750D02*
X735000Y506250D01*
X771250Y506250D01*
D14*
X771250Y506250D03*
D13*
X732500Y492500D02*
X732500Y486250D01*
X746250Y472500D01*
X773750Y472500D01*
D14*
X773750Y472500D03*
D13*
X737500Y492500D02*
X737500Y498750D01*
X741250Y502500D01*
X766250Y502500D01*
X768750Y500000D01*
X775000Y500000D01*
X781250Y506250D01*
D14*
X781250Y506250D03*
D13*
X742500Y492500D02*
X742500Y486250D01*
X746250Y482500D01*
X775000Y482500D01*
X792500Y500000D01*
D14*
X792500Y500000D03*
D13*
X776250Y492500D02*
X747500Y492500D01*
X776250Y492500D02*
X793750Y510000D01*
D14*
X793750Y510000D03*
D13*
X817500Y492500D02*
X952500Y492500D01*
X817500Y492500D02*
X810000Y500000D01*
D14*
X810000Y500000D03*
D13*
X957500Y492500D02*
X957500Y486250D01*
X948750Y477500D01*
X820000Y477500D01*
X815000Y472500D01*
D14*
X815000Y472500D03*
D13*
X962500Y492500D02*
X962500Y498750D01*
X956250Y505000D01*
X822500Y505000D01*
D14*
X822500Y505000D03*
D13*
X967500Y498750D02*
X967500Y492500D01*
X967500Y498750D02*
X956250Y510000D01*
X835000Y510000D01*
X833750Y511250D01*
D14*
X833750Y511250D03*
D13*
X972500Y492500D02*
X972500Y486250D01*
X951250Y465000D01*
D14*
X951250Y465000D03*
D13*
X977500Y492500D02*
X977500Y503750D01*
X978750Y505000D01*
D14*
X978750Y505000D03*
X951250Y516250D03*
D13*
X982500Y500000D02*
X982500Y492500D01*
X982500Y500000D02*
X985000Y502500D01*
X985000Y507500D01*
X981250Y511250D01*
X966250Y511250D01*
D14*
X966250Y511250D03*
D13*
X987500Y492500D02*
X987500Y486250D01*
X980000Y478750D01*
X977500Y478750D01*
X971250Y472500D01*
D14*
X971250Y472500D03*
D13*
X992500Y483750D02*
X992500Y492500D01*
X992500Y483750D02*
X981250Y472500D01*
D14*
X981250Y472500D03*
D13*
X997500Y492500D02*
X997500Y500000D01*
X992500Y505000D01*
D14*
X992500Y505000D03*
D13*
X1002500Y492500D02*
X1002500Y481250D01*
X993750Y472500D01*
D14*
X993750Y472500D03*
D13*
X1007500Y492500D02*
X1007500Y500000D01*
X1002500Y505000D01*
D14*
X1002500Y505000D03*
D13*
X1012500Y492500D02*
X1012500Y481250D01*
X1003750Y472500D01*
D14*
X1003750Y472500D03*
D13*
X1017500Y492500D02*
X1017500Y500000D01*
X1012500Y505000D01*
D14*
X1012500Y505000D03*
D13*
X1022500Y492500D02*
X1022500Y465000D01*
D14*
X1022500Y465000D03*
D13*
X1027500Y492500D02*
X1027500Y500000D01*
X1022500Y505000D01*
D14*
X1022500Y505000D03*
D13*
X1032500Y492500D02*
X1032500Y472500D01*
D14*
X1032500Y472500D03*
D13*
X1037500Y492500D02*
X1037500Y505000D01*
D14*
X1037500Y505000D03*
D13*
X1042500Y492500D02*
X1042500Y476250D01*
X1046250Y472500D01*
D14*
X1046250Y472500D03*
D13*
X1047500Y492500D02*
X1055000Y500000D01*
D14*
X1055000Y500000D03*
D13*
X52500Y687500D02*
X52500Y705000D01*
X52500Y687500D02*
X50000Y685000D01*
D14*
X50000Y685000D03*
D13*
X57500Y705000D02*
X57500Y717500D01*
D14*
X57500Y717500D03*
D13*
X62500Y705000D02*
X62500Y685000D01*
D14*
X62500Y685000D03*
D13*
X67500Y705000D02*
X67500Y717500D01*
D14*
X67500Y717500D03*
D13*
X72500Y705000D02*
X72500Y685000D01*
D14*
X72500Y685000D03*
D13*
X77500Y705000D02*
X77500Y715000D01*
X80000Y717500D01*
D14*
X80000Y717500D03*
D13*
X82500Y705000D02*
X82500Y695000D01*
X92500Y685000D01*
D14*
X92500Y685000D03*
D13*
X87500Y705000D02*
X87500Y715000D01*
X90000Y717500D01*
D14*
X90000Y717500D03*
D13*
X92500Y705000D02*
X92500Y695000D01*
X102500Y685000D01*
D14*
X102500Y685000D03*
D13*
X97500Y698750D02*
X97500Y705000D01*
X97500Y698750D02*
X112500Y683750D01*
D14*
X112500Y683750D03*
D13*
X102500Y705000D02*
X102500Y711250D01*
X117500Y726250D01*
D14*
X117500Y726250D03*
D13*
X107500Y705000D02*
X107500Y698750D01*
X122500Y683750D01*
D14*
X122500Y683750D03*
D13*
X112500Y698750D02*
X112500Y705000D01*
X112500Y698750D02*
X121250Y690000D01*
X125000Y690000D01*
X133750Y681250D01*
D14*
X133750Y681250D03*
D13*
X117500Y705000D02*
X117500Y716250D01*
X135000Y733750D01*
X140000Y733750D01*
X143750Y730000D01*
X143750Y722500D01*
X138750Y717500D01*
D14*
X138750Y717500D03*
D13*
X122500Y705000D02*
X122500Y698750D01*
X133750Y687500D01*
X145000Y687500D01*
X147500Y685000D01*
D14*
X147500Y685000D03*
D13*
X127500Y705000D02*
X127500Y717500D01*
X137500Y727500D01*
D14*
X137500Y727500D03*
D13*
X132500Y705000D02*
X132500Y698750D01*
X140000Y691250D01*
X251250Y691250D01*
X272500Y712500D01*
D14*
X272500Y712500D03*
D13*
X137500Y705000D02*
X137500Y698750D01*
X141250Y695000D01*
X246250Y695000D01*
X262500Y711250D01*
D14*
X262500Y711250D03*
D13*
X142500Y711250D02*
X142500Y705000D01*
X142500Y711250D02*
X155000Y723750D01*
X277500Y723750D01*
X288750Y712500D01*
D14*
X288750Y712500D03*
D13*
X242500Y705000D02*
X147500Y705000D01*
D14*
X242500Y705000D03*
X291250Y685000D03*
D13*
X327500Y705000D02*
X352500Y705000D01*
X327500Y705000D02*
X307500Y685000D01*
D14*
X307500Y685000D03*
D13*
X357500Y705000D02*
X357500Y711250D01*
X350000Y718750D01*
X306250Y718750D01*
D14*
X306250Y718750D03*
D13*
X362500Y715000D02*
X362500Y705000D01*
X362500Y715000D02*
X348750Y728750D01*
D14*
X348750Y728750D03*
D13*
X367500Y705000D02*
X367500Y698750D01*
X357500Y688750D01*
X328750Y688750D01*
X325000Y685000D01*
D14*
X325000Y685000D03*
D13*
X372500Y698750D02*
X372500Y705000D01*
X372500Y698750D02*
X358750Y685000D01*
X333750Y685000D01*
X327500Y678750D01*
X305000Y678750D01*
X301250Y682500D01*
X301250Y690000D01*
X323750Y712500D01*
D14*
X323750Y712500D03*
D13*
X377500Y705000D02*
X377500Y695000D01*
X367500Y685000D01*
D14*
X367500Y685000D03*
X335000Y712500D03*
D13*
X382500Y705000D02*
X382500Y685000D01*
D14*
X382500Y685000D03*
X345000Y712500D03*
D13*
X387500Y705000D02*
X387500Y695000D01*
X390000Y692500D01*
D14*
X390000Y692500D03*
D13*
X392500Y705000D02*
X392500Y711250D01*
X378750Y725000D01*
X361250Y725000D01*
D14*
X361250Y725000D03*
D13*
X397500Y705000D02*
X397500Y691250D01*
X385000Y678750D01*
X360000Y678750D01*
D14*
X360000Y678750D03*
D13*
X402500Y705000D02*
X402500Y711250D01*
X396250Y717500D01*
D14*
X396250Y717500D03*
D13*
X407500Y705000D02*
X407500Y696250D01*
X383750Y672500D01*
D14*
X383750Y672500D03*
D13*
X412500Y705000D02*
X412500Y711250D01*
X421250Y720000D01*
X492500Y720000D01*
X497500Y715000D01*
D14*
X497500Y715000D03*
D13*
X417500Y705000D02*
X417500Y698750D01*
X437500Y678750D01*
X500000Y678750D01*
D14*
X500000Y678750D03*
D13*
X422500Y705000D02*
X422500Y711250D01*
X427500Y716250D01*
X487500Y716250D01*
X495000Y708750D01*
X510000Y708750D01*
X513750Y712500D01*
D14*
X513750Y712500D03*
D13*
X427500Y705000D02*
X427500Y698750D01*
X442500Y683750D01*
X496250Y683750D01*
X497500Y685000D01*
X513750Y685000D01*
D14*
X513750Y685000D03*
D13*
X432500Y698750D02*
X432500Y705000D01*
X432500Y698750D02*
X443750Y687500D01*
X495000Y687500D01*
X498750Y691250D01*
X517500Y691250D01*
X523750Y685000D01*
D14*
X523750Y685000D03*
D13*
X437500Y698750D02*
X437500Y705000D01*
X437500Y698750D02*
X445000Y691250D01*
X493750Y691250D01*
X497500Y695000D01*
X523750Y695000D01*
X533750Y685000D01*
D14*
X533750Y685000D03*
D13*
X442500Y698750D02*
X442500Y705000D01*
X442500Y698750D02*
X446250Y695000D01*
X478750Y695000D01*
X488750Y705000D01*
X516250Y705000D01*
X530000Y718750D01*
X540000Y718750D01*
D14*
X540000Y718750D03*
D13*
X480000Y705000D02*
X447500Y705000D01*
X480000Y705000D02*
X485000Y710000D01*
D14*
X485000Y710000D03*
D13*
X592500Y705000D02*
X652500Y705000D01*
X592500Y705000D02*
X572500Y725000D01*
X561250Y725000D01*
X553750Y717500D01*
D14*
X553750Y717500D03*
D13*
X657500Y705000D02*
X657500Y698750D01*
X653750Y695000D01*
X597500Y695000D01*
X573750Y718750D01*
X563750Y718750D01*
D14*
X563750Y718750D03*
D13*
X662500Y705000D02*
X662500Y698750D01*
X655000Y691250D01*
X592500Y691250D01*
X571250Y712500D01*
D14*
X571250Y712500D03*
D13*
X667500Y705000D02*
X667500Y693750D01*
X668750Y692500D01*
D14*
X668750Y692500D03*
D13*
X672500Y705000D02*
X672500Y711250D01*
X668750Y715000D01*
X591250Y715000D01*
D14*
X591250Y715000D03*
D13*
X677500Y705000D02*
X677500Y692500D01*
X667500Y682500D01*
X592500Y682500D01*
D14*
X592500Y682500D03*
D13*
X682500Y705000D02*
X682500Y711250D01*
X671250Y722500D01*
X598750Y722500D01*
D14*
X598750Y722500D03*
D13*
X687500Y717500D02*
X687500Y705000D01*
D14*
X687500Y717500D03*
D13*
X692500Y711250D02*
X692500Y705000D01*
X692500Y711250D02*
X710000Y728750D01*
X716250Y728750D01*
D14*
X716250Y728750D03*
D13*
X697500Y705000D02*
X697500Y695000D01*
X707500Y685000D01*
D14*
X707500Y685000D03*
D13*
X702500Y698750D02*
X702500Y705000D01*
X702500Y698750D02*
X722500Y678750D01*
D14*
X722500Y678750D03*
D13*
X707500Y705000D02*
X707500Y711250D01*
X730000Y733750D01*
D14*
X730000Y733750D03*
D13*
X712500Y705000D02*
X712500Y698750D01*
X732500Y678750D01*
X753750Y678750D01*
D14*
X753750Y678750D03*
D13*
X717500Y705000D02*
X717500Y712500D01*
X736250Y731250D01*
X736250Y733750D01*
X740000Y737500D01*
X745000Y737500D01*
X750000Y732500D01*
X750000Y725000D01*
D14*
X750000Y725000D03*
D13*
X722500Y711250D02*
X722500Y705000D01*
X722500Y711250D02*
X742500Y731250D01*
D14*
X742500Y731250D03*
D13*
X727500Y711250D02*
X727500Y705000D01*
X727500Y711250D02*
X735000Y718750D01*
X771250Y718750D01*
D14*
X771250Y718750D03*
D13*
X732500Y705000D02*
X732500Y698750D01*
X746250Y685000D01*
X768750Y685000D01*
D14*
X768750Y685000D03*
D13*
X737500Y698750D02*
X737500Y705000D01*
X737500Y698750D02*
X745000Y691250D01*
X780000Y691250D01*
X803750Y715000D01*
X803750Y725000D01*
X797500Y731250D01*
D14*
X797500Y731250D03*
D13*
X742500Y705000D02*
X742500Y698750D01*
X746250Y695000D01*
X775000Y695000D01*
X792500Y712500D01*
D14*
X792500Y712500D03*
D13*
X776250Y705000D02*
X747500Y705000D01*
X776250Y705000D02*
X792500Y721250D01*
X797500Y721250D01*
D14*
X797500Y721250D03*
D13*
X817500Y705000D02*
X952500Y705000D01*
X817500Y705000D02*
X810000Y712500D01*
D14*
X810000Y712500D03*
D13*
X957500Y705000D02*
X957500Y698750D01*
X953750Y695000D01*
X940000Y695000D01*
X937500Y697500D01*
X825000Y697500D01*
X812500Y685000D01*
D14*
X812500Y685000D03*
D13*
X962500Y705000D02*
X962500Y711250D01*
X958750Y715000D01*
X822500Y715000D01*
D14*
X822500Y715000D03*
D13*
X967500Y711250D02*
X967500Y705000D01*
X967500Y711250D02*
X951250Y727500D01*
D14*
X951250Y727500D03*
D13*
X972500Y705000D02*
X972500Y698750D01*
X965000Y691250D01*
X935000Y691250D01*
D14*
X935000Y691250D03*
D13*
X977500Y705000D02*
X977500Y716250D01*
X978750Y717500D01*
D14*
X978750Y717500D03*
X951250Y685000D03*
D13*
X982500Y705000D02*
X982500Y712500D01*
X985000Y715000D01*
X985000Y720000D01*
X981250Y723750D01*
X966250Y723750D01*
D14*
X966250Y723750D03*
D13*
X987500Y705000D02*
X987500Y698750D01*
X980000Y691250D01*
X977500Y691250D01*
X971250Y685000D01*
D14*
X971250Y685000D03*
D13*
X992500Y696250D02*
X992500Y705000D01*
X992500Y696250D02*
X981250Y685000D01*
D14*
X981250Y685000D03*
D13*
X997500Y705000D02*
X997500Y712500D01*
X992500Y717500D01*
D14*
X992500Y717500D03*
D13*
X1002500Y705000D02*
X1002500Y691250D01*
X996250Y685000D01*
D14*
X996250Y685000D03*
D13*
X1007500Y705000D02*
X1007500Y712500D01*
X1002500Y717500D01*
D14*
X1002500Y717500D03*
D13*
X1012500Y705000D02*
X1012500Y691250D01*
X1006250Y685000D01*
D14*
X1006250Y685000D03*
D13*
X1017500Y705000D02*
X1017500Y712500D01*
X1012500Y717500D01*
D14*
X1012500Y717500D03*
D13*
X1022500Y705000D02*
X1022500Y685000D01*
D14*
X1022500Y685000D03*
D13*
X1027500Y705000D02*
X1027500Y712500D01*
X1022500Y717500D01*
D14*
X1022500Y717500D03*
D13*
X1032500Y705000D02*
X1032500Y685000D01*
D14*
X1032500Y685000D03*
D13*
X1037500Y705000D02*
X1037500Y717500D01*
D14*
X1037500Y717500D03*
D13*
X1042500Y705000D02*
X1042500Y688750D01*
X1046250Y685000D01*
D14*
X1046250Y685000D03*
D13*
X1047500Y705000D02*
X1055000Y712500D01*
D14*
X1055000Y712500D03*
D13*
X52500Y917500D02*
X45000Y925000D01*
D14*
X45000Y925000D03*
D13*
X57500Y930000D02*
X57500Y917500D01*
D14*
X57500Y930000D03*
D13*
X62500Y917500D02*
X62500Y897500D01*
D14*
X62500Y897500D03*
D13*
X67500Y917500D02*
X67500Y930000D01*
D14*
X67500Y930000D03*
D13*
X72500Y917500D02*
X72500Y897500D01*
D14*
X72500Y897500D03*
D13*
X77500Y917500D02*
X77500Y927500D01*
X80000Y930000D01*
D14*
X80000Y930000D03*
D13*
X82500Y917500D02*
X82500Y907500D01*
X92500Y897500D01*
D14*
X92500Y897500D03*
D13*
X87500Y917500D02*
X87500Y923750D01*
X93750Y930000D01*
D14*
X93750Y930000D03*
D13*
X92500Y917500D02*
X92500Y907500D01*
X102500Y897500D01*
D14*
X102500Y897500D03*
D13*
X97500Y911250D02*
X97500Y917500D01*
X97500Y911250D02*
X112500Y896250D01*
D14*
X112500Y896250D03*
D13*
X102500Y917500D02*
X102500Y925000D01*
X110000Y932500D01*
D14*
X110000Y932500D03*
D13*
X107500Y917500D02*
X107500Y911250D01*
X122500Y896250D01*
D14*
X122500Y896250D03*
D13*
X112500Y911250D02*
X112500Y917500D01*
X112500Y911250D02*
X121250Y902500D01*
X127500Y902500D01*
X132500Y897500D01*
D14*
X132500Y897500D03*
D13*
X117500Y917500D02*
X117500Y923750D01*
X133750Y940000D01*
D14*
X133750Y940000D03*
D13*
X122500Y917500D02*
X122500Y911250D01*
X127500Y906250D01*
X140000Y906250D01*
X148750Y897500D01*
D14*
X148750Y897500D03*
D13*
X127500Y917500D02*
X127500Y925000D01*
X143750Y941250D01*
D14*
X143750Y941250D03*
D13*
X132500Y923750D02*
X132500Y917500D01*
X132500Y923750D02*
X143750Y935000D01*
X222500Y935000D01*
D14*
X222500Y935000D03*
D13*
X137500Y923750D02*
X137500Y917500D01*
X137500Y923750D02*
X145000Y931250D01*
X217500Y931250D01*
X221250Y927500D01*
X273750Y927500D01*
D14*
X273750Y927500D03*
D13*
X142500Y923750D02*
X142500Y917500D01*
X142500Y923750D02*
X146250Y927500D01*
X216250Y927500D01*
X225000Y918750D01*
X282500Y918750D01*
X288750Y925000D01*
D14*
X288750Y925000D03*
D13*
X153750Y917500D02*
X147500Y917500D01*
X153750Y917500D02*
X173750Y897500D01*
X288750Y897500D01*
D14*
X288750Y897500D03*
D13*
X328750Y917500D02*
X352500Y917500D01*
X328750Y917500D02*
X308750Y897500D01*
D14*
X308750Y897500D03*
D13*
X357500Y917500D02*
X357500Y923750D01*
X350000Y931250D01*
X311250Y931250D01*
D14*
X311250Y931250D03*
D13*
X362500Y923750D02*
X362500Y917500D01*
X362500Y923750D02*
X350000Y936250D01*
X320000Y936250D01*
X318750Y937500D01*
D14*
X318750Y937500D03*
D13*
X367500Y917500D02*
X367500Y911250D01*
X360000Y903750D01*
X335000Y903750D01*
X328750Y897500D01*
D14*
X328750Y897500D03*
D13*
X372500Y911250D02*
X372500Y917500D01*
X372500Y911250D02*
X358750Y897500D01*
X341250Y897500D01*
D14*
X341250Y897500D03*
X327500Y925000D03*
D13*
X377500Y917500D02*
X377500Y911250D01*
X357500Y891250D01*
X305000Y891250D01*
X301250Y895000D01*
X301250Y931250D01*
X317500Y947500D01*
D14*
X317500Y947500D03*
D13*
X382500Y917500D02*
X382500Y897500D01*
D14*
X382500Y897500D03*
X345000Y925000D03*
D13*
X387500Y917500D02*
X387500Y907500D01*
X390000Y905000D01*
D14*
X390000Y905000D03*
D13*
X392500Y917500D02*
X392500Y923750D01*
X382500Y933750D01*
X361250Y933750D01*
D14*
X361250Y933750D03*
D13*
X397500Y917500D02*
X397500Y902500D01*
X386250Y891250D01*
X375000Y891250D01*
D14*
X375000Y891250D03*
D13*
X402500Y917500D02*
X402500Y926250D01*
X398750Y930000D01*
D14*
X398750Y930000D03*
D13*
X407500Y930000D02*
X407500Y917500D01*
X407500Y930000D02*
X398750Y938750D01*
X386250Y938750D01*
D14*
X386250Y938750D03*
D13*
X412500Y917500D02*
X412500Y911250D01*
X431250Y892500D01*
X496250Y892500D01*
D14*
X496250Y892500D03*
D13*
X417500Y911250D02*
X417500Y917500D01*
X417500Y911250D02*
X432500Y896250D01*
X472500Y896250D01*
X501250Y925000D01*
D14*
X501250Y925000D03*
D13*
X422500Y917500D02*
X422500Y911250D01*
X433750Y900000D01*
X471250Y900000D01*
X495000Y923750D01*
X495000Y927500D01*
X498750Y931250D01*
X507500Y931250D01*
X513750Y925000D01*
D14*
X513750Y925000D03*
D13*
X427500Y917500D02*
X427500Y911250D01*
X435000Y903750D01*
X470000Y903750D01*
X491250Y925000D01*
X491250Y928750D01*
X497500Y935000D01*
X512500Y935000D01*
X520000Y927500D01*
X520000Y897500D01*
D14*
X520000Y897500D03*
D13*
X432500Y911250D02*
X432500Y917500D01*
X432500Y911250D02*
X436250Y907500D01*
X468750Y907500D01*
X487500Y926250D01*
X487500Y930000D01*
X496250Y938750D01*
X515000Y938750D01*
X528750Y925000D01*
D14*
X528750Y925000D03*
D13*
X437500Y923750D02*
X437500Y917500D01*
X437500Y923750D02*
X450000Y936250D01*
X488750Y936250D01*
X495000Y942500D01*
X521250Y942500D01*
X528750Y935000D01*
D14*
X528750Y935000D03*
D13*
X442500Y923750D02*
X442500Y917500D01*
X442500Y923750D02*
X447500Y928750D01*
X481250Y928750D01*
D14*
X481250Y928750D03*
X541250Y925000D03*
D13*
X470000Y917500D02*
X447500Y917500D01*
X470000Y917500D02*
X473750Y921250D01*
D14*
X473750Y921250D03*
D13*
X625000Y917500D02*
X652500Y917500D01*
D14*
X625000Y917500D03*
X551250Y925000D03*
D13*
X657500Y917500D02*
X657500Y911250D01*
X653750Y907500D01*
X623750Y907500D01*
X615000Y916250D01*
D14*
X615000Y916250D03*
X567500Y925000D03*
D13*
X662500Y917500D02*
X662500Y911250D01*
X655000Y903750D01*
X618750Y903750D01*
D14*
X618750Y903750D03*
X572500Y895000D03*
D13*
X667500Y906250D02*
X667500Y917500D01*
X667500Y906250D02*
X668750Y905000D01*
D14*
X668750Y905000D03*
X616250Y880000D03*
D13*
X672500Y917500D02*
X672500Y923750D01*
X667500Y928750D01*
X643750Y928750D01*
D14*
X643750Y928750D03*
D13*
X677500Y917500D02*
X677500Y905000D01*
X668750Y896250D01*
X603750Y896250D01*
X595000Y887500D01*
D14*
X595000Y887500D03*
D13*
X682500Y917500D02*
X682500Y923750D01*
X671250Y935000D01*
X605000Y935000D01*
X597500Y927500D01*
D14*
X597500Y927500D03*
D13*
X687500Y917500D02*
X687500Y910000D01*
X667500Y890000D01*
X615000Y890000D01*
D14*
X615000Y890000D03*
D13*
X692500Y917500D02*
X692500Y923750D01*
X710000Y941250D01*
D14*
X710000Y941250D03*
D13*
X697500Y917500D02*
X697500Y895000D01*
X710000Y882500D01*
D14*
X710000Y882500D03*
D13*
X702500Y898750D02*
X702500Y917500D01*
X702500Y898750D02*
X716250Y885000D01*
X721250Y885000D01*
D14*
X721250Y885000D03*
D13*
X707500Y917500D02*
X707500Y930000D01*
X721250Y943750D01*
X738750Y943750D01*
D14*
X738750Y943750D03*
D13*
X712500Y917500D02*
X712500Y901250D01*
X711250Y900000D01*
X711250Y895000D01*
X715000Y891250D01*
X753750Y891250D01*
D14*
X753750Y891250D03*
D13*
X717500Y917500D02*
X717500Y928750D01*
X716250Y930000D01*
D14*
X716250Y930000D03*
X757500Y925000D03*
D13*
X722500Y923750D02*
X722500Y917500D01*
X722500Y923750D02*
X736250Y937500D01*
X742500Y937500D01*
X748750Y943750D01*
D14*
X748750Y943750D03*
D13*
X727500Y923750D02*
X727500Y917500D01*
X727500Y923750D02*
X737500Y933750D01*
X743750Y933750D01*
X746250Y936250D01*
X760000Y936250D01*
X771250Y925000D01*
D14*
X771250Y925000D03*
D13*
X732500Y923750D02*
X732500Y917500D01*
X732500Y923750D02*
X738750Y930000D01*
X748750Y930000D01*
D14*
X748750Y930000D03*
X775000Y897500D03*
D13*
X737500Y911250D02*
X737500Y917500D01*
X737500Y911250D02*
X745000Y903750D01*
X780000Y903750D01*
X803750Y927500D01*
X803750Y937500D01*
X797500Y943750D01*
D14*
X797500Y943750D03*
D13*
X742500Y917500D02*
X742500Y911250D01*
X746250Y907500D01*
X775000Y907500D01*
X792500Y925000D01*
D14*
X792500Y925000D03*
D13*
X776250Y917500D02*
X747500Y917500D01*
X776250Y917500D02*
X792500Y933750D01*
X797500Y933750D01*
D14*
X797500Y933750D03*
D13*
X823750Y917500D02*
X952500Y917500D01*
X823750Y917500D02*
X816250Y925000D01*
D14*
X816250Y925000D03*
D13*
X957500Y917500D02*
X957500Y911250D01*
X953750Y907500D01*
X943750Y907500D01*
X937500Y913750D01*
X833750Y913750D01*
X816250Y896250D01*
D14*
X816250Y896250D03*
D13*
X962500Y917500D02*
X962500Y923750D01*
X956250Y930000D01*
X825000Y930000D01*
D14*
X825000Y930000D03*
D13*
X967500Y923750D02*
X967500Y917500D01*
X967500Y923750D02*
X951250Y940000D01*
D14*
X951250Y940000D03*
D13*
X972500Y917500D02*
X972500Y911250D01*
X965000Y903750D01*
X938750Y903750D01*
X935000Y907500D01*
D14*
X935000Y907500D03*
D13*
X977500Y917500D02*
X977500Y928750D01*
X978750Y930000D01*
D14*
X978750Y930000D03*
X951250Y897500D03*
D13*
X982500Y917500D02*
X982500Y925000D01*
X985000Y927500D01*
X985000Y932500D01*
X981250Y936250D01*
X966250Y936250D01*
D14*
X966250Y936250D03*
D13*
X987500Y917500D02*
X987500Y911250D01*
X980000Y903750D01*
X977500Y903750D01*
X971250Y897500D01*
D14*
X971250Y897500D03*
D13*
X992500Y908750D02*
X992500Y917500D01*
X992500Y908750D02*
X981250Y897500D01*
D14*
X981250Y897500D03*
D13*
X997500Y917500D02*
X997500Y925000D01*
X992500Y930000D01*
D14*
X992500Y930000D03*
D13*
X1002500Y917500D02*
X1002500Y903750D01*
X996250Y897500D01*
D14*
X996250Y897500D03*
D13*
X1007500Y917500D02*
X1007500Y925000D01*
X1002500Y930000D01*
D14*
X1002500Y930000D03*
D13*
X1012500Y917500D02*
X1012500Y903750D01*
X1006250Y897500D01*
D14*
X1006250Y897500D03*
D13*
X1017500Y917500D02*
X1017500Y925000D01*
X1012500Y930000D01*
D14*
X1012500Y930000D03*
D13*
X1022500Y917500D02*
X1022500Y897500D01*
D14*
X1022500Y897500D03*
D13*
X1027500Y917500D02*
X1027500Y925000D01*
X1022500Y930000D01*
D14*
X1022500Y930000D03*
D13*
X1032500Y917500D02*
X1032500Y897500D01*
D14*
X1032500Y897500D03*
D13*
X1037500Y917500D02*
X1037500Y930000D01*
D14*
X1037500Y930000D03*
D13*
X1042500Y917500D02*
X1042500Y901250D01*
X1046250Y897500D01*
D14*
X1046250Y897500D03*
D13*
X1047500Y917500D02*
X1055000Y925000D01*
D14*
X1055000Y925000D03*
D13*
X437500Y280000D02*
X437500Y273750D01*
X441250Y270000D01*
X513750Y270000D01*
X531250Y287500D01*
D14*
X531250Y287500D03*
D13*
X357500Y492500D02*
X357500Y498750D01*
X350000Y506250D01*
X306250Y506250D01*
D14*
X306250Y506250D03*
D13*
X283750Y422500D02*
X162500Y422500D01*
D14*
X162500Y422500D03*
X283750Y422500D03*
D13*
X608750Y428750D02*
X740000Y428750D01*
D14*
X608750Y428750D03*
X740000Y428750D03*
D13*
X831250Y428750D02*
X980000Y428750D01*
D14*
X831250Y428750D03*
X980000Y428750D03*
D13*
X300000Y635000D02*
X188750Y635000D01*
D14*
X188750Y635000D03*
X300000Y635000D03*
X697500Y652500D03*
X753750Y637500D03*
D13*
X831250Y641250D02*
X965000Y641250D01*
D14*
X831250Y641250D03*
X965000Y641250D03*
D13*
X290000Y853750D02*
X156250Y853750D01*
D14*
X156250Y853750D03*
X290000Y853750D03*
D13*
X612500Y847500D02*
X746250Y847500D01*
D14*
X612500Y847500D03*
X746250Y847500D03*
D13*
X68750Y216250D02*
X-47500Y216250D01*
X-50000Y213750D01*
X-50000Y212700D01*
D14*
X68750Y216250D03*
D13*
X1058750Y225000D02*
X1118750Y225000D01*
X1130000Y213750D01*
X1130000Y212700D01*
D14*
X1058750Y225000D03*
X28750Y290000D03*
D13*
X176250Y1066250D02*
X301250Y1066250D01*
D14*
X176250Y1066250D03*
X301250Y1066250D03*
D13*
X52500Y417500D02*
X-46250Y417500D01*
X-50000Y413750D01*
X-50000Y412700D01*
D14*
X52500Y417500D03*
D13*
X963750Y325000D02*
X987500Y325000D01*
X963750Y325000D02*
X946250Y342500D01*
X946250Y365000D01*
D14*
X987500Y325000D03*
X946250Y365000D03*
X1008750Y325000D03*
X1033750Y412500D03*
D13*
X1007500Y396250D02*
X975000Y396250D01*
D14*
X1007500Y396250D03*
X975000Y396250D03*
X992500Y311250D03*
X967500Y331250D03*
D13*
X992500Y365000D02*
X1027500Y365000D01*
D14*
X1027500Y365000D03*
X992500Y365000D03*
X1008750Y372500D03*
X1021250Y372500D03*
X980000Y331250D03*
D13*
X1018750Y383750D02*
X1018750Y396250D01*
X1018750Y383750D02*
X1046250Y356250D01*
X1046250Y337500D01*
X1040000Y331250D02*
X995000Y331250D01*
X1040000Y331250D02*
X1046250Y337500D01*
D14*
X1018750Y396250D03*
X1046250Y337500D03*
X995000Y331250D03*
D13*
X528750Y428750D02*
X380000Y428750D01*
D14*
X380000Y428750D03*
X528750Y428750D03*
D13*
X80000Y310000D02*
X65000Y310000D01*
X47500Y327500D01*
D14*
X80000Y310000D03*
X47500Y327500D03*
D13*
X71250Y322500D02*
X105000Y322500D01*
X71250Y322500D02*
X56250Y337500D01*
D14*
X105000Y322500D03*
X56250Y337500D03*
D13*
X108750Y316250D02*
X117500Y325000D01*
X108750Y316250D02*
X67500Y316250D01*
D14*
X117500Y325000D03*
X67500Y316250D03*
D13*
X103750Y367500D02*
X71250Y400000D01*
D14*
X103750Y367500D03*
X71250Y400000D03*
D13*
X137500Y345000D02*
X137500Y337500D01*
X137500Y345000D02*
X120000Y362500D01*
X120000Y401250D01*
D14*
X137500Y337500D03*
X120000Y401250D03*
D13*
X113750Y368750D02*
X82500Y337500D01*
D14*
X82500Y337500D03*
X113750Y368750D03*
D13*
X127500Y372500D02*
X127500Y360000D01*
X148750Y338750D01*
X117500Y331250D02*
X92500Y331250D01*
X117500Y331250D02*
X118750Y332500D01*
X133750Y332500D01*
X135000Y331250D01*
X141250Y331250D01*
X148750Y338750D01*
X151250Y336250D01*
D14*
X127500Y372500D03*
X151250Y336250D03*
X92500Y331250D03*
D13*
X326250Y366250D02*
X326250Y373750D01*
X321250Y378750D01*
X271250Y378750D01*
D14*
X326250Y366250D03*
X271250Y378750D03*
D13*
X280000Y325000D02*
X312500Y325000D01*
X280000Y325000D02*
X272500Y332500D01*
D14*
X312500Y325000D03*
X272500Y332500D03*
D13*
X308750Y396250D02*
X332500Y396250D01*
D14*
X332500Y396250D03*
X308750Y396250D03*
X345000Y337500D03*
X302500Y372500D03*
D13*
X318750Y372500D02*
X318750Y365000D01*
X323750Y360000D01*
X343750Y360000D01*
X348750Y365000D01*
X318750Y365000D02*
X308750Y365000D01*
D14*
X318750Y372500D03*
X348750Y365000D03*
X308750Y365000D03*
D13*
X333750Y372500D02*
X357500Y372500D01*
X303750Y331250D02*
X283750Y331250D01*
X280000Y335000D01*
X280000Y340000D01*
X295000Y355000D01*
X350000Y355000D01*
X357500Y362500D01*
X357500Y372500D01*
D14*
X333750Y372500D03*
X357500Y372500D03*
X303750Y331250D03*
D13*
X345000Y393750D02*
X345000Y396250D01*
X345000Y393750D02*
X371250Y367500D01*
X371250Y337500D01*
X365000Y331250D02*
X320000Y331250D01*
X365000Y331250D02*
X371250Y337500D01*
D14*
X345000Y396250D03*
X371250Y337500D03*
X320000Y331250D03*
D13*
X501250Y318750D02*
X541250Y318750D01*
D14*
X541250Y318750D03*
X501250Y318750D03*
D13*
X515000Y325000D02*
X556250Y325000D01*
X515000Y325000D02*
X503750Y336250D01*
X503750Y365000D01*
D14*
X556250Y325000D03*
X503750Y365000D03*
D13*
X515000Y365000D02*
X567500Y365000D01*
D14*
X567500Y365000D03*
X515000Y365000D03*
D13*
X555000Y337500D02*
X568750Y337500D01*
X555000Y337500D02*
X548750Y331250D01*
X517500Y331250D01*
D14*
X568750Y337500D03*
X517500Y331250D03*
X581250Y337500D03*
X543750Y371250D03*
X531250Y337500D03*
X556250Y372500D03*
D13*
X577500Y372500D02*
X577500Y366250D01*
X570000Y358750D02*
X548750Y337500D01*
X570000Y358750D02*
X577500Y366250D01*
X548750Y337500D02*
X546250Y337500D01*
X570000Y358750D02*
X591250Y337500D01*
D14*
X577500Y372500D03*
X546250Y337500D03*
X591250Y337500D03*
D13*
X600000Y365000D02*
X567500Y397500D01*
D14*
X600000Y365000D03*
X567500Y397500D03*
X781250Y320000D03*
X726250Y320000D03*
X790000Y325000D03*
X731250Y365000D03*
D13*
X740000Y395000D02*
X787500Y395000D01*
X740000Y395000D02*
X738750Y396250D01*
D14*
X787500Y395000D03*
X738750Y396250D03*
X796250Y365000D03*
X755000Y371250D03*
D13*
X810000Y325000D02*
X820000Y325000D01*
X832500Y337500D01*
D14*
X810000Y325000D03*
X832500Y337500D03*
D13*
X755000Y331250D02*
X738750Y331250D01*
X735000Y335000D01*
X735000Y340000D01*
X767500Y372500D01*
X783750Y372500D01*
D14*
X783750Y372500D03*
X802500Y372500D03*
X755000Y331250D03*
D13*
X797500Y388750D02*
X797500Y396250D01*
X797500Y388750D02*
X822500Y363750D01*
X822500Y337500D01*
X816250Y331250D02*
X771250Y331250D01*
X816250Y331250D02*
X822500Y337500D01*
D14*
X797500Y396250D03*
X822500Y337500D03*
X771250Y331250D03*
D13*
X1051250Y430000D02*
X1113750Y430000D01*
X1130000Y413750D01*
X1130000Y412700D01*
D14*
X1051250Y430000D03*
X28750Y490000D03*
D13*
X1250Y665000D02*
X68750Y665000D01*
X1250Y665000D02*
X-50000Y613750D01*
X-50000Y612700D01*
D14*
X68750Y665000D03*
D13*
X71250Y521250D02*
X80000Y521250D01*
X71250Y521250D02*
X46250Y546250D01*
X46250Y577500D01*
D14*
X80000Y521250D03*
X46250Y577500D03*
X91250Y521250D03*
X52500Y550000D03*
D13*
X113750Y535000D02*
X117500Y535000D01*
X113750Y535000D02*
X106250Y527500D01*
X73750Y527500D01*
X67500Y533750D01*
D14*
X117500Y535000D03*
X67500Y533750D03*
D13*
X73750Y585000D02*
X106250Y585000D01*
D14*
X106250Y585000D03*
X73750Y585000D03*
X133750Y537500D03*
X85000Y537500D03*
D13*
X85000Y550000D02*
X137500Y550000D01*
D14*
X85000Y550000D03*
X137500Y550000D03*
D13*
X127500Y571250D02*
X127500Y585000D01*
X127500Y571250D02*
X147500Y551250D01*
X96250Y543750D02*
X92500Y543750D01*
X96250Y543750D02*
X97500Y545000D01*
X133750Y545000D01*
X135000Y543750D01*
X140000Y543750D01*
X147500Y551250D01*
X150000Y548750D01*
D14*
X127500Y585000D03*
X150000Y548750D03*
X92500Y543750D03*
D13*
X326250Y578750D02*
X326250Y586250D01*
X321250Y591250D01*
X303750Y591250D01*
X261250Y548750D01*
D14*
X326250Y578750D03*
X261250Y548750D03*
D13*
X276250Y537500D02*
X312500Y537500D01*
D14*
X312500Y537500D03*
X276250Y537500D03*
D13*
X308750Y608750D02*
X332500Y608750D01*
D14*
X332500Y608750D03*
X308750Y608750D03*
X318750Y523750D03*
X291250Y523750D03*
D13*
X318750Y577500D02*
X318750Y585000D01*
X318750Y577500D02*
X323750Y572500D01*
X347500Y572500D01*
X352500Y577500D01*
X318750Y577500D02*
X308750Y577500D01*
D14*
X318750Y585000D03*
X352500Y577500D03*
X308750Y577500D03*
D13*
X303750Y543750D02*
X283750Y543750D01*
X280000Y547500D01*
X280000Y552500D01*
X295000Y567500D01*
X351250Y567500D01*
X358750Y575000D01*
X358750Y580000D01*
X353750Y585000D01*
X346250Y585000D01*
D14*
X333750Y585000D03*
X346250Y585000D03*
X303750Y543750D03*
D13*
X343750Y602500D02*
X343750Y608750D01*
X343750Y602500D02*
X373750Y572500D01*
X373750Y550000D01*
X367500Y543750D02*
X320000Y543750D01*
X367500Y543750D02*
X373750Y550000D01*
D14*
X343750Y608750D03*
X373750Y550000D03*
X320000Y543750D03*
D13*
X381250Y650000D02*
X518750Y650000D01*
X528750Y640000D01*
D14*
X381250Y650000D03*
X528750Y640000D03*
D13*
X536250Y528750D02*
X517500Y528750D01*
X497500Y548750D01*
D14*
X536250Y528750D03*
X497500Y548750D03*
D13*
X516250Y535000D02*
X553750Y535000D01*
X516250Y535000D02*
X503750Y547500D01*
X503750Y577500D01*
D14*
X553750Y535000D03*
X503750Y577500D03*
D13*
X526250Y608750D02*
X558750Y608750D01*
D14*
X558750Y608750D03*
X526250Y608750D03*
X565000Y537500D03*
X520000Y577500D03*
D13*
X543750Y585000D02*
X550000Y585000D01*
X557500Y577500D01*
X576250Y577500D01*
X557500Y577500D02*
X530000Y577500D01*
D14*
X543750Y585000D03*
X576250Y577500D03*
X530000Y577500D03*
D13*
X565000Y585000D02*
X582500Y585000D01*
X565000Y585000D02*
X558750Y585000D01*
X561250Y615000D02*
X537500Y615000D01*
X561250Y615000D02*
X565000Y611250D01*
X565000Y585000D01*
D14*
X558750Y585000D03*
X582500Y585000D03*
X537500Y615000D03*
D13*
X571250Y608750D02*
X571250Y605000D01*
X598750Y577500D01*
X598750Y550000D01*
X592500Y543750D02*
X542500Y543750D01*
X592500Y543750D02*
X598750Y550000D01*
D14*
X571250Y608750D03*
X598750Y550000D03*
X542500Y543750D03*
D13*
X711250Y605000D02*
X737500Y631250D01*
X743750Y637500D01*
X780000Y540000D02*
X783750Y540000D01*
X792500Y531250D01*
X812500Y531250D01*
X828750Y547500D01*
X828750Y582500D01*
X780000Y631250D01*
X737500Y631250D01*
D14*
X743750Y637500D03*
X711250Y605000D03*
X780000Y540000D03*
D13*
X756250Y542500D02*
X730000Y542500D01*
X722500Y550000D01*
D14*
X756250Y542500D03*
X722500Y550000D03*
D13*
X776250Y578750D02*
X786250Y578750D01*
X776250Y578750D02*
X746250Y608750D01*
D14*
X786250Y578750D03*
X746250Y608750D03*
X795000Y537500D03*
X750000Y578750D03*
D13*
X770000Y610000D02*
X802500Y577500D01*
D14*
X802500Y577500D03*
X770000Y610000D03*
X766250Y580000D03*
X778750Y585000D03*
D13*
X793750Y595000D02*
X793750Y608750D01*
X793750Y595000D02*
X822500Y566250D01*
X822500Y550000D01*
X775000Y543750D02*
X770000Y543750D01*
X775000Y543750D02*
X777500Y546250D01*
X782500Y546250D01*
X785000Y543750D01*
X816250Y543750D01*
X822500Y550000D01*
D14*
X793750Y608750D03*
X822500Y550000D03*
X770000Y543750D03*
D13*
X976250Y608750D02*
X1008750Y608750D01*
D14*
X1008750Y608750D03*
X976250Y608750D03*
X1002500Y537500D03*
X953750Y577500D03*
X1018750Y537500D03*
X966250Y543750D03*
D13*
X975000Y577500D02*
X1016250Y577500D01*
D14*
X1016250Y577500D03*
X975000Y577500D03*
X1006250Y585000D03*
X1023750Y585000D03*
X981250Y543750D03*
D13*
X1020000Y608750D02*
X1048750Y580000D01*
X1048750Y551250D01*
X1047500Y550000D01*
X1041250Y543750D02*
X995000Y543750D01*
X1041250Y543750D02*
X1047500Y550000D01*
D14*
X1020000Y608750D03*
X1047500Y550000D03*
X995000Y543750D03*
D13*
X707500Y671250D02*
X402500Y671250D01*
X707500Y671250D02*
X731250Y647500D01*
X1096250Y647500D01*
X1130000Y613750D01*
X1130000Y612700D01*
D14*
X21250Y691250D03*
X402500Y671250D03*
D13*
X68750Y853750D02*
X-10000Y853750D01*
X-50000Y813750D01*
X-50000Y812700D01*
D14*
X68750Y853750D03*
D13*
X382500Y853750D02*
X515000Y853750D01*
D14*
X382500Y853750D03*
X515000Y853750D03*
D13*
X80000Y731250D02*
X73750Y731250D01*
X46250Y758750D01*
D14*
X80000Y731250D03*
X46250Y758750D03*
D13*
X83750Y725000D02*
X90000Y731250D01*
X83750Y725000D02*
X67500Y725000D01*
X51250Y741250D01*
D14*
X90000Y731250D03*
X51250Y741250D03*
D13*
X107500Y737500D02*
X117500Y747500D01*
X107500Y737500D02*
X76250Y737500D01*
X67500Y746250D01*
D14*
X117500Y747500D03*
X67500Y746250D03*
D13*
X78750Y797500D02*
X106250Y797500D01*
X78750Y797500D02*
X73750Y792500D01*
D14*
X106250Y797500D03*
X73750Y792500D03*
D13*
X123750Y750000D02*
X133750Y750000D01*
X123750Y750000D02*
X120000Y753750D01*
X98750Y753750D01*
X95000Y750000D01*
X85000Y750000D01*
D14*
X133750Y750000D03*
X85000Y750000D03*
D13*
X85000Y762500D02*
X137500Y762500D01*
D14*
X85000Y762500D03*
X137500Y762500D03*
D13*
X96250Y756250D02*
X92500Y756250D01*
X96250Y756250D02*
X97500Y757500D01*
X133750Y757500D01*
X135000Y756250D01*
X143750Y756250D01*
X150000Y762500D01*
D14*
X128750Y796250D03*
X150000Y762500D03*
X92500Y756250D03*
X326250Y791250D03*
X271250Y791250D03*
D13*
X272500Y746250D02*
X306250Y746250D01*
D14*
X306250Y746250D03*
X272500Y746250D03*
D13*
X308750Y821250D02*
X332500Y821250D01*
D14*
X332500Y821250D03*
X308750Y821250D03*
X318750Y737500D03*
X291250Y725000D03*
D13*
X333750Y790000D02*
X355000Y790000D01*
X333750Y790000D02*
X328750Y785000D01*
X318750Y785000D01*
X306250Y797500D01*
D14*
X318750Y797500D03*
X306250Y797500D03*
X355000Y790000D03*
D13*
X361250Y797500D02*
X333750Y797500D01*
D14*
X333750Y797500D03*
X361250Y797500D03*
X305000Y756250D03*
D13*
X343750Y821250D02*
X346250Y821250D01*
X375000Y792500D01*
X375000Y762500D01*
X323750Y762500D01*
D14*
X343750Y821250D03*
X375000Y762500D03*
X323750Y762500D03*
D13*
X515000Y743750D02*
X528750Y743750D01*
X515000Y743750D02*
X493750Y765000D01*
X493750Y790000D01*
D14*
X528750Y743750D03*
X493750Y790000D03*
D13*
X513750Y750000D02*
X542500Y750000D01*
X513750Y750000D02*
X503750Y760000D01*
X503750Y790000D01*
D14*
X542500Y750000D03*
X503750Y790000D03*
D13*
X533750Y820000D02*
X562500Y820000D01*
X533750Y820000D02*
X532500Y821250D01*
D14*
X562500Y820000D03*
X532500Y821250D03*
X558750Y750000D03*
X518750Y790000D03*
D13*
X582500Y765000D02*
X582500Y762500D01*
X582500Y765000D02*
X611250Y793750D01*
X611250Y801250D01*
X605000Y807500D01*
X553750Y807500D01*
X543750Y797500D01*
D14*
X543750Y797500D03*
X531250Y797500D03*
X582500Y762500D03*
D13*
X567500Y756250D02*
X530000Y756250D01*
X567500Y756250D02*
X602500Y791250D01*
X603750Y791250D01*
X607500Y795000D01*
X607500Y800000D01*
X603750Y803750D01*
X577500Y803750D01*
X571250Y797500D01*
D14*
X558750Y797500D03*
X571250Y797500D03*
X530000Y756250D03*
D13*
X552500Y790000D02*
X578750Y790000D01*
X586250Y797500D01*
D14*
X586250Y797500D03*
X601250Y797500D03*
X552500Y790000D03*
D13*
X780000Y752500D02*
X788750Y743750D01*
X816250Y743750D01*
D14*
X780000Y752500D03*
X816250Y743750D03*
D13*
X808750Y750000D02*
X791250Y750000D01*
D14*
X791250Y750000D03*
X808750Y750000D03*
D13*
X782500Y821250D02*
X762500Y821250D01*
D14*
X782500Y821250D03*
X762500Y821250D03*
X796250Y790000D03*
X750000Y790000D03*
D13*
X755000Y756250D02*
X738750Y756250D01*
X735000Y760000D01*
X735000Y765000D01*
X767500Y797500D01*
X783750Y797500D01*
D14*
X783750Y797500D03*
X802500Y797500D03*
X755000Y756250D03*
D13*
X796250Y762500D02*
X822500Y762500D01*
X796250Y762500D02*
X790000Y756250D01*
X785000Y756250D01*
X782500Y758750D01*
X772500Y758750D01*
X770000Y756250D01*
D14*
X793750Y821250D03*
X770000Y756250D03*
X822500Y762500D03*
D13*
X983750Y821250D02*
X1007500Y821250D01*
D14*
X1007500Y821250D03*
X983750Y821250D03*
D13*
X995000Y750000D02*
X951250Y750000D01*
D14*
X995000Y750000D03*
X951250Y750000D03*
D13*
X965000Y790000D02*
X1016250Y790000D01*
D14*
X1016250Y790000D03*
X965000Y790000D03*
D13*
X967500Y756250D02*
X1018750Y756250D01*
D14*
X1018750Y756250D03*
X967500Y756250D03*
D13*
X1025000Y755000D02*
X1032500Y762500D01*
X1025000Y755000D02*
X1025000Y753750D01*
X1015000Y743750D01*
X948750Y743750D01*
X945000Y747500D01*
X945000Y778750D01*
X963750Y797500D01*
X981250Y797500D01*
D14*
X993750Y797500D03*
X981250Y797500D03*
X1032500Y762500D03*
X1006250Y797500D03*
X1022500Y797500D03*
D13*
X1042500Y797500D02*
X1018750Y821250D01*
X1042500Y781250D02*
X1042500Y767500D01*
X1042500Y781250D02*
X1042500Y797500D01*
X1042500Y767500D02*
X1047500Y762500D01*
X1023750Y762500D02*
X998750Y762500D01*
X1023750Y762500D02*
X1042500Y781250D01*
D14*
X1018750Y821250D03*
X1047500Y762500D03*
X998750Y762500D03*
X1048750Y790000D03*
X1032500Y797500D03*
D13*
X1061250Y861250D02*
X1082500Y861250D01*
X1130000Y813750D01*
X1130000Y812700D01*
X142500Y848750D02*
X86250Y848750D01*
X142500Y848750D02*
X155000Y861250D01*
X716250Y861250D01*
D14*
X1061250Y861250D03*
X86250Y848750D03*
X716250Y861250D03*
D13*
X67500Y1065000D02*
X1250Y1065000D01*
X-50000Y1013750D01*
X-50000Y1012700D01*
D14*
X67500Y1065000D03*
D13*
X67500Y955000D02*
X83750Y955000D01*
X67500Y955000D02*
X47500Y975000D01*
D14*
X83750Y955000D03*
X47500Y975000D03*
D13*
X67500Y945000D02*
X82500Y945000D01*
D14*
X82500Y945000D03*
X67500Y945000D03*
D13*
X102500Y968750D02*
X118750Y968750D01*
X102500Y968750D02*
X95000Y961250D01*
X80000Y961250D01*
X66250Y975000D01*
D14*
X118750Y968750D03*
X66250Y975000D03*
X122500Y1008750D03*
X76250Y1008750D03*
D13*
X103750Y975000D02*
X132500Y975000D01*
X103750Y975000D02*
X96250Y967500D01*
X88750Y967500D01*
D14*
X132500Y975000D03*
X88750Y967500D03*
X82500Y975000D03*
X103750Y1002500D03*
D13*
X118750Y998750D02*
X147500Y970000D01*
X118750Y998750D02*
X115000Y1002500D01*
X118750Y998750D02*
X95000Y975000D01*
D14*
X115000Y1002500D03*
X147500Y970000D03*
X95000Y975000D03*
D13*
X326250Y1003750D02*
X326250Y1011250D01*
X321250Y1016250D01*
X271250Y1016250D01*
D14*
X326250Y1003750D03*
X271250Y1016250D03*
D13*
X295000Y960000D02*
X307500Y947500D01*
X295000Y960000D02*
X295000Y963750D01*
X291250Y967500D01*
X212500Y967500D01*
D14*
X307500Y947500D03*
X212500Y967500D03*
D13*
X308750Y1033750D02*
X332500Y1033750D01*
D14*
X332500Y1033750D03*
X308750Y1033750D03*
D13*
X326250Y975000D02*
X347500Y975000D01*
X326250Y975000D02*
X298750Y1002500D01*
D14*
X347500Y975000D03*
X298750Y1002500D03*
D13*
X318750Y1002500D02*
X318750Y1010000D01*
X318750Y1002500D02*
X323750Y997500D01*
X343750Y997500D01*
X348750Y1002500D01*
X318750Y1002500D02*
X308750Y1002500D01*
D14*
X318750Y1010000D03*
X348750Y1002500D03*
X308750Y1002500D03*
D13*
X333750Y1010000D02*
X357500Y1010000D01*
D14*
X333750Y1010000D03*
X357500Y1010000D03*
X305000Y968750D03*
D13*
X345000Y1031250D02*
X345000Y1033750D01*
X345000Y1031250D02*
X372500Y1003750D01*
X372500Y975000D01*
X366250Y968750D02*
X320000Y968750D01*
X366250Y968750D02*
X372500Y975000D01*
D14*
X345000Y1033750D03*
X372500Y975000D03*
X320000Y968750D03*
D13*
X501250Y956250D02*
X541250Y956250D01*
D14*
X541250Y956250D03*
X501250Y956250D03*
D13*
X541250Y962500D02*
X556250Y962500D01*
X541250Y962500D02*
X503750Y1000000D01*
X503750Y1002500D01*
D14*
X556250Y962500D03*
X503750Y1002500D03*
D13*
X523750Y1033750D02*
X558750Y1033750D01*
D14*
X558750Y1033750D03*
X523750Y1033750D03*
D13*
X567500Y962500D02*
X551250Y946250D01*
X520000Y946250D01*
X516250Y950000D01*
D14*
X567500Y962500D03*
X516250Y950000D03*
D13*
X542500Y1010000D02*
X550000Y1010000D01*
X556250Y1003750D01*
X575000Y1003750D01*
X535000Y1002500D02*
X530000Y1002500D01*
X535000Y1002500D02*
X542500Y1010000D01*
D14*
X542500Y1010000D03*
X575000Y1003750D03*
X530000Y1002500D03*
D13*
X558750Y1010000D02*
X582500Y1010000D01*
X515000Y1033750D02*
X515000Y1038750D01*
X515000Y1033750D02*
X532500Y1016250D01*
X552500Y1016250D01*
X558750Y1010000D01*
D14*
X558750Y1010000D03*
X582500Y1010000D03*
X515000Y1038750D03*
D13*
X572500Y1033750D02*
X592500Y1013750D01*
X592500Y975000D01*
X586250Y968750D02*
X545000Y968750D01*
X586250Y968750D02*
X592500Y975000D01*
D14*
X572500Y1033750D03*
X592500Y975000D03*
X545000Y968750D03*
X780000Y965000D03*
X722500Y1002500D03*
X790000Y962500D03*
X726250Y958750D03*
X783750Y1033750D03*
X762500Y1033750D03*
X796250Y1002500D03*
X755000Y1008750D03*
D13*
X755000Y968750D02*
X738750Y968750D01*
X735000Y972500D01*
X735000Y977500D01*
X767500Y1010000D01*
X783750Y1010000D01*
D14*
X783750Y1010000D03*
X802500Y1010000D03*
X755000Y968750D03*
D13*
X793750Y1033750D02*
X796250Y1033750D01*
X825000Y1005000D01*
X825000Y975000D01*
X775000Y968750D02*
X770000Y968750D01*
X775000Y968750D02*
X777500Y971250D01*
X782500Y971250D01*
X785000Y968750D01*
X818750Y968750D01*
X825000Y975000D01*
D14*
X793750Y1033750D03*
X825000Y975000D03*
X770000Y968750D03*
D13*
X963750Y948750D02*
X978750Y948750D01*
X963750Y948750D02*
X946250Y966250D01*
D14*
X978750Y948750D03*
X946250Y966250D03*
D13*
X963750Y962500D02*
X995000Y962500D01*
X963750Y962500D02*
X953750Y972500D01*
X953750Y1002500D01*
D14*
X995000Y962500D03*
X953750Y1002500D03*
D13*
X991250Y1033750D02*
X1007500Y1033750D01*
X991250Y1033750D02*
X980000Y1045000D01*
D14*
X1007500Y1033750D03*
X980000Y1045000D03*
X1022500Y966250D03*
X968750Y1002500D03*
D13*
X1032500Y980000D02*
X1032500Y975000D01*
X1032500Y980000D02*
X1052500Y1000000D01*
X1052500Y1007500D01*
X1041250Y1018750D01*
X1002500Y1018750D01*
X993750Y1010000D01*
D14*
X993750Y1010000D03*
X981250Y1002500D03*
X1032500Y975000D03*
D13*
X1016250Y968750D02*
X980000Y968750D01*
X1016250Y968750D02*
X1048750Y1001250D01*
X1048750Y1006250D01*
X1040000Y1015000D01*
X1026250Y1015000D01*
X1021250Y1010000D01*
D14*
X1008750Y1010000D03*
X1021250Y1010000D03*
X980000Y968750D03*
D13*
X1047500Y975000D02*
X1047500Y988750D01*
X1057500Y998750D01*
X1057500Y1008750D01*
X1032500Y1033750D01*
D14*
X1047500Y975000D03*
X1032500Y1033750D03*
X1002500Y1002500D03*
X1031250Y1008750D03*
D13*
X956250Y327500D02*
X948750Y327500D01*
X956250Y327500D02*
X966250Y317500D01*
X1000000Y317500D01*
X1002500Y315000D01*
X1045000Y315000D01*
X1106250Y376250D01*
X1141250Y376250D01*
X1151250Y386250D01*
X1151250Y467500D01*
X1170000Y486250D01*
X1170000Y486500D01*
X41250Y423750D02*
X-37500Y423750D01*
X-100000Y486250D01*
X-100000Y486500D01*
X52500Y435000D02*
X251250Y435000D01*
X52500Y435000D02*
X41250Y423750D01*
X335000Y435000D02*
X410000Y435000D01*
X335000Y435000D02*
X316250Y416250D01*
X266250Y416250D01*
D14*
X948750Y327500D03*
X41250Y423750D03*
X251250Y435000D03*
X410000Y435000D03*
X266250Y416250D03*
X716250Y365000D03*
D13*
X1058750Y436250D02*
X1095000Y436250D01*
X1170000Y511250D01*
X1170000Y511900D01*
X107500Y452500D02*
X-41250Y452500D01*
X-100000Y511250D01*
X-100000Y511900D01*
X113750Y458750D02*
X386250Y458750D01*
X113750Y458750D02*
X107500Y452500D01*
X383750Y415000D02*
X585000Y415000D01*
X833750Y371250D02*
X833750Y365000D01*
X833750Y371250D02*
X802500Y402500D01*
X700000Y402500D01*
X1023750Y400000D02*
X1058750Y400000D01*
X1023750Y400000D02*
X1021250Y402500D01*
X802500Y402500D01*
D14*
X1058750Y436250D03*
X107500Y452500D03*
X386250Y458750D03*
X585000Y415000D03*
X383750Y415000D03*
X833750Y365000D03*
X700000Y402500D03*
X1058750Y400000D03*
D13*
X952500Y536250D02*
X948750Y536250D01*
X952500Y536250D02*
X968750Y520000D01*
X1047500Y520000D01*
X1056250Y511250D01*
X1145000Y511250D01*
X1170000Y536250D01*
X1170000Y537300D01*
X41250Y542500D02*
X-95000Y542500D01*
X-100000Y537500D01*
X-100000Y537300D01*
X111250Y523750D02*
X133750Y523750D01*
X111250Y523750D02*
X100000Y512500D01*
X71250Y512500D01*
X41250Y542500D01*
X351250Y615000D02*
X476250Y615000D01*
X351250Y615000D02*
X338750Y627500D01*
X287500Y627500D01*
D14*
X948750Y536250D03*
X41250Y542500D03*
X133750Y523750D03*
X476250Y615000D03*
X287500Y627500D03*
X710000Y573750D03*
D13*
X833750Y543750D02*
X950000Y543750D01*
X966250Y527500D01*
X1045000Y527500D01*
X1062500Y545000D02*
X1080000Y562500D01*
X1062500Y545000D02*
X1045000Y527500D01*
X1080000Y562500D02*
X1170000Y562500D01*
X1170000Y562700D01*
X1062500Y545000D02*
X1057500Y550000D01*
X158750Y577500D02*
X145000Y591250D01*
X-23750Y591250D01*
X-51250Y563750D01*
X-100000Y563750D01*
X-100000Y562700D01*
X340000Y621250D02*
X383750Y577500D01*
X340000Y621250D02*
X202500Y621250D01*
X158750Y577500D01*
X415000Y608750D02*
X506250Y608750D01*
X415000Y608750D02*
X383750Y577500D01*
X833750Y582500D02*
X833750Y543750D01*
X833750Y582500D02*
X772500Y643750D01*
X670000Y643750D01*
X632500Y606250D01*
D14*
X833750Y543750D03*
X1057500Y550000D03*
X158750Y577500D03*
X383750Y577500D03*
X506250Y608750D03*
X632500Y606250D03*
D13*
X33750Y720000D02*
X31250Y720000D01*
X17500Y706250D02*
X-100000Y588750D01*
X17500Y706250D02*
X31250Y720000D01*
X-100000Y588750D02*
X-100000Y588100D01*
X156250Y685000D02*
X256250Y685000D01*
X156250Y685000D02*
X146250Y675000D01*
X48750Y675000D01*
X17500Y706250D01*
X492500Y745000D02*
X511250Y726250D01*
X557500Y726250D01*
X606250Y775000D01*
X695000Y775000D01*
X1170000Y591250D02*
X1170000Y588100D01*
X1170000Y591250D02*
X1188750Y610000D01*
X1188750Y670000D01*
X1027500Y831250D01*
X942500Y831250D01*
D14*
X33750Y720000D03*
X256250Y685000D03*
X492500Y745000D03*
X695000Y775000D03*
X860000Y776250D03*
X942500Y831250D03*
D13*
X1060000Y762500D02*
X1065000Y762500D01*
X1151250Y676250D01*
X1151250Y632500D01*
X1170000Y613750D01*
X1170000Y613500D01*
X158750Y790000D02*
X145000Y803750D01*
X76250Y803750D01*
X-81250Y646250D01*
X-81250Y632500D01*
X-100000Y613750D01*
X-100000Y613500D01*
X346250Y827500D02*
X360000Y813750D01*
X383750Y790000D01*
X346250Y827500D02*
X196250Y827500D01*
X158750Y790000D01*
X360000Y813750D02*
X603750Y813750D01*
X822500Y795000D02*
X827500Y795000D01*
X822500Y795000D02*
X803750Y813750D01*
X603750Y813750D01*
X1060000Y793750D02*
X1060000Y762500D01*
X1060000Y793750D02*
X1026250Y827500D01*
X967500Y827500D01*
X956250Y816250D01*
X836250Y816250D01*
X1058750Y762500D02*
X1060000Y762500D01*
D14*
X1058750Y762500D03*
X158750Y790000D03*
X383750Y790000D03*
X603750Y813750D03*
X827500Y795000D03*
X836250Y816250D03*
D13*
X736250Y1022500D02*
X716250Y1022500D01*
X736250Y1022500D02*
X765000Y1051250D01*
X45000Y1021250D02*
X41250Y1021250D01*
X45000Y1021250D02*
X51250Y1027500D01*
X171250Y1027500D01*
X-100000Y642500D02*
X-100000Y638900D01*
X-100000Y642500D02*
X-118750Y661250D01*
X-118750Y966250D01*
X-107500Y977500D01*
X-80000Y977500D01*
X-78750Y978750D01*
X-63750Y978750D01*
X-61250Y976250D01*
X-3750Y976250D01*
X41250Y1021250D01*
D14*
X716250Y1022500D03*
X765000Y1051250D03*
X41250Y1021250D03*
X171250Y1027500D03*
X473750Y990000D03*
D13*
X833750Y1010000D02*
X911250Y1010000D01*
X966250Y955000D01*
X1000000Y955000D01*
X1002500Y952500D01*
X1035000Y952500D01*
X267500Y1021250D02*
X158750Y1021250D01*
X267500Y1021250D02*
X293750Y1047500D01*
X320000Y1047500D01*
X492500Y1045000D02*
X552500Y1045000D01*
X1250Y972500D02*
X-76250Y972500D01*
X1250Y972500D02*
X50000Y1021250D01*
X158750Y1021250D01*
D14*
X833750Y1010000D03*
X1035000Y952500D03*
X158750Y1021250D03*
X320000Y1047500D03*
X552500Y1045000D03*
X492500Y1045000D03*
X-76250Y972500D03*
D13*
X442500Y286250D02*
X442500Y280000D01*
X442500Y286250D02*
X446250Y290000D01*
X448750Y290000D01*
X455000Y283750D01*
D14*
X455000Y283750D03*
D13*
X91250Y215000D02*
X82500Y215000D01*
X55000Y187500D01*
X-50000Y187500D01*
X-50000Y187300D01*
X341250Y240000D02*
X496250Y240000D01*
X502500Y246250D01*
X553750Y246250D01*
X787500Y217500D02*
X790000Y217500D01*
X797500Y210000D01*
X957500Y210000D01*
X966250Y218750D01*
X1007500Y218750D01*
X1008750Y217500D02*
X1038750Y187500D01*
X1008750Y217500D02*
X1007500Y218750D01*
X1038750Y187500D02*
X1130000Y187500D01*
X1130000Y187300D01*
X1008750Y217500D02*
X1007500Y216250D01*
D14*
X91250Y215000D03*
X341250Y240000D03*
X553750Y246250D03*
X787500Y217500D03*
X1007500Y216250D03*
D13*
X826250Y425000D02*
X796250Y425000D01*
X826250Y425000D02*
X845000Y406250D01*
X1006250Y406250D02*
X1111250Y406250D01*
X1006250Y406250D02*
X845000Y406250D01*
X1111250Y406250D02*
X1130000Y387500D01*
X1130000Y387300D01*
X1006250Y406250D02*
X1006250Y428750D01*
X95000Y428750D02*
X72500Y428750D01*
X31250Y387500D01*
X-50000Y387500D01*
X-50000Y387300D01*
X95000Y428750D02*
X320000Y428750D01*
X343750Y452500D02*
X556250Y452500D01*
X343750Y452500D02*
X320000Y428750D01*
X762500Y425000D02*
X796250Y425000D01*
X762500Y425000D02*
X737500Y450000D01*
X636250Y450000D01*
D14*
X796250Y425000D03*
X1006250Y428750D03*
X95000Y428750D03*
X320000Y428750D03*
X556250Y452500D03*
X636250Y450000D03*
D13*
X796250Y637500D02*
X826250Y637500D01*
X843750Y620000D01*
X1006250Y620000D02*
X1097500Y620000D01*
X1006250Y620000D02*
X843750Y620000D01*
X1097500Y620000D02*
X1130000Y587500D01*
X1130000Y587300D01*
X1006250Y620000D02*
X1006250Y641250D01*
X95000Y641250D02*
X3750Y641250D01*
X-50000Y587500D01*
X-50000Y587300D01*
X117500Y663750D02*
X325000Y663750D01*
X117500Y663750D02*
X95000Y641250D01*
X536250Y641250D02*
X556250Y641250D01*
X536250Y641250D02*
X516250Y661250D01*
X327500Y661250D01*
X325000Y663750D01*
D14*
X796250Y637500D03*
X1006250Y641250D03*
X95000Y641250D03*
X325000Y663750D03*
X556250Y641250D03*
D13*
X1012500Y855000D02*
X1062500Y855000D01*
X1130000Y787500D01*
X1130000Y787300D01*
X71250Y842500D02*
X5000Y842500D01*
X71250Y842500D02*
X97500Y842500D01*
X5000Y842500D02*
X-50000Y787500D01*
X-50000Y787300D01*
X117500Y877500D02*
X321250Y877500D01*
X117500Y877500D02*
X95000Y855000D01*
X83750Y855000D01*
X71250Y842500D01*
X361250Y883750D02*
X556250Y883750D01*
X361250Y883750D02*
X355000Y877500D01*
X321250Y877500D01*
X727500Y877500D02*
X781250Y877500D01*
X727500Y877500D02*
X723750Y873750D01*
X582500Y873750D01*
X572500Y883750D01*
X556250Y883750D01*
X957500Y855000D02*
X1012500Y855000D01*
X957500Y855000D02*
X937500Y875000D01*
D14*
X1012500Y855000D03*
X97500Y842500D03*
X321250Y877500D03*
X556250Y883750D03*
X781250Y877500D03*
X937500Y875000D03*
D13*
X93750Y1065000D02*
X76250Y1065000D01*
X-1250Y987500D01*
X-50000Y987500D01*
X-50000Y987300D01*
X105000Y1053750D02*
X311250Y1053750D01*
X105000Y1053750D02*
X93750Y1065000D01*
X576250Y1066250D02*
X767500Y1066250D01*
X953750Y1066250D01*
X968750Y1051250D01*
X1066250Y1051250D01*
X1130000Y987500D01*
X1130000Y987300D01*
X525000Y1061250D02*
X370000Y1061250D01*
X525000Y1061250D02*
X540000Y1076250D01*
X566250Y1076250D01*
X576250Y1066250D01*
D14*
X93750Y1065000D03*
X311250Y1053750D03*
X576250Y1066250D03*
X767500Y1066250D03*
X370000Y1061250D03*
M02*
