G04 EAGLE Gerber RS-274X export*
G75*
%MOMM*%
%FSLAX34Y34*%
%LPD*%
%INCopper Layer 15*%
%IPPOS*%
%AMOC8*
5,1,8,0,0,1.08239X$1,22.5*%
G01*
%ADD10C,1.524000*%
%ADD11C,0.756400*%
%ADD12C,0.152400*%


D10*
X-100000Y435700D03*
X-100000Y461100D03*
X-100000Y486500D03*
X-100000Y511900D03*
X-100000Y537300D03*
X-100000Y562700D03*
X-100000Y588100D03*
X-100000Y613500D03*
X-100000Y638900D03*
X-100000Y664300D03*
X1170000Y435700D03*
X1170000Y461100D03*
X1170000Y486500D03*
X1170000Y511900D03*
X1170000Y537300D03*
X1170000Y562700D03*
X1170000Y588100D03*
X1170000Y613500D03*
X1170000Y638900D03*
X1170000Y664300D03*
X-100000Y111900D03*
X-100000Y137300D03*
X-100000Y162700D03*
X-100000Y188100D03*
X-100000Y911900D03*
X-100000Y937300D03*
X-100000Y962700D03*
X-100000Y988100D03*
X-50000Y187300D03*
X-50000Y212700D03*
X1130000Y187300D03*
X1130000Y212700D03*
X-50000Y387300D03*
X-50000Y412700D03*
X1130000Y387300D03*
X1130000Y412700D03*
X-50000Y587300D03*
X-50000Y612700D03*
X1130000Y587300D03*
X1130000Y612700D03*
X-50000Y787300D03*
X-50000Y812700D03*
X1130000Y787300D03*
X1130000Y812700D03*
X-50000Y987300D03*
X-50000Y1012700D03*
X1130000Y987300D03*
X1130000Y1012700D03*
X1170000Y911900D03*
X1170000Y937300D03*
X1170000Y962700D03*
X1170000Y988100D03*
X1170000Y111900D03*
X1170000Y137300D03*
X1170000Y162700D03*
X1170000Y188100D03*
D11*
X107500Y1066250D03*
X335000Y1060000D03*
X547500Y1056250D03*
X776250Y1060000D03*
X262500Y257500D03*
X212500Y257500D03*
X337500Y428750D03*
X223750Y402500D03*
X362500Y206250D03*
X557500Y428750D03*
X98750Y207500D03*
X800000Y216250D03*
X1018750Y216250D03*
X1007500Y452500D03*
X897500Y471250D03*
X1007500Y665000D03*
X926250Y665000D03*
X920000Y216250D03*
X1025000Y883750D03*
X320000Y672500D03*
X243750Y672500D03*
X557500Y665000D03*
X332500Y853750D03*
X190000Y831250D03*
X508750Y846250D03*
X782500Y853750D03*
X906250Y721250D03*
D12*
X817500Y207500D02*
X817500Y153750D01*
X817500Y207500D02*
X765000Y260000D01*
D11*
X93750Y790000D03*
X143750Y790000D03*
X312500Y762500D03*
X112500Y790000D03*
X91250Y577500D03*
X58750Y577500D03*
X87500Y365000D03*
X55000Y397500D03*
X312500Y337500D03*
X358750Y337500D03*
X286250Y337500D03*
X312500Y550000D03*
X358750Y550000D03*
X286250Y550000D03*
X336250Y550000D03*
X283750Y762500D03*
X537500Y762500D03*
X593750Y791250D03*
X562500Y762500D03*
X510000Y762500D03*
X717500Y897500D03*
X732500Y897500D03*
X765000Y897500D03*
X762500Y975000D03*
X793750Y975000D03*
X817500Y1003750D03*
X548750Y1066250D03*
X595000Y1033750D03*
X592500Y897500D03*
X741250Y975000D03*
X607500Y925000D03*
X87500Y1002500D03*
X58750Y1002500D03*
X318750Y1066250D03*
X370000Y1033750D03*
X312500Y975000D03*
X537500Y975000D03*
X562500Y975000D03*
X507500Y975000D03*
X762500Y550000D03*
X808750Y550000D03*
X787500Y550000D03*
X710000Y556250D03*
X762500Y762500D03*
X817500Y791250D03*
X787500Y762500D03*
X828750Y737500D03*
X987500Y975000D03*
X1042500Y1003750D03*
X1012500Y975000D03*
X982500Y1033750D03*
X1042500Y577500D03*
X957500Y550000D03*
X1013750Y550000D03*
X1018750Y737500D03*
X1035000Y737500D03*
X926250Y581250D03*
X936250Y1008750D03*
X987500Y337500D03*
X1035000Y337500D03*
X1012500Y337500D03*
X941250Y383750D03*
X891250Y333750D03*
X87500Y152500D03*
X142500Y153750D03*
X57500Y152500D03*
X531250Y550000D03*
X516250Y550000D03*
X562500Y550000D03*
X762500Y337500D03*
X793750Y337500D03*
X561250Y472500D03*
X592500Y472500D03*
X607500Y472500D03*
X595000Y396250D03*
X543750Y472500D03*
X558750Y42500D03*
X558750Y27500D03*
X762500Y125000D03*
X787500Y125000D03*
X817500Y153750D03*
X717500Y260000D03*
X732500Y260000D03*
X765000Y260000D03*
X593750Y260000D03*
X560000Y260000D03*
X560000Y312500D03*
X565000Y110000D03*
X588750Y550000D03*
X537500Y260000D03*
X282000Y44000D03*
X239500Y56500D03*
X217500Y243750D03*
X273750Y243750D03*
X386250Y222500D03*
X527500Y216250D03*
X603750Y218750D03*
X753750Y216250D03*
X85000Y102500D03*
X57500Y116250D03*
X100000Y108750D03*
X67500Y115000D03*
X117500Y115000D03*
X67500Y125000D03*
X110000Y158750D03*
X76250Y158750D03*
X82500Y125000D03*
X137500Y125000D03*
X128750Y158750D03*
X147500Y125000D03*
X92500Y118750D03*
X293750Y212500D03*
X271250Y125000D03*
X297500Y112500D03*
X318750Y103750D03*
X272500Y103750D03*
X348750Y102500D03*
X393750Y137500D03*
X348750Y112500D03*
X293750Y125000D03*
X318750Y160000D03*
X351250Y152500D03*
X305000Y152500D03*
X333750Y160000D03*
X357500Y160000D03*
X312500Y190000D03*
X346250Y183750D03*
X372500Y125000D03*
X320000Y118750D03*
X517500Y216250D03*
X517500Y183750D03*
X543750Y102500D03*
X555000Y108750D03*
X505000Y152500D03*
X562500Y182500D03*
X530000Y183750D03*
X570000Y118750D03*
X517500Y118750D03*
X576250Y152500D03*
X543750Y152500D03*
X558750Y160000D03*
X582500Y160000D03*
X531250Y125000D03*
X572500Y183750D03*
X596250Y125000D03*
X546250Y125000D03*
D12*
X780000Y117500D02*
X780000Y115000D01*
X780000Y117500D02*
X717500Y180000D01*
X711250Y180000D01*
D11*
X743750Y212500D03*
X711250Y180000D03*
X780000Y115000D03*
X790000Y112500D03*
X728750Y155000D03*
X792500Y152500D03*
X738750Y105000D03*
X781250Y93750D03*
X751250Y105000D03*
X807500Y125000D03*
X768750Y160000D03*
X755000Y118750D03*
X781250Y160000D03*
X806250Y160000D03*
X770000Y118750D03*
X822500Y125000D03*
X831250Y238750D03*
X975000Y238750D03*
X1038750Y160000D03*
X1057500Y125000D03*
X1000000Y152500D03*
X1016250Y183750D03*
X1000000Y182500D03*
X1047500Y125000D03*
X1006250Y160000D03*
X1021250Y160000D03*
X981250Y125000D03*
X993750Y160000D03*
X1032500Y125000D03*
X981250Y158750D03*
X1018750Y112500D03*
X966250Y125000D03*
X1006250Y125000D03*
X957500Y183750D03*
X968750Y212500D03*
X936250Y180000D03*
X1000000Y106250D03*
X645000Y67500D03*
X561250Y75000D03*
X657500Y51250D03*
X571250Y75000D03*
X585000Y75000D03*
X617500Y46250D03*
X597500Y77500D03*
X607500Y47500D03*
X171250Y125000D03*
X385000Y25000D03*
X596250Y108750D03*
X501250Y92500D03*
X833750Y152500D03*
X927500Y191250D03*
X1060000Y256250D03*
X716250Y152500D03*
X905000Y177500D03*
X41250Y236250D03*
X225000Y237500D03*
X492500Y125000D03*
X352500Y537500D03*
X513750Y523750D03*
X298750Y531250D03*
X303750Y125000D03*
X353750Y125000D03*
X353750Y246250D03*
X318750Y312500D03*
X127500Y115000D03*
X127500Y326250D03*
X296250Y295000D03*
X522500Y312500D03*
X-25000Y937500D03*
X123750Y938750D03*
X296250Y973750D03*
X348750Y958750D03*
X105000Y725000D03*
X117500Y737500D03*
X297500Y740000D03*
X355000Y751250D03*
X513750Y737500D03*
X523750Y963750D03*
X747500Y671250D03*
X795000Y683750D03*
X1048750Y721250D03*
X1071250Y720000D03*
X747500Y41250D03*
X801250Y41250D03*
X963750Y101250D03*
X581250Y46250D03*
X1026250Y95000D03*
X693750Y690000D03*
X1026250Y1066250D03*
X962500Y1066250D03*
X967500Y877500D03*
X1013750Y203750D03*
X1032500Y877500D03*
X517500Y240000D03*
X578750Y240000D03*
X67500Y240000D03*
X92500Y240000D03*
X152500Y240000D03*
X362500Y216250D03*
X345000Y641250D03*
X287500Y641250D03*
X570000Y877500D03*
X531250Y877500D03*
X733750Y637500D03*
X697500Y637500D03*
X695000Y867500D03*
X392500Y641250D03*
X5000Y296250D03*
X795000Y853750D03*
X45000Y75000D03*
X57500Y80000D03*
X62500Y47500D03*
X67500Y80000D03*
X72500Y47500D03*
X80000Y80000D03*
X85000Y17500D03*
X95000Y80000D03*
X95000Y17500D03*
X106250Y17500D03*
X108750Y81250D03*
X117500Y21250D03*
X123750Y33750D03*
X133750Y90000D03*
X130500Y17500D03*
X151000Y28000D03*
X167500Y73750D03*
X139196Y39196D03*
X170000Y29000D03*
X254000Y45000D03*
X248750Y91250D03*
X273750Y87500D03*
X261250Y78750D03*
X278750Y78750D03*
X157500Y75000D03*
X307500Y75000D03*
X310000Y47500D03*
X317500Y75000D03*
X320000Y85000D03*
X331250Y47500D03*
X363750Y43750D03*
X332500Y75000D03*
X376250Y47500D03*
X348750Y91250D03*
X347500Y41250D03*
X373750Y31250D03*
X362500Y87500D03*
X372500Y85000D03*
X378750Y92500D03*
X412500Y83750D03*
X500000Y41250D03*
X513750Y81250D03*
X427500Y53750D03*
X513750Y47500D03*
X441250Y48750D03*
X451250Y47500D03*
X528750Y75000D03*
X548750Y75000D03*
X692500Y80000D03*
X723750Y43750D03*
X726250Y92500D03*
X738750Y80000D03*
X738750Y46250D03*
X706250Y80000D03*
X748750Y80000D03*
X716250Y80000D03*
X738750Y93750D03*
X771250Y76250D03*
X762500Y47500D03*
X787500Y75000D03*
X772500Y47500D03*
X793750Y47500D03*
X795000Y81250D03*
X906250Y91250D03*
X941250Y77500D03*
X820000Y81250D03*
X827500Y75000D03*
X951250Y83750D03*
X951250Y45000D03*
X971250Y85000D03*
X972500Y45000D03*
X981250Y85000D03*
X988750Y47500D03*
X998750Y47500D03*
X997500Y83750D03*
X1008750Y47500D03*
X1007500Y86250D03*
X1020000Y47500D03*
X1022500Y80000D03*
X1032500Y47500D03*
X1037500Y80000D03*
X1046250Y47500D03*
X1055000Y75000D03*
X46250Y290000D03*
X57500Y292500D03*
X62500Y260000D03*
X67500Y292500D03*
X72500Y260000D03*
X80000Y292500D03*
X92500Y260000D03*
X93750Y292500D03*
X102500Y260000D03*
X112500Y258750D03*
X108750Y293750D03*
X122500Y258750D03*
X133750Y256250D03*
X137500Y292500D03*
X147500Y260000D03*
X136250Y302500D03*
X272500Y287500D03*
X263750Y292500D03*
X251250Y292500D03*
X288750Y287500D03*
X307500Y260000D03*
X306250Y293750D03*
X348750Y300000D03*
X325000Y260000D03*
X323750Y287500D03*
X367500Y260000D03*
X335000Y287500D03*
X382500Y260000D03*
X345000Y287500D03*
X390000Y267500D03*
X361250Y296250D03*
X360000Y253750D03*
X378750Y302500D03*
X383750Y247500D03*
X412500Y292500D03*
X500000Y253750D03*
X513750Y293750D03*
X513750Y260000D03*
X523750Y260000D03*
X528750Y297500D03*
X615000Y280000D03*
X552500Y287500D03*
X571250Y297500D03*
X570000Y287500D03*
X667500Y267500D03*
X591250Y290000D03*
X642500Y253750D03*
X670000Y298750D03*
X687500Y292500D03*
X716250Y310000D03*
X716250Y241250D03*
X732500Y247500D03*
X738750Y306250D03*
X753750Y253750D03*
X716250Y292500D03*
X757500Y287500D03*
X748750Y306250D03*
X771250Y287500D03*
X748750Y292500D03*
X775000Y260000D03*
X798750Y306250D03*
X792500Y287500D03*
X797500Y296250D03*
X811250Y287500D03*
X815000Y260000D03*
X913750Y292500D03*
X891250Y286250D03*
X935000Y266250D03*
X978750Y292500D03*
X951250Y260000D03*
X966250Y298750D03*
X971250Y260000D03*
X981250Y260000D03*
X992500Y292500D03*
X996250Y260000D03*
X1002500Y292500D03*
X1006250Y260000D03*
X1012500Y292500D03*
X1022500Y260000D03*
X1022500Y292500D03*
X1032500Y260000D03*
X1037500Y292500D03*
X1046250Y260000D03*
X1055000Y287500D03*
X42500Y502500D03*
X52500Y505000D03*
X62500Y472500D03*
X67500Y505000D03*
X76250Y472500D03*
X80000Y505000D03*
X92500Y472500D03*
X93750Y505000D03*
X102500Y472500D03*
X112500Y471250D03*
X108750Y506250D03*
X122500Y471250D03*
X133750Y468750D03*
X121250Y505000D03*
X137500Y505000D03*
X147500Y472500D03*
X145000Y511250D03*
X238750Y478750D03*
X246250Y495000D03*
X288750Y502500D03*
X176250Y492500D03*
X308750Y472500D03*
X318750Y512500D03*
X328750Y472500D03*
X323750Y500000D03*
X367500Y472500D03*
X335000Y500000D03*
X382500Y472500D03*
X345000Y500000D03*
X390000Y480000D03*
X361250Y508750D03*
X375000Y466250D03*
X398750Y505000D03*
X386250Y513750D03*
X496250Y467500D03*
X501250Y500000D03*
X513750Y500000D03*
X520000Y472500D03*
X528750Y500000D03*
X528750Y510000D03*
X481250Y503750D03*
X541250Y500000D03*
X473750Y496250D03*
X610000Y500000D03*
X571250Y510000D03*
X571250Y500000D03*
X615000Y478750D03*
X577500Y466250D03*
X668750Y480000D03*
X628750Y456250D03*
X583750Y500000D03*
X658750Y472500D03*
X597500Y502500D03*
X665000Y462500D03*
X692500Y477500D03*
X708750Y471250D03*
X723750Y465000D03*
X730000Y521250D03*
X746250Y460000D03*
X758750Y466250D03*
X742500Y518750D03*
X771250Y506250D03*
X773750Y472500D03*
X781250Y506250D03*
X792500Y500000D03*
X793750Y510000D03*
X810000Y500000D03*
X815000Y472500D03*
X822500Y505000D03*
X833750Y511250D03*
X951250Y465000D03*
X978750Y505000D03*
X951250Y516250D03*
X966250Y511250D03*
X971250Y472500D03*
X981250Y472500D03*
X992500Y505000D03*
X993750Y472500D03*
X1002500Y505000D03*
X1003750Y472500D03*
X1012500Y505000D03*
X1022500Y465000D03*
X1022500Y505000D03*
X1032500Y472500D03*
X1037500Y505000D03*
X1046250Y472500D03*
X1055000Y500000D03*
X50000Y685000D03*
X57500Y717500D03*
X62500Y685000D03*
X67500Y717500D03*
X72500Y685000D03*
X80000Y717500D03*
X92500Y685000D03*
X90000Y717500D03*
X102500Y685000D03*
X112500Y683750D03*
X117500Y726250D03*
X122500Y683750D03*
X133750Y681250D03*
X138750Y717500D03*
X147500Y685000D03*
X137500Y727500D03*
X272500Y712500D03*
X262500Y711250D03*
X288750Y712500D03*
X242500Y705000D03*
X291250Y685000D03*
X307500Y685000D03*
X306250Y718750D03*
X348750Y728750D03*
X325000Y685000D03*
X323750Y712500D03*
X367500Y685000D03*
X335000Y712500D03*
X382500Y685000D03*
X345000Y712500D03*
X390000Y692500D03*
X361250Y725000D03*
X360000Y678750D03*
X396250Y717500D03*
X383750Y672500D03*
X497500Y715000D03*
X500000Y678750D03*
X513750Y712500D03*
X513750Y685000D03*
X523750Y685000D03*
X533750Y685000D03*
X540000Y718750D03*
X485000Y710000D03*
X553750Y717500D03*
X563750Y718750D03*
X571250Y712500D03*
X668750Y692500D03*
X591250Y715000D03*
X592500Y682500D03*
X598750Y722500D03*
X687500Y717500D03*
X716250Y728750D03*
X707500Y685000D03*
X722500Y678750D03*
X730000Y733750D03*
X753750Y678750D03*
X750000Y725000D03*
X742500Y731250D03*
X771250Y718750D03*
X768750Y685000D03*
X797500Y731250D03*
X792500Y712500D03*
X797500Y721250D03*
X810000Y712500D03*
X812500Y685000D03*
X822500Y715000D03*
X951250Y727500D03*
X935000Y691250D03*
X978750Y717500D03*
X951250Y685000D03*
X966250Y723750D03*
X971250Y685000D03*
X981250Y685000D03*
X992500Y717500D03*
X996250Y685000D03*
X1002500Y717500D03*
X1006250Y685000D03*
X1012500Y717500D03*
X1022500Y685000D03*
X1022500Y717500D03*
X1032500Y685000D03*
X1037500Y717500D03*
X1046250Y685000D03*
X1055000Y712500D03*
X45000Y925000D03*
X57500Y930000D03*
X62500Y897500D03*
X67500Y930000D03*
X72500Y897500D03*
X80000Y930000D03*
X92500Y897500D03*
X93750Y930000D03*
X102500Y897500D03*
X112500Y896250D03*
X110000Y932500D03*
X122500Y896250D03*
X132500Y897500D03*
X133750Y940000D03*
X148750Y897500D03*
X143750Y941250D03*
X222500Y935000D03*
X273750Y927500D03*
X288750Y925000D03*
X288750Y897500D03*
X308750Y897500D03*
X311250Y931250D03*
X318750Y937500D03*
X328750Y897500D03*
X341250Y897500D03*
X327500Y925000D03*
X317500Y947500D03*
X382500Y897500D03*
X345000Y925000D03*
X390000Y905000D03*
X361250Y933750D03*
X375000Y891250D03*
X398750Y930000D03*
X386250Y938750D03*
X496250Y892500D03*
X501250Y925000D03*
X513750Y925000D03*
X520000Y897500D03*
X528750Y925000D03*
X528750Y935000D03*
X481250Y928750D03*
X541250Y925000D03*
X473750Y921250D03*
X625000Y917500D03*
X551250Y925000D03*
X615000Y916250D03*
X567500Y925000D03*
X618750Y903750D03*
X572500Y895000D03*
X668750Y905000D03*
X616250Y880000D03*
X643750Y928750D03*
X595000Y887500D03*
X597500Y927500D03*
X615000Y890000D03*
X710000Y941250D03*
X710000Y882500D03*
X721250Y885000D03*
X738750Y943750D03*
X753750Y891250D03*
X716250Y930000D03*
X757500Y925000D03*
X748750Y943750D03*
X771250Y925000D03*
X748750Y930000D03*
X775000Y897500D03*
X797500Y943750D03*
X792500Y925000D03*
X797500Y933750D03*
X816250Y925000D03*
X816250Y896250D03*
X825000Y930000D03*
X951250Y940000D03*
X935000Y907500D03*
X978750Y930000D03*
X951250Y897500D03*
X966250Y936250D03*
X971250Y897500D03*
X981250Y897500D03*
X992500Y930000D03*
X996250Y897500D03*
X1002500Y930000D03*
X1006250Y897500D03*
X1012500Y930000D03*
X1022500Y897500D03*
X1022500Y930000D03*
X1032500Y897500D03*
X1037500Y930000D03*
X1046250Y897500D03*
X1055000Y925000D03*
X531250Y287500D03*
X306250Y506250D03*
X162500Y422500D03*
X283750Y422500D03*
X608750Y428750D03*
X740000Y428750D03*
X831250Y428750D03*
X980000Y428750D03*
X188750Y635000D03*
X300000Y635000D03*
X697500Y652500D03*
X753750Y637500D03*
X831250Y641250D03*
X965000Y641250D03*
X156250Y853750D03*
X290000Y853750D03*
X612500Y847500D03*
X746250Y847500D03*
X68750Y216250D03*
D12*
X37500Y290000D02*
X28750Y290000D01*
X37500Y290000D02*
X53750Y273750D01*
X948750Y273750D01*
X997500Y225000D01*
X1058750Y225000D01*
D11*
X1058750Y225000D03*
X28750Y290000D03*
X176250Y1066250D03*
X301250Y1066250D03*
X52500Y417500D03*
X987500Y325000D03*
X946250Y365000D03*
X1008750Y325000D03*
X1033750Y412500D03*
X1007500Y396250D03*
X975000Y396250D03*
X992500Y311250D03*
X967500Y331250D03*
X1027500Y365000D03*
X992500Y365000D03*
X1008750Y372500D03*
X1021250Y372500D03*
X980000Y331250D03*
X1018750Y396250D03*
X1046250Y337500D03*
X995000Y331250D03*
X380000Y428750D03*
X528750Y428750D03*
X80000Y310000D03*
X47500Y327500D03*
X105000Y322500D03*
X56250Y337500D03*
X117500Y325000D03*
X67500Y316250D03*
X103750Y367500D03*
X71250Y400000D03*
X137500Y337500D03*
X120000Y401250D03*
X82500Y337500D03*
X113750Y368750D03*
X127500Y372500D03*
X151250Y336250D03*
X92500Y331250D03*
X326250Y366250D03*
X271250Y378750D03*
X312500Y325000D03*
X272500Y332500D03*
X332500Y396250D03*
X308750Y396250D03*
X345000Y337500D03*
X302500Y372500D03*
X318750Y372500D03*
X348750Y365000D03*
X308750Y365000D03*
X333750Y372500D03*
X357500Y372500D03*
X303750Y331250D03*
X345000Y396250D03*
X371250Y337500D03*
X320000Y331250D03*
X541250Y318750D03*
X501250Y318750D03*
X556250Y325000D03*
X503750Y365000D03*
X567500Y365000D03*
X515000Y365000D03*
X568750Y337500D03*
X517500Y331250D03*
X581250Y337500D03*
X543750Y371250D03*
X531250Y337500D03*
X556250Y372500D03*
X577500Y372500D03*
X546250Y337500D03*
X591250Y337500D03*
X600000Y365000D03*
X567500Y397500D03*
X781250Y320000D03*
X726250Y320000D03*
X790000Y325000D03*
X731250Y365000D03*
X787500Y395000D03*
X738750Y396250D03*
X796250Y365000D03*
X755000Y371250D03*
X810000Y325000D03*
X832500Y337500D03*
X783750Y372500D03*
X802500Y372500D03*
X755000Y331250D03*
X797500Y396250D03*
X822500Y337500D03*
X771250Y331250D03*
X1051250Y430000D03*
X28750Y490000D03*
X68750Y665000D03*
X80000Y521250D03*
X46250Y577500D03*
X91250Y521250D03*
X52500Y550000D03*
X117500Y535000D03*
X67500Y533750D03*
X106250Y585000D03*
X73750Y585000D03*
X133750Y537500D03*
X85000Y537500D03*
X85000Y550000D03*
X137500Y550000D03*
X127500Y585000D03*
X150000Y548750D03*
X92500Y543750D03*
X326250Y578750D03*
X261250Y548750D03*
X312500Y537500D03*
X276250Y537500D03*
X332500Y608750D03*
X308750Y608750D03*
X318750Y523750D03*
X291250Y523750D03*
X318750Y585000D03*
X352500Y577500D03*
X308750Y577500D03*
X333750Y585000D03*
X346250Y585000D03*
X303750Y543750D03*
X343750Y608750D03*
X373750Y550000D03*
X320000Y543750D03*
X381250Y650000D03*
X528750Y640000D03*
X536250Y528750D03*
X497500Y548750D03*
X553750Y535000D03*
X503750Y577500D03*
X558750Y608750D03*
X526250Y608750D03*
X565000Y537500D03*
X520000Y577500D03*
X543750Y585000D03*
X576250Y577500D03*
X530000Y577500D03*
X558750Y585000D03*
X582500Y585000D03*
X537500Y615000D03*
X571250Y608750D03*
X598750Y550000D03*
X542500Y543750D03*
X743750Y637500D03*
X711250Y605000D03*
X780000Y540000D03*
X756250Y542500D03*
X722500Y550000D03*
X786250Y578750D03*
X746250Y608750D03*
X795000Y537500D03*
X750000Y578750D03*
X802500Y577500D03*
X770000Y610000D03*
X766250Y580000D03*
X778750Y585000D03*
X793750Y608750D03*
X822500Y550000D03*
X770000Y543750D03*
X1008750Y608750D03*
X976250Y608750D03*
X1002500Y537500D03*
X953750Y577500D03*
X1018750Y537500D03*
X966250Y543750D03*
X1016250Y577500D03*
X975000Y577500D03*
X1006250Y585000D03*
X1023750Y585000D03*
X981250Y543750D03*
X1020000Y608750D03*
X1047500Y550000D03*
X995000Y543750D03*
D12*
X338750Y691250D02*
X21250Y691250D01*
X338750Y691250D02*
X363750Y666250D01*
X397500Y666250D01*
X402500Y671250D01*
D11*
X21250Y691250D03*
X402500Y671250D03*
X68750Y853750D03*
X382500Y853750D03*
X515000Y853750D03*
X80000Y731250D03*
X46250Y758750D03*
X90000Y731250D03*
X51250Y741250D03*
X117500Y747500D03*
X67500Y746250D03*
X106250Y797500D03*
X73750Y792500D03*
X133750Y750000D03*
X85000Y750000D03*
X85000Y762500D03*
X137500Y762500D03*
X128750Y796250D03*
X150000Y762500D03*
X92500Y756250D03*
X326250Y791250D03*
X271250Y791250D03*
X306250Y746250D03*
X272500Y746250D03*
X332500Y821250D03*
X308750Y821250D03*
X318750Y737500D03*
X291250Y725000D03*
X318750Y797500D03*
X306250Y797500D03*
X355000Y790000D03*
X333750Y797500D03*
X361250Y797500D03*
X305000Y756250D03*
X343750Y821250D03*
X375000Y762500D03*
X323750Y762500D03*
X528750Y743750D03*
X493750Y790000D03*
X542500Y750000D03*
X503750Y790000D03*
X562500Y820000D03*
X532500Y821250D03*
X558750Y750000D03*
X518750Y790000D03*
X543750Y797500D03*
X531250Y797500D03*
X582500Y762500D03*
X558750Y797500D03*
X571250Y797500D03*
X530000Y756250D03*
X586250Y797500D03*
X601250Y797500D03*
X552500Y790000D03*
X780000Y752500D03*
X816250Y743750D03*
X791250Y750000D03*
X808750Y750000D03*
X782500Y821250D03*
X762500Y821250D03*
X796250Y790000D03*
X750000Y790000D03*
X783750Y797500D03*
X802500Y797500D03*
X755000Y756250D03*
D12*
X793750Y796250D02*
X793750Y821250D01*
X793750Y796250D02*
X770000Y772500D01*
X770000Y756250D01*
D11*
X793750Y821250D03*
X770000Y756250D03*
X822500Y762500D03*
X1007500Y821250D03*
X983750Y821250D03*
X995000Y750000D03*
X951250Y750000D03*
X1016250Y790000D03*
X965000Y790000D03*
X1018750Y756250D03*
X967500Y756250D03*
X993750Y797500D03*
X981250Y797500D03*
X1032500Y762500D03*
X1006250Y797500D03*
X1022500Y797500D03*
X1018750Y821250D03*
X1047500Y762500D03*
X998750Y762500D03*
X1048750Y790000D03*
X1032500Y797500D03*
X1061250Y861250D03*
X86250Y848750D03*
X716250Y861250D03*
X67500Y1065000D03*
X83750Y955000D03*
X47500Y975000D03*
X82500Y945000D03*
X67500Y945000D03*
X118750Y968750D03*
X66250Y975000D03*
X122500Y1008750D03*
X76250Y1008750D03*
X132500Y975000D03*
X88750Y967500D03*
X82500Y975000D03*
X103750Y1002500D03*
X115000Y1002500D03*
X147500Y970000D03*
X95000Y975000D03*
X326250Y1003750D03*
X271250Y1016250D03*
X307500Y947500D03*
X212500Y967500D03*
X332500Y1033750D03*
X308750Y1033750D03*
X347500Y975000D03*
X298750Y1002500D03*
X318750Y1010000D03*
X348750Y1002500D03*
X308750Y1002500D03*
X333750Y1010000D03*
X357500Y1010000D03*
X305000Y968750D03*
X345000Y1033750D03*
X372500Y975000D03*
X320000Y968750D03*
X541250Y956250D03*
X501250Y956250D03*
X556250Y962500D03*
X503750Y1002500D03*
X558750Y1033750D03*
X523750Y1033750D03*
X567500Y962500D03*
X516250Y950000D03*
X542500Y1010000D03*
X575000Y1003750D03*
X530000Y1002500D03*
X558750Y1010000D03*
X582500Y1010000D03*
X515000Y1038750D03*
X572500Y1033750D03*
X592500Y975000D03*
X545000Y968750D03*
X780000Y965000D03*
X722500Y1002500D03*
X790000Y962500D03*
X726250Y958750D03*
X783750Y1033750D03*
X762500Y1033750D03*
X796250Y1002500D03*
X755000Y1008750D03*
X783750Y1010000D03*
X802500Y1010000D03*
X755000Y968750D03*
X793750Y1033750D03*
X825000Y975000D03*
X770000Y968750D03*
X978750Y948750D03*
X946250Y966250D03*
X995000Y962500D03*
X953750Y1002500D03*
X1007500Y1033750D03*
X980000Y1045000D03*
X1022500Y966250D03*
X968750Y1002500D03*
X993750Y1010000D03*
X981250Y1002500D03*
X1032500Y975000D03*
X1008750Y1010000D03*
X1021250Y1010000D03*
X980000Y968750D03*
X1047500Y975000D03*
X1032500Y1033750D03*
X1002500Y1002500D03*
X1031250Y1008750D03*
D12*
X948750Y327500D02*
X906250Y327500D01*
X831250Y402500D01*
X753750Y402500D01*
X716250Y365000D01*
D11*
X948750Y327500D03*
X41250Y423750D03*
X251250Y435000D03*
X410000Y435000D03*
X266250Y416250D03*
X716250Y365000D03*
X1058750Y436250D03*
X107500Y452500D03*
X386250Y458750D03*
X585000Y415000D03*
X383750Y415000D03*
X833750Y365000D03*
X700000Y402500D03*
X1058750Y400000D03*
D12*
X948750Y536250D02*
X810000Y536250D01*
X775000Y571250D01*
X712500Y571250D01*
X710000Y573750D01*
D11*
X948750Y536250D03*
X41250Y542500D03*
X133750Y523750D03*
X476250Y615000D03*
X287500Y627500D03*
X710000Y573750D03*
X833750Y543750D03*
X1057500Y550000D03*
X158750Y577500D03*
X383750Y577500D03*
X506250Y608750D03*
X632500Y606250D03*
D12*
X282500Y685000D02*
X256250Y685000D01*
X282500Y685000D02*
X310000Y657500D01*
X405000Y657500D01*
X492500Y745000D01*
D11*
X33750Y720000D03*
X256250Y685000D03*
X492500Y745000D03*
X695000Y775000D03*
X860000Y776250D03*
X942500Y831250D03*
X1058750Y762500D03*
X158750Y790000D03*
X383750Y790000D03*
X603750Y813750D03*
X827500Y795000D03*
X836250Y816250D03*
D12*
X1170000Y650000D02*
X1170000Y638900D01*
X1170000Y650000D02*
X1065000Y755000D01*
X1065000Y792500D01*
X806250Y1051250D01*
X765000Y1051250D01*
D11*
X716250Y1022500D03*
X765000Y1051250D03*
X41250Y1021250D03*
X171250Y1027500D03*
X473750Y990000D03*
D12*
X826250Y1010000D02*
X833750Y1010000D01*
X826250Y1010000D02*
X791250Y1045000D01*
X552500Y1045000D01*
D11*
X833750Y1010000D03*
X1035000Y952500D03*
X158750Y1021250D03*
X320000Y1047500D03*
X552500Y1045000D03*
X492500Y1045000D03*
X-76250Y972500D03*
X455000Y283750D03*
D12*
X553750Y246250D02*
X588750Y246250D01*
X612500Y222500D01*
X782500Y222500D01*
X787500Y217500D01*
X118750Y215000D02*
X91250Y215000D01*
X118750Y215000D02*
X155000Y251250D01*
X330000Y251250D01*
X341250Y240000D01*
D11*
X91250Y215000D03*
X341250Y240000D03*
X553750Y246250D03*
X787500Y217500D03*
X1007500Y216250D03*
X796250Y425000D03*
X1006250Y428750D03*
X95000Y428750D03*
X320000Y428750D03*
X556250Y452500D03*
X636250Y450000D03*
D12*
X762500Y637500D02*
X796250Y637500D01*
X762500Y637500D02*
X756250Y643750D01*
X558750Y643750D01*
X556250Y641250D01*
D11*
X796250Y637500D03*
X1006250Y641250D03*
X95000Y641250D03*
X325000Y663750D03*
X556250Y641250D03*
X1012500Y855000D03*
X97500Y842500D03*
X321250Y877500D03*
X556250Y883750D03*
X781250Y877500D03*
X937500Y875000D03*
X93750Y1065000D03*
X311250Y1053750D03*
X576250Y1066250D03*
X767500Y1066250D03*
X370000Y1061250D03*
M02*
