G04 EAGLE Gerber RS-274X export*
G75*
%MOMM*%
%FSLAX34Y34*%
%LPD*%
%INSolderpaste Bottom*%
%IPPOS*%
%AMOC8*
5,1,8,0,0,1.08239X$1,22.5*%
G01*
%ADD10R,0.250000X1.250000*%
%ADD11R,1.650000X2.050000*%


D10*
X52500Y67500D03*
X57500Y67500D03*
X62500Y67500D03*
X67500Y67500D03*
X72500Y67500D03*
X77500Y67500D03*
X82500Y67500D03*
X87500Y67500D03*
X92500Y67500D03*
X97500Y67500D03*
X102500Y67500D03*
X107500Y67500D03*
X112500Y67500D03*
X117500Y67500D03*
X122500Y67500D03*
X127500Y67500D03*
X132500Y67500D03*
X137500Y67500D03*
X142500Y67500D03*
X147500Y67500D03*
D11*
X166500Y100000D03*
X33500Y100000D03*
D10*
X352500Y492500D03*
X357500Y492500D03*
X362500Y492500D03*
X367500Y492500D03*
X372500Y492500D03*
X377500Y492500D03*
X382500Y492500D03*
X387500Y492500D03*
X392500Y492500D03*
X397500Y492500D03*
X402500Y492500D03*
X407500Y492500D03*
X412500Y492500D03*
X417500Y492500D03*
X422500Y492500D03*
X427500Y492500D03*
X432500Y492500D03*
X437500Y492500D03*
X442500Y492500D03*
X447500Y492500D03*
D11*
X466500Y525000D03*
X333500Y525000D03*
D10*
X652500Y492500D03*
X657500Y492500D03*
X662500Y492500D03*
X667500Y492500D03*
X672500Y492500D03*
X677500Y492500D03*
X682500Y492500D03*
X687500Y492500D03*
X692500Y492500D03*
X697500Y492500D03*
X702500Y492500D03*
X707500Y492500D03*
X712500Y492500D03*
X717500Y492500D03*
X722500Y492500D03*
X727500Y492500D03*
X732500Y492500D03*
X737500Y492500D03*
X742500Y492500D03*
X747500Y492500D03*
D11*
X766500Y525000D03*
X633500Y525000D03*
D10*
X952500Y492500D03*
X957500Y492500D03*
X962500Y492500D03*
X967500Y492500D03*
X972500Y492500D03*
X977500Y492500D03*
X982500Y492500D03*
X987500Y492500D03*
X992500Y492500D03*
X997500Y492500D03*
X1002500Y492500D03*
X1007500Y492500D03*
X1012500Y492500D03*
X1017500Y492500D03*
X1022500Y492500D03*
X1027500Y492500D03*
X1032500Y492500D03*
X1037500Y492500D03*
X1042500Y492500D03*
X1047500Y492500D03*
D11*
X1066500Y525000D03*
X933500Y525000D03*
D10*
X52500Y705000D03*
X57500Y705000D03*
X62500Y705000D03*
X67500Y705000D03*
X72500Y705000D03*
X77500Y705000D03*
X82500Y705000D03*
X87500Y705000D03*
X92500Y705000D03*
X97500Y705000D03*
X102500Y705000D03*
X107500Y705000D03*
X112500Y705000D03*
X117500Y705000D03*
X122500Y705000D03*
X127500Y705000D03*
X132500Y705000D03*
X137500Y705000D03*
X142500Y705000D03*
X147500Y705000D03*
D11*
X166500Y737500D03*
X33500Y737500D03*
D10*
X352500Y705000D03*
X357500Y705000D03*
X362500Y705000D03*
X367500Y705000D03*
X372500Y705000D03*
X377500Y705000D03*
X382500Y705000D03*
X387500Y705000D03*
X392500Y705000D03*
X397500Y705000D03*
X402500Y705000D03*
X407500Y705000D03*
X412500Y705000D03*
X417500Y705000D03*
X422500Y705000D03*
X427500Y705000D03*
X432500Y705000D03*
X437500Y705000D03*
X442500Y705000D03*
X447500Y705000D03*
D11*
X466500Y737500D03*
X333500Y737500D03*
D10*
X652500Y705000D03*
X657500Y705000D03*
X662500Y705000D03*
X667500Y705000D03*
X672500Y705000D03*
X677500Y705000D03*
X682500Y705000D03*
X687500Y705000D03*
X692500Y705000D03*
X697500Y705000D03*
X702500Y705000D03*
X707500Y705000D03*
X712500Y705000D03*
X717500Y705000D03*
X722500Y705000D03*
X727500Y705000D03*
X732500Y705000D03*
X737500Y705000D03*
X742500Y705000D03*
X747500Y705000D03*
D11*
X766500Y737500D03*
X633500Y737500D03*
D10*
X952500Y705000D03*
X957500Y705000D03*
X962500Y705000D03*
X967500Y705000D03*
X972500Y705000D03*
X977500Y705000D03*
X982500Y705000D03*
X987500Y705000D03*
X992500Y705000D03*
X997500Y705000D03*
X1002500Y705000D03*
X1007500Y705000D03*
X1012500Y705000D03*
X1017500Y705000D03*
X1022500Y705000D03*
X1027500Y705000D03*
X1032500Y705000D03*
X1037500Y705000D03*
X1042500Y705000D03*
X1047500Y705000D03*
D11*
X1066500Y737500D03*
X933500Y737500D03*
D10*
X52500Y917500D03*
X57500Y917500D03*
X62500Y917500D03*
X67500Y917500D03*
X72500Y917500D03*
X77500Y917500D03*
X82500Y917500D03*
X87500Y917500D03*
X92500Y917500D03*
X97500Y917500D03*
X102500Y917500D03*
X107500Y917500D03*
X112500Y917500D03*
X117500Y917500D03*
X122500Y917500D03*
X127500Y917500D03*
X132500Y917500D03*
X137500Y917500D03*
X142500Y917500D03*
X147500Y917500D03*
D11*
X166500Y950000D03*
X33500Y950000D03*
D10*
X352500Y917500D03*
X357500Y917500D03*
X362500Y917500D03*
X367500Y917500D03*
X372500Y917500D03*
X377500Y917500D03*
X382500Y917500D03*
X387500Y917500D03*
X392500Y917500D03*
X397500Y917500D03*
X402500Y917500D03*
X407500Y917500D03*
X412500Y917500D03*
X417500Y917500D03*
X422500Y917500D03*
X427500Y917500D03*
X432500Y917500D03*
X437500Y917500D03*
X442500Y917500D03*
X447500Y917500D03*
D11*
X466500Y950000D03*
X333500Y950000D03*
D10*
X652500Y917500D03*
X657500Y917500D03*
X662500Y917500D03*
X667500Y917500D03*
X672500Y917500D03*
X677500Y917500D03*
X682500Y917500D03*
X687500Y917500D03*
X692500Y917500D03*
X697500Y917500D03*
X702500Y917500D03*
X707500Y917500D03*
X712500Y917500D03*
X717500Y917500D03*
X722500Y917500D03*
X727500Y917500D03*
X732500Y917500D03*
X737500Y917500D03*
X742500Y917500D03*
X747500Y917500D03*
D11*
X766500Y950000D03*
X633500Y950000D03*
D10*
X352500Y67500D03*
X357500Y67500D03*
X362500Y67500D03*
X367500Y67500D03*
X372500Y67500D03*
X377500Y67500D03*
X382500Y67500D03*
X387500Y67500D03*
X392500Y67500D03*
X397500Y67500D03*
X402500Y67500D03*
X407500Y67500D03*
X412500Y67500D03*
X417500Y67500D03*
X422500Y67500D03*
X427500Y67500D03*
X432500Y67500D03*
X437500Y67500D03*
X442500Y67500D03*
X447500Y67500D03*
D11*
X466500Y100000D03*
X333500Y100000D03*
D10*
X952500Y917500D03*
X957500Y917500D03*
X962500Y917500D03*
X967500Y917500D03*
X972500Y917500D03*
X977500Y917500D03*
X982500Y917500D03*
X987500Y917500D03*
X992500Y917500D03*
X997500Y917500D03*
X1002500Y917500D03*
X1007500Y917500D03*
X1012500Y917500D03*
X1017500Y917500D03*
X1022500Y917500D03*
X1027500Y917500D03*
X1032500Y917500D03*
X1037500Y917500D03*
X1042500Y917500D03*
X1047500Y917500D03*
D11*
X1066500Y950000D03*
X933500Y950000D03*
D10*
X652500Y67500D03*
X657500Y67500D03*
X662500Y67500D03*
X667500Y67500D03*
X672500Y67500D03*
X677500Y67500D03*
X682500Y67500D03*
X687500Y67500D03*
X692500Y67500D03*
X697500Y67500D03*
X702500Y67500D03*
X707500Y67500D03*
X712500Y67500D03*
X717500Y67500D03*
X722500Y67500D03*
X727500Y67500D03*
X732500Y67500D03*
X737500Y67500D03*
X742500Y67500D03*
X747500Y67500D03*
D11*
X766500Y100000D03*
X633500Y100000D03*
D10*
X952500Y67500D03*
X957500Y67500D03*
X962500Y67500D03*
X967500Y67500D03*
X972500Y67500D03*
X977500Y67500D03*
X982500Y67500D03*
X987500Y67500D03*
X992500Y67500D03*
X997500Y67500D03*
X1002500Y67500D03*
X1007500Y67500D03*
X1012500Y67500D03*
X1017500Y67500D03*
X1022500Y67500D03*
X1027500Y67500D03*
X1032500Y67500D03*
X1037500Y67500D03*
X1042500Y67500D03*
X1047500Y67500D03*
D11*
X1066500Y100000D03*
X933500Y100000D03*
D10*
X52500Y280000D03*
X57500Y280000D03*
X62500Y280000D03*
X67500Y280000D03*
X72500Y280000D03*
X77500Y280000D03*
X82500Y280000D03*
X87500Y280000D03*
X92500Y280000D03*
X97500Y280000D03*
X102500Y280000D03*
X107500Y280000D03*
X112500Y280000D03*
X117500Y280000D03*
X122500Y280000D03*
X127500Y280000D03*
X132500Y280000D03*
X137500Y280000D03*
X142500Y280000D03*
X147500Y280000D03*
D11*
X166500Y312500D03*
X33500Y312500D03*
D10*
X352500Y280000D03*
X357500Y280000D03*
X362500Y280000D03*
X367500Y280000D03*
X372500Y280000D03*
X377500Y280000D03*
X382500Y280000D03*
X387500Y280000D03*
X392500Y280000D03*
X397500Y280000D03*
X402500Y280000D03*
X407500Y280000D03*
X412500Y280000D03*
X417500Y280000D03*
X422500Y280000D03*
X427500Y280000D03*
X432500Y280000D03*
X437500Y280000D03*
X442500Y280000D03*
X447500Y280000D03*
D11*
X466500Y312500D03*
X333500Y312500D03*
D10*
X652500Y280000D03*
X657500Y280000D03*
X662500Y280000D03*
X667500Y280000D03*
X672500Y280000D03*
X677500Y280000D03*
X682500Y280000D03*
X687500Y280000D03*
X692500Y280000D03*
X697500Y280000D03*
X702500Y280000D03*
X707500Y280000D03*
X712500Y280000D03*
X717500Y280000D03*
X722500Y280000D03*
X727500Y280000D03*
X732500Y280000D03*
X737500Y280000D03*
X742500Y280000D03*
X747500Y280000D03*
D11*
X766500Y312500D03*
X633500Y312500D03*
D10*
X952500Y280000D03*
X957500Y280000D03*
X962500Y280000D03*
X967500Y280000D03*
X972500Y280000D03*
X977500Y280000D03*
X982500Y280000D03*
X987500Y280000D03*
X992500Y280000D03*
X997500Y280000D03*
X1002500Y280000D03*
X1007500Y280000D03*
X1012500Y280000D03*
X1017500Y280000D03*
X1022500Y280000D03*
X1027500Y280000D03*
X1032500Y280000D03*
X1037500Y280000D03*
X1042500Y280000D03*
X1047500Y280000D03*
D11*
X1066500Y312500D03*
X933500Y312500D03*
D10*
X52500Y492500D03*
X57500Y492500D03*
X62500Y492500D03*
X67500Y492500D03*
X72500Y492500D03*
X77500Y492500D03*
X82500Y492500D03*
X87500Y492500D03*
X92500Y492500D03*
X97500Y492500D03*
X102500Y492500D03*
X107500Y492500D03*
X112500Y492500D03*
X117500Y492500D03*
X122500Y492500D03*
X127500Y492500D03*
X132500Y492500D03*
X137500Y492500D03*
X142500Y492500D03*
X147500Y492500D03*
D11*
X166500Y525000D03*
X33500Y525000D03*
M02*
